<svg width="22" height="22" viewBox="0 0 22 22" fill="none" xmlns="http://www.w3.org/2000/svg">
<g id="Phosphor Icons / Cloud">
<g id="Vector (Stroke)">
<path fill-rule="evenodd" clip-rule="evenodd" d="M14.8763 5.11391C13.7124 4.8824 12.506 5.00122 11.4096 5.45534C10.3133 5.90947 9.3762 6.6785 8.71691 7.6652C8.05762 8.65189 7.70573 9.81193 7.70573 10.9986C7.70573 11.3668 7.40725 11.6653 7.03906 11.6653C6.67087 11.6653 6.3724 11.3668 6.3724 10.9986C6.3724 10.3218 6.46605 9.65211 6.64782 9.00771C6.55629 9.00162 6.46452 8.99859 6.37265 8.99862H6.3724C5.31153 8.99862 4.29411 9.42005 3.54397 10.1702C2.79382 10.9203 2.3724 11.9378 2.3724 12.9986C2.3724 14.0595 2.79382 15.0769 3.54397 15.827C4.29411 16.5772 5.31153 16.9986 6.3724 16.9986H13.7057C14.8924 16.9986 16.0525 16.6467 17.0392 15.9874C18.0258 15.3281 18.7949 14.3911 19.249 13.2947C19.7031 12.1984 19.822 10.992 19.5904 9.82808C19.3589 8.66419 18.7875 7.59509 17.9484 6.75598C17.1093 5.91686 16.0402 5.34542 14.8763 5.11391ZM7.14605 7.72014C7.28282 7.44649 7.43707 7.18068 7.60829 6.92444C8.41408 5.71848 9.55939 4.77855 10.8994 4.2235C12.2394 3.66846 13.7139 3.52324 15.1364 3.80619C16.5589 4.08915 17.8656 4.78759 18.8912 5.81317C19.9168 6.83876 20.6152 8.14543 20.8982 9.56796C21.1811 10.9905 21.0359 12.465 20.4808 13.805C19.9258 15.145 18.9859 16.2903 17.7799 17.0961C16.574 17.9019 15.1561 18.332 13.7057 18.332H6.3724C4.95791 18.332 3.60135 17.77 2.60116 16.7699C1.60097 15.7697 1.03906 14.4131 1.03906 12.9986C1.03906 11.5841 1.60097 10.2276 2.60116 9.22738C3.60129 8.22725 4.95775 7.66535 6.37215 7.66529M7.14605 7.72014C6.89002 7.68357 6.63149 7.6652 6.3724 7.66529L7.14605 7.72014Z" fill="#2D81E0"/>
<path d="M7.14605 7.72014C7.28282 7.44649 7.43707 7.18068 7.60829 6.92444C8.41408 5.71848 9.55939 4.77855 10.8994 4.2235C12.2394 3.66846 13.7139 3.52324 15.1364 3.80619C16.5589 4.08915 17.8656 4.78759 18.8912 5.81317C19.9168 6.83876 20.6152 8.14543 20.8982 9.56796C21.1811 10.9905 21.0359 12.465 20.4808 13.805C19.9258 15.145 18.9859 16.2903 17.7799 17.0961C16.574 17.9019 15.1561 18.332 13.7057 18.332H6.3724C4.95791 18.332 3.60135 17.77 2.60116 16.7699C1.60097 15.7697 1.03906 14.4131 1.03906 12.9986C1.03906 11.5841 1.60097 10.2276 2.60116 9.22738C3.60129 8.22725 4.95775 7.66535 6.37215 7.66529L7.14605 7.72014ZM7.14605 7.72014C6.89002 7.68357 6.63149 7.6652 6.3724 7.66529L7.14605 7.72014ZM11.4096 5.45534C12.506 5.00122 13.7124 4.8824 14.8763 5.11391C16.0402 5.34542 17.1093 5.91686 17.9484 6.75598C18.7875 7.59509 19.3589 8.66419 19.5904 9.82808C19.822 10.992 19.7031 12.1984 19.249 13.2947C18.7949 14.3911 18.0258 15.3281 17.0392 15.9874C16.0525 16.6467 14.8924 16.9986 13.7057 16.9986H6.3724C5.31153 16.9986 4.29411 16.5772 3.54397 15.827C2.79382 15.0769 2.3724 14.0595 2.3724 12.9986C2.3724 11.9378 2.79382 10.9203 3.54397 10.1702C4.29411 9.42005 5.31153 8.99862 6.3724 8.99862H6.37265C6.46452 8.99859 6.55629 9.00162 6.64782 9.00771C6.46605 9.65211 6.3724 10.3218 6.3724 10.9986C6.3724 11.3668 6.67087 11.6653 7.03906 11.6653C7.40725 11.6653 7.70573 11.3668 7.70573 10.9986C7.70573 9.81193 8.05762 8.65189 8.71691 7.6652C9.3762 6.6785 10.3133 5.90947 11.4096 5.45534Z" stroke="#2D81E0" stroke-width="0.5" stroke-linecap="round" stroke-linejoin="round"/>
</g>
</g>
</svg>
