<svg width="22" height="22" viewBox="0 0 22 22" fill="none" xmlns="http://www.w3.org/2000/svg">
<g id="Phosphor Icons / Confetti">
<path id="Vector (Stroke)" fill-rule="evenodd" clip-rule="evenodd" d="M8.31511 4.242C8.53461 4.19377 8.76274 4.20181 8.97829 4.26537C9.19333 4.32877 9.3889 4.44536 9.54692 4.60436C9.54731 4.60475 9.54769 4.60514 9.54807 4.60552L17.394 12.4515C17.3945 12.4519 17.3949 12.4524 17.3954 12.4528C17.5543 12.6108 17.6708 12.8063 17.7342 13.0212C17.7977 13.2368 17.8058 13.4649 17.7575 13.6844C17.7093 13.9039 17.6064 14.1077 17.4583 14.2767C17.3103 14.4458 17.1219 14.5747 16.9107 14.6515L4.57319 19.1333C4.3359 19.2226 4.07792 19.2421 3.82986 19.1891C3.57964 19.1358 3.35024 19.0111 3.16933 18.8302C2.98843 18.6493 2.86377 18.4199 2.8104 18.1697C2.75748 17.9216 2.7769 17.6636 2.86628 17.4263L7.34804 5.08894C7.4248 4.87772 7.55373 4.68925 7.7228 4.5412C7.89187 4.39314 8.09562 4.29022 8.31511 4.242ZM3.49131 17.6582L4.11403 17.8963C4.11461 17.8948 4.11474 17.8931 4.1144 17.8916C4.11406 17.89 4.11328 17.8885 4.11214 17.8874C4.11101 17.8863 4.10956 17.8855 4.10799 17.8851C4.10646 17.8848 4.10487 17.8849 4.1034 17.8855L4.11003 17.883L3.49131 17.6582ZM4.12033 17.8792L16.4553 13.3983L16.4532 13.3963L8.60324 5.5463L8.60122 5.54427L4.12033 17.8792Z" fill="#FE8034"/>
<path id="Vector (Stroke)_2" fill-rule="evenodd" clip-rule="evenodd" d="M18.3385 1.6665C18.7067 1.6665 19.0052 1.96498 19.0052 2.33317H18.3385C19.0052 2.33317 19.0052 2.3335 19.0052 2.33385L19.0052 2.33457L19.0052 2.33616L19.0052 2.33991L19.0051 2.34966C19.0049 2.35714 19.0047 2.36658 19.0044 2.37784C19.0036 2.40035 19.0022 2.43029 18.9996 2.46661C18.9944 2.53902 18.9844 2.63811 18.9649 2.75527C18.9264 2.98643 18.8481 3.30484 18.6848 3.63131C18.5203 3.9604 18.263 4.30977 17.8646 4.57537C17.462 4.84376 16.9552 4.99984 16.3385 4.99984C15.9552 4.99984 15.712 5.09376 15.5521 5.20037C15.388 5.30977 15.2703 5.4604 15.1848 5.63131C15.0981 5.80484 15.0514 5.98643 15.0274 6.13027C15.0157 6.20061 15.0101 6.25777 15.0074 6.29473C15.0061 6.3131 15.0056 6.32613 15.0053 6.33292L15.0052 6.33783C15.0027 6.70387 14.7052 6.99984 14.3385 6.99984C13.9704 6.99984 13.6719 6.70136 13.6719 6.33317H14.3385C13.6719 6.33317 13.6719 6.33284 13.6719 6.3325L13.6719 6.33177L13.6719 6.33018L13.6719 6.32643L13.672 6.31668C13.6721 6.3092 13.6724 6.29977 13.6727 6.2885C13.6735 6.26599 13.6749 6.23605 13.6775 6.19974C13.6826 6.12732 13.6927 6.02823 13.7122 5.91107C13.7507 5.67991 13.829 5.3615 13.9923 5.03503C14.1568 4.70594 14.4141 4.35658 14.8125 4.09097C15.2151 3.82258 15.7219 3.6665 16.3385 3.6665C16.7219 3.6665 16.9651 3.57258 17.125 3.46597C17.2891 3.35658 17.4068 3.20594 17.4923 3.03503C17.579 2.8615 17.6257 2.67991 17.6497 2.53607C17.6614 2.46573 17.667 2.40857 17.6697 2.37161C17.671 2.35324 17.6715 2.34021 17.6718 2.33342L17.6719 2.32852C17.6744 1.96247 17.9719 1.6665 18.3385 1.6665ZM17.6719 2.32816V2.32816V2.32816Z" fill="#FE8034"/>
<path id="Vector (Stroke)_3" fill-rule="evenodd" clip-rule="evenodd" d="M4.66401 12.6618C4.92436 12.4015 5.34647 12.4015 5.60682 12.6618L9.34016 16.3951C9.6005 16.6555 9.6005 17.0776 9.34016 17.338C9.07981 17.5983 8.6577 17.5983 8.39735 17.338L4.66401 13.6046C4.40366 13.3443 4.40366 12.9222 4.66401 12.6618Z" fill="#FE8034"/>
<path id="Vector (Stroke)_4" fill-rule="evenodd" clip-rule="evenodd" d="M12.3385 1C12.7067 1 13.0052 1.29848 13.0052 1.66667V3.66667C13.0052 4.03486 12.7067 4.33333 12.3385 4.33333C11.9704 4.33333 11.6719 4.03486 11.6719 3.66667V1.66667C11.6719 1.29848 11.9704 1 12.3385 1Z" fill="#FE8034"/>
<path id="Vector (Stroke)_5" fill-rule="evenodd" clip-rule="evenodd" d="M17.8671 9.19526C18.1275 8.93491 18.5496 8.93491 18.8099 9.19526L20.1433 10.5286C20.4036 10.7889 20.4036 11.2111 20.1433 11.4714C19.8829 11.7318 19.4608 11.7318 19.2005 11.4714L17.8671 10.1381C17.6068 9.87772 17.6068 9.45561 17.8671 9.19526Z" fill="#FE8034"/>
<path id="Vector (Stroke)_6" fill-rule="evenodd" clip-rule="evenodd" d="M20.9712 6.12253C21.0876 6.47183 20.8988 6.84937 20.5495 6.96581L18.5495 7.63247C18.2002 7.74891 17.8227 7.56013 17.7063 7.21084C17.5898 6.86154 17.7786 6.48399 18.1279 6.36756L20.1279 5.7009C20.4772 5.58446 20.8547 5.77324 20.9712 6.12253Z" fill="#FE8034"/>
<path id="Vector (Stroke)_7" fill-rule="evenodd" clip-rule="evenodd" d="M6.26557 8.26191C6.52592 8.00156 6.94803 8.00156 7.20838 8.26191L13.7417 14.7952C14.0021 15.0556 14.0021 15.4777 13.7417 15.7381C13.4814 15.9984 13.0593 15.9984 12.7989 15.7381L6.26557 9.20472C6.00523 8.94437 6.00523 8.52226 6.26557 8.26191Z" fill="#FE8034"/>
</g>
</svg>
