<svg width="22" height="22" viewBox="0 0 22 22" fill="none" xmlns="http://www.w3.org/2000/svg">
<g id="Phosphor Icons / PencilSimpleLine">
<path id="Vector (Stroke)" fill-rule="evenodd" clip-rule="evenodd" d="M13.8184 2.71283C13.9815 2.64454 14.1565 2.60938 14.3333 2.60938C14.5101 2.60938 14.6852 2.64454 14.8483 2.71283C15.0104 2.78072 15.1575 2.88 15.2812 3.00495L18.995 6.71875C19.1199 6.84238 19.2192 6.98949 19.2871 7.15164C19.3554 7.31473 19.3906 7.48978 19.3906 7.66659C19.3906 7.84341 19.3554 8.01846 19.2871 8.18155C19.2192 8.34369 19.1199 8.49079 18.995 8.6144L8.80474 18.8047C8.67971 18.9297 8.51014 18.9999 8.33333 18.9999H4.33333C3.97971 18.9999 3.64057 18.8594 3.39052 18.6094C3.14048 18.3594 3 18.0202 3 17.6666V13.9426M13.8184 2.71283C13.6562 2.78073 13.5091 2.88003 13.3854 3.005L13.8184 2.71283ZM4.33333 13.9427V17.6666H8.05719L18.0572 7.66658L18.0536 7.66301L14.3333 3.94272L14.3298 3.94635L4.33333 13.9427Z" fill="#68DAB8"/>
<path id="Vector (Stroke)_2" fill-rule="evenodd" clip-rule="evenodd" d="M7.67188 18.3332C7.67188 17.965 7.97035 17.6665 8.33854 17.6665H18.3385C18.7067 17.6665 19.0052 17.965 19.0052 18.3332C19.0052 18.7014 18.7067 18.9998 18.3385 18.9998H8.33854C7.97035 18.9998 7.67188 18.7014 7.67188 18.3332Z" fill="#68DAB8"/>
<path id="Vector (Stroke)_3" fill-rule="evenodd" clip-rule="evenodd" d="M11.1953 5.19526C11.4556 4.93491 11.8777 4.93491 12.1381 5.19526L16.8047 9.86193C17.0651 10.1223 17.0651 10.5444 16.8047 10.8047C16.5444 11.0651 16.1223 11.0651 15.8619 10.8047L11.1953 6.13807C10.9349 5.87772 10.9349 5.45561 11.1953 5.19526Z" fill="#68DAB8"/>
</g>
</svg>
