<svg width="32" height="32" viewBox="0 0 32 32" fill="none" xmlns="http://www.w3.org/2000/svg">
<g id="Phosphor Icons / SidebarSimple">
<path id="Vector (Stroke)" fill-rule="evenodd" clip-rule="evenodd" d="M21 27C20.4477 27 20 26.5523 20 26L20 6C20 5.44772 20.4477 5 21 5C21.5523 5 22 5.44772 22 6L22 26C22 26.5523 21.5523 27 21 27Z" fill="#2D81E0"/>
<path id="Vector (Stroke)_2" fill-rule="evenodd" clip-rule="evenodd" d="M29 25C29 26.1046 28.1046 27 27 27L5 27C3.89543 27 3 26.1046 3 25L3 7C3 5.89543 3.89543 5 5 5L27 5C28.1046 5 29 5.89543 29 7L29 25ZM5 25L27 25L27 7L5 7L5 25Z" fill="#2D81E0"/>
<g id="Group 518">
<path id="Vector (Stroke)_3" fill-rule="evenodd" clip-rule="evenodd" d="M13.8261 12.6757C14.0604 12.4414 14.4403 12.4414 14.6747 12.6757L17.8247 15.8257C18.059 16.0601 18.059 16.44 17.8247 16.6743L14.6747 19.8243C14.4403 20.0586 14.0604 20.0586 13.8261 19.8243C13.5918 19.59 13.5918 19.2101 13.8261 18.9757L16.5519 16.25L13.8261 13.5243C13.5918 13.2899 13.5918 12.9101 13.8261 12.6757Z" fill="#2D81E0"/>
<path id="Vector (Stroke)_4" fill-rule="evenodd" clip-rule="evenodd" d="M8.40039 16.25C8.40039 15.9187 8.66902 15.65 9.00039 15.65L17.4004 15.65C17.7318 15.65 18.0004 15.9187 18.0004 16.25C18.0004 16.5814 17.7318 16.85 17.4004 16.85L9.00039 16.85C8.66902 16.85 8.40039 16.5814 8.40039 16.25Z" fill="#2D81E0"/>
</g>
</g>
</svg>
