<svg width="48" height="48" viewBox="0 0 48 48" fill="none" xmlns="http://www.w3.org/2000/svg">
<circle cx="24" cy="24" r="24" fill="#EAF6FF"/>
<path fill-rule="evenodd" clip-rule="evenodd" d="M29.7558 15.1729C28.01 14.8257 26.2004 15.0039 24.5559 15.6851C22.9113 16.3663 21.5057 17.5198 20.5168 18.9999C19.5278 20.4799 19 22.22 19 24C19 24.5523 18.5523 25 18 25C17.4477 25 17 24.5523 17 24C17 22.9848 17.1405 21.9802 17.4131 21.0136C17.2758 21.0045 17.1382 21 17.0004 21H17C15.4087 21 13.8826 21.6321 12.7574 22.7574C11.6321 23.8826 11 25.4087 11 27C11 28.5913 11.6321 30.1174 12.7574 31.2426C13.8826 32.3679 15.4087 33 17 33H28C29.78 33 31.5201 32.4722 33.0001 31.4832C34.4802 30.4943 35.6337 29.0887 36.3149 27.4442C36.9961 25.7996 37.1743 23.99 36.8271 22.2442C36.4798 20.4984 35.6226 18.8947 34.364 17.636C33.1053 16.3774 31.5016 15.5202 29.7558 15.1729ZM18.1605 19.0823C18.3656 18.6718 18.597 18.2731 18.8538 17.8887C20.0625 16.0798 21.7805 14.6699 23.7905 13.8373C25.8005 13.0048 28.0122 12.7869 30.146 13.2114C32.2798 13.6358 34.2398 14.6835 35.7782 16.2218C37.3166 17.7602 38.3642 19.7202 38.7886 21.854C39.2131 23.9878 38.9952 26.1995 38.1627 28.2095C37.3301 30.2195 35.9202 31.9375 34.1113 33.1462C32.3023 34.3549 30.1756 35 28 35H17C14.8783 35 12.8434 34.1571 11.3431 32.6569C9.84285 31.1566 9 29.1217 9 27C9 24.8783 9.84285 22.8434 11.3431 21.3432C12.8433 19.8429 14.878 19.0001 16.9996 19M18.1605 19.0823C17.7764 19.0274 17.3886 18.9999 17 19L18.1605 19.0823Z" fill="#2D81E0"/>
</svg>
