<svg width="68" height="68" viewBox="0 0 68 68" fill="none" xmlns="http://www.w3.org/2000/svg">
<g filter="url(#filter0_d_7568_39115)">
<rect x="8" y="6" width="52" height="52" rx="12" fill="white"/>
<rect x="9" y="7" width="50" height="50" rx="11" stroke="#D9D9D9" stroke-width="2"/>
<path fill-rule="evenodd" clip-rule="evenodd" d="M20.668 24C20.668 23.2636 21.2649 22.6667 22.0013 22.6667H46.0013C46.7377 22.6667 47.3346 23.2636 47.3346 24C47.3346 24.7364 46.7377 25.3334 46.0013 25.3334H22.0013C21.2649 25.3334 20.668 24.7364 20.668 24Z" fill="black"/>
<path fill-rule="evenodd" clip-rule="evenodd" d="M31.332 20C30.9784 20 30.6393 20.1405 30.3892 20.3905C30.1392 20.6406 29.9987 20.9797 29.9987 21.3333V22.6666H37.9987V21.3333C37.9987 20.9797 37.8582 20.6406 37.6082 20.3905C37.3581 20.1405 37.019 20 36.6654 20H31.332ZM40.6654 22.6666V21.3333C40.6654 20.2724 40.2439 19.255 39.4938 18.5049C38.7436 17.7547 37.7262 17.3333 36.6654 17.3333H31.332C30.2712 17.3333 29.2537 17.7547 28.5036 18.5049C27.7535 19.255 27.332 20.2724 27.332 21.3333V22.6666H24.6654C23.929 22.6666 23.332 23.2636 23.332 24V42.6666C23.332 43.7275 23.7535 44.7449 24.5036 45.4951C25.2537 46.2452 26.2712 46.6666 27.332 46.6666H40.6654C41.7262 46.6666 42.7436 46.2452 43.4938 45.4951C44.2439 44.7449 44.6654 43.7275 44.6654 42.6666V24C44.6654 23.2636 44.0684 22.6666 43.332 22.6666H40.6654ZM25.9987 25.3333V42.6666C25.9987 43.0203 26.1392 43.3594 26.3892 43.6095C26.6393 43.8595 26.9784 44 27.332 44H40.6654C41.019 44 41.3581 43.8595 41.6082 43.6095C41.8582 43.3594 41.9987 43.0203 41.9987 42.6666V25.3333H25.9987Z" fill="black"/>
<path fill-rule="evenodd" clip-rule="evenodd" d="M31.3333 29.3333C32.0697 29.3333 32.6667 29.9303 32.6667 30.6666V38.6666C32.6667 39.403 32.0697 40 31.3333 40C30.597 40 30 39.403 30 38.6666V30.6666C30 29.9303 30.597 29.3333 31.3333 29.3333Z" fill="black"/>
<path fill-rule="evenodd" clip-rule="evenodd" d="M36.6654 29.3333C37.4017 29.3333 37.9987 29.9303 37.9987 30.6666V38.6666C37.9987 39.403 37.4017 40 36.6654 40C35.929 40 35.332 39.403 35.332 38.6666V30.6666C35.332 29.9303 35.929 29.3333 36.6654 29.3333Z" fill="black"/>
</g>
<defs>
<filter id="filter0_d_7568_39115" x="0" y="0" width="68" height="68" filterUnits="userSpaceOnUse" color-interpolation-filters="sRGB">
<feFlood flood-opacity="0" result="BackgroundImageFix"/>
<feColorMatrix in="SourceAlpha" type="matrix" values="0 0 0 0 0 0 0 0 0 0 0 0 0 0 0 0 0 0 127 0" result="hardAlpha"/>
<feOffset dy="2"/>
<feGaussianBlur stdDeviation="4"/>
<feComposite in2="hardAlpha" operator="out"/>
<feColorMatrix type="matrix" values="0 0 0 0 0 0 0 0 0 0 0 0 0 0 0 0 0 0 0.05 0"/>
<feBlend mode="normal" in2="BackgroundImageFix" result="effect1_dropShadow_7568_39115"/>
<feBlend mode="normal" in="SourceGraphic" in2="effect1_dropShadow_7568_39115" result="shape"/>
</filter>
</defs>
</svg>
