<svg width="48" height="48" viewBox="0 0 48 48" fill="none" xmlns="http://www.w3.org/2000/svg">
<circle cx="24" cy="24" r="24" fill="#FDECF4"/>
<path fill-rule="evenodd" clip-rule="evenodd" d="M20.5851 14.6454C19.4628 14.0478 18.1681 13.8575 16.9214 14.1068C15.6746 14.3562 14.5527 15.0298 13.7466 16.0131C12.9405 16.9964 12.5 18.2285 12.5 19.5C12.5 23.2897 15.322 26.9069 18.419 29.6942C19.9372 31.0606 21.46 32.1728 22.6054 32.944C23.1771 33.3289 23.6524 33.6273 23.9828 33.8284C23.9886 33.8319 23.9943 33.8354 24 33.8389C24.0057 33.8354 24.0114 33.8319 24.0172 33.8284C24.3476 33.6273 24.8229 33.3289 25.3946 32.944C26.54 32.1728 28.0628 31.0606 29.581 29.6942C32.678 26.9069 35.5 23.2897 35.5 19.5C35.5 18.2285 35.0595 16.9964 34.2534 16.0131C33.4473 15.0298 32.3254 14.3562 31.0786 14.1068C29.8319 13.8575 28.5372 14.0478 27.4149 14.6454C26.2927 15.243 25.4121 16.211 24.9231 17.3846C24.7107 17.8944 24.1252 18.1355 23.6154 17.9231C23.3612 17.8172 23.1738 17.6185 23.0761 17.3827C22.5869 16.2099 21.7067 15.2427 20.5851 14.6454ZM24 15C23.3448 14.1265 22.5021 13.4003 21.5251 12.8801C19.9947 12.0651 18.2293 11.8056 16.5291 12.1457C14.829 12.4857 13.2992 13.4043 12.1999 14.7451C11.1007 16.0859 10.5 17.7662 10.5 19.5C10.5 24.2103 13.928 28.3431 17.081 31.1808C18.6878 32.6269 20.29 33.796 21.4884 34.6029C22.0885 35.007 22.5898 35.3219 22.943 35.5369C23.1197 35.6444 23.2594 35.727 23.3562 35.7834C23.4046 35.8115 23.4422 35.8332 23.4683 35.8481L23.4988 35.8654L23.5073 35.8702L23.5099 35.8717L23.5108 35.8722C23.5111 35.8724 23.5114 35.8725 24 35L23.5114 35.8725C23.815 36.0425 24.185 36.0425 24.4886 35.8725L24 35C24.4886 35.8725 24.4889 35.8724 24.4892 35.8722L24.4901 35.8717L24.4927 35.8702L24.5012 35.8654L24.5317 35.8481C24.5578 35.8332 24.5954 35.8115 24.6438 35.7834C24.7406 35.727 24.8803 35.6444 25.057 35.5369C25.4102 35.3219 25.9115 35.007 26.5116 34.6029C27.71 33.796 29.3122 32.6269 30.919 31.1808C34.072 28.3431 37.5 24.2103 37.5 19.5C37.5 17.7662 36.8993 16.0859 35.8001 14.7451C34.7008 13.4043 33.171 12.4857 31.4709 12.1457C29.7707 11.8056 28.0053 12.0651 26.4749 12.8801C25.4979 13.4003 24.6552 14.1265 24 15Z" fill="#FF4682"/>
</svg>
