<svg width="61" height="20" viewBox="0 0 61 20" fill="none" xmlns="http://www.w3.org/2000/svg">
<g id="Group 458">
<path id="Vector" d="M10.1702 6.63979C10.8423 7.01614 11.2724 7.71506 11.2724 8.44087C11.2724 9.40861 10.5735 10.2151 9.71325 10.2151C9.36379 10.2151 9.25626 10.1882 8.28852 9.81184C7.724 9.59678 7.2939 9.51614 6.86379 9.51614C5.17025 9.51614 3.95609 10.9409 3.95609 12.9301C3.95609 14.9194 5.16577 16.3172 6.97132 16.3172C7.45519 16.3172 7.99283 16.1828 8.53046 15.9409C9.2025 15.6183 9.31003 15.5914 9.65949 15.5914C10.5735 15.5914 11.2993 16.371 11.2993 17.3925C11.2993 17.9301 11.0036 18.4946 10.5466 18.8441C9.60573 19.543 8.07347 20 6.5905 20C4.65501 20 3.03763 19.3011 1.80107 17.957C0.537633 16.586 0 15.0806 0 12.8763C0 10.672 0.725805 8.84409 2.04301 7.6613C3.30645 6.50539 5.08512 5.83334 6.75179 5.83334C7.96146 5.83334 9.25178 6.12904 10.1658 6.63979H10.1702Z" fill="#2C2C2C"/>
<path id="Vector_2" d="M16.8422 17.2805C16.8422 18.2213 16.8154 18.4633 16.5734 18.9203C16.2777 19.5117 15.5788 19.9149 14.8799 19.9149C14.1809 19.9149 13.4551 19.5117 13.1594 18.9203C12.9175 18.4633 12.8906 18.2482 12.8906 17.2805V2.62995C12.8906 1.68909 12.9175 1.44715 13.1594 1.01704C13.4551 0.425647 14.1541 0.0224228 14.8799 0.0224228C15.6057 0.0224228 16.2777 0.425648 16.5734 0.990164C16.8154 1.44715 16.8422 1.66221 16.8422 2.62995V17.2805Z" fill="#2C2C2C"/>
<path id="Vector_3" d="M29.8868 7.98388C31.0427 9.24732 31.661 10.9946 31.661 12.9301C31.661 16.9624 28.8384 20 25.0705 20C23.2425 20 21.437 19.1936 20.2273 17.8495C19.0445 16.5591 18.4531 14.8656 18.4531 12.8226C18.4531 8.89786 21.3295 5.83334 25.0705 5.83334C26.8716 5.83334 28.6771 6.63979 29.8868 7.98388ZM22.351 12.8719C22.351 14.8611 23.48 16.3127 24.9854 16.3127C26.4908 16.3127 27.7542 14.8074 27.7542 12.8988C27.7542 10.9901 26.5445 9.51166 24.9854 9.51166C23.5069 9.51166 22.351 10.9902 22.351 12.8719Z" fill="#2C2C2C"/>
<path id="Vector_4" d="M45.5678 14.4041C45.5678 15.802 45.2721 16.8235 44.6001 17.6568C43.471 19.1084 41.5087 19.9955 39.4343 19.9955C37.3599 19.9955 35.3976 19.1084 34.2685 17.6568C33.5965 16.8235 33.3008 15.802 33.3008 14.4041V8.54391C33.3008 7.60305 33.3277 7.36111 33.5696 6.90412C33.8653 6.31272 34.5642 5.9095 35.29 5.9095C36.0158 5.9095 36.6879 6.31272 36.9836 6.90412C37.2255 7.36111 37.2524 7.57616 37.2524 8.54391V13.9202C37.2524 14.7536 37.4137 15.1568 37.8707 15.6138C38.3008 16.017 38.8384 16.2321 39.4298 16.2321C40.0212 16.2321 40.5588 16.017 40.9889 15.6138C41.4459 15.1568 41.6072 14.7536 41.6072 13.9202V8.54391C41.6072 7.60305 41.6341 7.36111 41.876 6.90412C42.1717 6.31272 42.8707 5.9095 43.5965 5.9095C44.3223 5.9095 44.9943 6.31272 45.29 6.90412C45.532 7.36111 45.5588 7.57616 45.5588 8.54391V14.4041H45.5678Z" fill="#2C2C2C"/>
<path id="Vector_5" d="M56.5175 2.63441C56.5175 1.69355 56.5444 1.45161 56.7863 0.994623C57.082 0.403226 57.781 0 58.5068 0C59.2326 0 59.9046 0.403226 60.2003 0.994623C60.4422 1.45161 60.4691 1.66667 60.4691 2.63441V17.6613C60.4691 19.086 59.7433 19.9193 58.4799 19.9193C57.5121 19.9193 56.9745 19.4892 56.5713 18.3602C55.7379 19.5161 54.6896 20 53.1573 20C51.3562 20 49.7657 19.1129 48.6367 17.5269C47.6958 16.1559 47.1582 14.4624 47.1582 12.8226C47.1582 10.7258 48.1259 8.54838 49.5776 7.28494C50.5991 6.39785 52.0776 5.83333 53.3186 5.83333C54.5596 5.83333 55.4422 6.18279 56.5175 7.06989V2.63441ZM51.1098 12.6882C51.1098 14.6774 52.2657 16.129 53.8517 16.129C55.4378 16.129 56.5399 14.6505 56.5399 12.715C56.5399 10.7796 55.384 9.32795 53.8517 9.32795C52.3195 9.32795 51.1098 10.7796 51.1098 12.6882Z" fill="#2C2C2C"/>
</g>
</svg>
