<svg width="40" height="32" viewBox="0 0 40 32" fill="none" xmlns="http://www.w3.org/2000/svg">
<g id="Group 459">
<path id="Vector" d="M22.3086 24.865L22.3097 24.8632C23.3656 25.2572 23.7391 26.5781 23.0251 27.4533L23.025 27.4535C21.2113 29.6686 18.3266 31.3907 14.4591 31.4479L14.4573 31.4479L14.457 31.4479H14.4567H14.4563H14.456H14.4557H14.4554H14.4551H14.4548H14.4545H14.4542H14.4539H14.4535H14.4532H14.4529H14.4526H14.4523H14.452H14.4517H14.4514H14.4511H14.4507H14.4504H14.4501H14.4498H14.4495H14.4492H14.4489H14.4486H14.4483H14.4479H14.4476H14.4473H14.447H14.4467H14.4464H14.4461H14.4458H14.4455H14.4451H14.4448H14.4445H14.4442H14.4439H14.4436H14.4433H14.443H14.4427H14.4423H14.442H14.4417H14.4414H14.4411H14.4408H14.4405H14.4402H14.4399H14.4395H14.4392H14.4389H14.4386H14.4383H14.438H14.4377H14.4374H14.437H14.4367H14.4364H14.4361H14.4358H14.4355H14.4352H14.4349H14.4346H14.4342H14.4339H14.4336H14.4333H14.433H14.4327H14.4324H14.4321H14.4318H14.4314H14.4311H14.4308H14.4305H14.4302H14.4299H14.4296H14.4293H14.429H14.4286H14.4283H14.428H14.4277H14.4274H14.4271H14.4268H14.4265H14.4262H14.4258H14.4255H14.4252H14.4249H14.4246H14.4243H14.424H14.4237H14.4234H14.423H14.4227H14.4224H14.4221H14.4218H14.4215H14.4212H14.4209H14.4206H14.4202H14.4199H14.4196H14.4193H14.419H14.4187H14.4184H14.4181H14.4178H14.4174H14.4171H14.4168H14.4165H14.4162H14.4159H14.4156H14.4153H14.4149H14.4146H14.4143H14.414H14.4137H14.4134H14.4131H14.4128H14.4125H14.4121H14.4118H14.4115H14.4112H14.4109H14.4106H14.4103H14.41H14.4097H14.4093H14.409H14.4087H14.4084H14.4081H14.4078H14.4075H14.4072H14.4069H14.4065H14.4062H14.4059H14.4056H14.4053H14.405H14.4047H14.4044H14.4041H14.4037H14.4034H14.4031H14.4028H14.4025H14.4022H14.4019H14.4016H14.4013H14.4009H14.4006H14.4003H14.4H14.3997H14.3994H14.3991H14.3988H14.3985H14.3981H14.3978H14.3975H14.3972H14.3969H14.3966H14.3963H14.396H14.3957H14.3953H14.395H14.3947H14.3944H14.3941H14.3938H14.3935H14.3932H14.3928H14.3925H14.3922H14.3919H14.3916H14.3913H14.391H14.3907H14.3904H14.39H14.3897H14.3894H14.3891H14.3888H14.3885H14.3882H14.3879H14.3876H14.3872H14.3869H14.3866H14.3863H14.386H14.3857H14.3854H14.3851H14.3848H14.3844H14.3841H14.3838H14.3835H14.3832H14.3829H14.3826H14.3823H14.382H14.3816H14.3813H14.381H14.3807H14.3804H14.3801H14.3798H14.3795H14.3792H14.3788H14.3785H14.3782H14.3779H14.3776H14.3773H14.377H14.3767H14.3764H14.376H14.3757H14.3754H14.3751H14.3748H14.3745H14.3742H14.3739H14.3736H14.3732H14.3729H14.3726H14.3723H14.372H14.3717H14.3714H14.3711H14.3707H14.3704H14.3701H14.3698H14.3695H14.3692H14.3689H14.3686H14.3683H14.3679H14.3676H14.3673H14.367H14.3667H14.3664H14.3661H14.3658H14.3655H14.3651H14.3648H14.3645H14.3642H14.3639H14.3636H14.3633H14.363H14.3627H14.3623H14.362H14.3617H14.3614H14.3611H14.3608H14.3605H14.3602H14.3599H14.3595H14.3592H14.3589H14.3586H14.3583H14.358H14.3577H14.3574H14.3571H14.3567H14.3564H14.3561H14.3558H14.3555H14.3552H14.3549H14.3546H14.3543H14.3539H14.3536H14.3533H14.353H14.3527H14.3524H14.3521H14.3518H14.3515H14.3511H14.3508H14.3505H14.3502H14.3499H14.3496H14.3493H14.349H14.3486H14.3483H14.348H14.3477H14.3474H14.3471H14.3468H14.3465H14.3462H14.3458H14.3455H14.3452H14.3449H14.3446H14.3443H14.344H14.3437H14.3434H14.343H14.3427H14.3424H14.3421H14.3418H14.3415H14.3412H14.3409H14.3406H14.3402H14.3399H14.3396H14.3393H14.339H14.3387H14.3384H14.3381H14.3378H14.3374H14.3371H14.3368H14.3365H14.3362H14.3359H14.3356H14.3353H14.335H14.3346H14.3343H14.334H14.3337H14.3334H14.3331H14.3328H14.3325H14.3322H14.3318H14.3315H14.3312H14.3309H14.3306H14.3303H14.33H14.3297H14.3294H14.329H14.3287H14.3284H14.3281H14.3278H14.3275H14.3272H14.3269H14.3265H14.3262H14.3259H14.3256H14.3253H14.325H14.3247H14.3244H14.3241H14.3237H14.3234H14.3231H14.3228H14.3225H14.3222H14.3219H14.3216H14.3213H14.3209H14.3206H14.3203H14.32H14.3197H14.3194H14.3191H14.3188H14.3185H14.3181H14.3178H14.3175H14.3172H14.3169H14.3166H14.3163H14.316H14.3157H14.3153H14.315H14.3147H14.3144H14.3141H14.3138H14.3135H14.3132H14.3129H14.3125H14.3122H14.3119H14.3116H14.3113H14.311H14.3107H14.3104H14.3101H14.3097H14.3094H14.3091H14.3088H14.3085H14.3082H14.3079H14.3076H14.3073H14.3069H14.3066H14.3063H14.306H14.3057H14.3054H14.3051H14.3048H14.3045H14.3041H14.3038H14.3035H14.3032H14.3029H14.3026H14.3023H14.302H14.3016H14.3013H14.301H14.3007H14.3004H14.3001H14.2998H14.2995H14.2992H14.2988H14.2985H14.2982H14.2979C11.5914 31.4479 9.03728 30.4636 7.27259 28.724L7.27254 28.724C5.91435 27.3835 5.13347 25.6876 5.07393 23.9267C2.62071 23.0714 0.875 20.7375 0.875 18.0179C0.875 15.4481 2.45292 13.1705 4.76284 12.2202C5.41521 9.87409 7.49735 8.16826 9.93846 8.16826C12.5804 8.16826 14.7768 10.1583 15.2346 12.764C15.2646 12.8781 15.2828 13.0013 15.2936 13.1553C15.3151 13.3593 15.3295 13.565 15.3295 13.7789V13.9039H15.3047V17.8479C15.3047 18.1614 15.3352 18.3819 15.4027 18.5631C15.4692 18.7417 15.5751 18.8914 15.7412 19.0578C16.0475 19.3436 16.4308 19.4972 16.8513 19.4972C17.2717 19.4972 17.6551 19.3436 17.9613 19.0578C18.1273 18.8916 18.2332 18.7411 18.2998 18.5618C18.3673 18.3801 18.3978 18.1596 18.3978 17.8479V13.7151V13.7095C18.3978 13.4698 18.3978 13.2822 18.412 13.1285V11.261C18.412 10.7009 18.5739 10.2251 18.8687 9.88746C19.1648 9.54824 19.5869 9.35817 20.0846 9.35817C20.4441 9.35817 20.7511 9.44001 21.0079 9.62963C21.2252 9.79016 21.3976 10.0213 21.5369 10.3242C21.9385 9.96875 22.3172 9.71709 22.73 9.55173C23.1877 9.36835 23.6791 9.29443 24.2775 9.29443C25.3552 9.29443 26.274 9.61074 27.0042 10.2345L27.0066 10.2366L27.0065 10.2366C27.4198 10.608 27.7068 10.9904 27.8885 11.4699C28.0691 11.9468 28.1423 12.5109 28.1423 13.2406V18.2198V18.2205V18.2212V18.222V18.2227V18.2234V18.2241V18.2249V18.2256V18.2263V18.227V18.2277V18.2285V18.2292V18.2299V18.2306V18.2313V18.2321V18.2328V18.2335V18.2342V18.2349V18.2356V18.2364V18.2371V18.2378V18.2385V18.2392V18.2399V18.2406V18.2414V18.2421V18.2428V18.2435V18.2442V18.2449V18.2456V18.2463V18.247V18.2477V18.2485V18.2492V18.2499V18.2506V18.2513V18.252V18.2527V18.2534V18.2541V18.2548V18.2555V18.2562V18.2569V18.2576V18.2583V18.259V18.2597V18.2604V18.2611V18.2618V18.2625V18.2632V18.2639V18.2646V18.2653V18.266V18.2667V18.2674V18.2681V18.2688V18.2695V18.2702V18.2709V18.2715V18.2722V18.2729V18.2736V18.2743V18.275V18.2757V18.2764V18.2771V18.2778V18.2784V18.2791V18.2798V18.2805V18.2812V18.2819V18.2826V18.2833V18.2839V18.2846V18.2853V18.286V18.2867V18.2874V18.288V18.2887V18.2894V18.2901V18.2908V18.2914V18.2921V18.2928V18.2935V18.2942V18.2948V18.2955V18.2962V18.2969V18.2975V18.2982V18.2989V18.2996V18.3002V18.3009V18.3016V18.3023V18.3029V18.3036V18.3043V18.305V18.3056V18.3063V18.307V18.3076V18.3083V18.309V18.3097V18.3103V18.311V18.3117V18.3123V18.313V18.3137V18.3143V18.315V18.3157V18.3163V18.317V18.3176V18.3183V18.319V18.3196V18.3203V18.321V18.3216V18.3223V18.3229V18.3236V18.3243V18.3249V18.3256V18.3262V18.3269V18.3276V18.3282V18.3289V18.3295V18.3302V18.3308V18.3315V18.3322V18.3328V18.3335V18.3341V18.3348V18.3354V18.3361V18.3367V18.3374V18.338V18.3387V18.3393V18.34V18.3406V18.3413V18.3419V18.3426V18.3432V18.3439V18.3445V18.3452V18.3458V18.3465V18.3471V18.3478V18.3484V18.3491V18.3497V18.3504V18.351V18.3517V18.3523V18.3529V18.3536V18.3542V18.3549V18.3555V18.3562V18.3568V18.3574V18.3581V18.3587V18.3594V18.36V18.3606V18.3613V18.3619V18.3626V18.3632V18.3638V18.3645V18.3651V18.3657V18.3664V18.367V18.3676V18.3683V18.3689V18.3695V18.3702V18.3708V18.3715V18.3721V18.3727V18.3733V18.374V18.3746V18.3752V18.3759V18.3765V18.3771V18.3778V18.3784V18.379V18.3797V18.3803V18.3809V18.3815V18.3822V18.3828V18.3834V18.384V18.3847V18.3853V18.3859V18.3865V18.3872V18.3878V18.3884V18.389V18.3897V18.3903V18.3909V18.3915V18.3922V18.3928V18.3934V18.394V18.3946V18.3953V18.3959V18.3965V18.3971V18.3977V18.3984V18.399V18.3996V18.4002V18.4008V18.4015V18.4021V18.4027V18.4033V18.4039V18.4045V18.4052V18.4058V18.4064V18.407V18.4076V18.4082V18.4088V18.4095V18.4101V18.4107V18.4113V18.4119V18.4125V18.4131V18.4137V18.4144V18.415V18.4156V18.4162V18.4168V18.417H28.1812V18.542C28.1812 19.7984 29.1066 20.8004 30.2236 20.8004C31.2806 20.8004 32.181 19.8886 32.2555 18.6972L32.3299 17.5072L32.3359 17.4113L32.4301 17.3925L33.5987 17.1588C35.2251 16.8328 36.3187 15.1655 35.8124 13.4495L35.8124 13.4494C35.4642 12.2662 34.3486 11.4646 33.1063 11.3928L22.3086 24.865ZM22.3086 24.865C21.6414 24.618 20.9017 24.8346 20.4456 25.378L20.4454 25.3782C19.193 26.8777 17.1659 28.0643 14.413 28.1028C12.5282 28.1236 10.7811 27.4845 9.62246 26.3432C9.06726 25.7949 8.41673 24.8973 8.41673 23.7019C8.41673 23.4634 8.44399 23.2182 8.50183 22.9766L8.502 22.9759L8.91988 21.184L8.95365 21.0392L8.80519 21.0308L7.04881 20.9316L22.3086 24.865ZM31.3497 11.2937L33.1061 11.3928L7.04866 20.9316C5.80629 20.8599 4.69077 20.0583 4.34257 18.8751L4.34257 18.875C3.83619 17.1554 4.92989 15.4881 6.55616 15.1622C6.55618 15.1622 6.5562 15.1622 6.55621 15.1622L7.72482 14.9285L7.81906 14.9096L7.82506 14.8137L7.89944 13.6238C7.9739 12.4324 8.87436 11.5205 9.93137 11.5205C11.0481 11.5205 11.9737 12.5258 11.9737 13.7824V13.9074H12.0127V18.2233C12.0127 19.3181 12.2436 20.1315 12.7834 20.8012C13.6781 21.9509 15.2253 22.644 16.8477 22.644C18.47 22.644 20.0169 21.9511 20.9118 20.8016C21.2603 20.3755 21.48 19.8846 21.5902 19.2975C21.6843 19.036 21.6969 18.7728 21.6969 18.2269V13.8462C21.6969 12.9 22.3904 12.1757 23.286 12.1757C23.7694 12.1757 24.157 12.3491 24.4252 12.6523C24.6948 12.9572 24.8538 13.4051 24.8538 13.9701V18.2269V18.2276V18.2283V18.229V18.2298V18.2305V18.2312V18.2319V18.2327V18.2334V18.2341V18.2348V18.2355V18.2363V18.237V18.2377V18.2384V18.2391V18.2399V18.2406V18.2413V18.242V18.2427V18.2434V18.2442V18.2449V18.2456V18.2463V18.247V18.2477V18.2484V18.2491V18.2499V18.2506V18.2513V18.252V18.2527V18.2534V18.2541V18.2548V18.2555V18.2562V18.2569V18.2577V18.2584V18.2591V18.2598V18.2605V18.2612V18.2619V18.2626V18.2633V18.264V18.2647V18.2654V18.2661V18.2668V18.2675V18.2682V18.2689V18.2696V18.2703V18.271V18.2717V18.2724V18.2731V18.2738V18.2745V18.2752V18.2759V18.2765V18.2772V18.2779V18.2786V18.2793V18.28V18.2807V18.2814V18.2821V18.2828V18.2835V18.2842V18.2848V18.2855V18.2862V18.2869V18.2876V18.2883V18.289V18.2896V18.2903V18.291V18.2917V18.2924V18.2931V18.2938V18.2944V18.2951V18.2958V18.2965V18.2972V18.2978V18.2985V18.2992V18.2999V18.3006V18.3012V18.3019V18.3026V18.3033V18.304V18.3046V18.3053V18.306V18.3067V18.3073V18.308V18.3087V18.3094V18.31V18.3107V18.3114V18.312V18.3127V18.3134V18.3141V18.3147V18.3154V18.3161V18.3167V18.3174V18.3181V18.3187V18.3194V18.3201V18.3207V18.3214V18.3221V18.3227V18.3234V18.3241V18.3247V18.3254V18.3261V18.3267V18.3274V18.328V18.3287V18.3294V18.33V18.3307V18.3313V18.332V18.3327V18.3333V18.334V18.3346V18.3353V18.336V18.3366V18.3373V18.3379V18.3386V18.3392V18.3399V18.3406V18.3412V18.3419V18.3425V18.3432V18.3438V18.3445V18.3451V18.3458V18.3464V18.3471V18.3477V18.3484V18.349V18.3497V18.3503V18.351V18.3516V18.3523V18.3529V18.3536V18.3542V18.3549V18.3555V18.3562V18.3568V18.3574V18.3581V18.3587V18.3594V18.36V18.3607V18.3613V18.3619V18.3626V18.3632V18.3639V18.3645V18.3652V18.3658V18.3664V18.3671V18.3677V18.3684V18.369V18.3696V18.3703V18.3709V18.3715V18.3722V18.3728V18.3735V18.3741V18.3747V18.3754V18.376V18.3766V18.3773V18.3779V18.3785V18.3792V18.3798V18.3804V18.3811V18.3817V18.3823V18.383V18.3836V18.3842V18.3848V18.3855V18.3861V18.3867V18.3874V18.388V18.3886V18.3892V18.3899V18.3905V18.3911V18.3918V18.3924V18.393V18.3936V18.3943V18.3949V18.3955V18.3961V18.3968V18.3974V18.398V18.3986V18.3992V18.3999V18.4005V18.4011V18.4017V18.4024V18.403V18.4036V18.4042V18.4048V18.4055V18.4061V18.4067V18.4073V18.4079V18.4085V18.4092V18.4098V18.4104V18.411V18.4116V18.4122V18.4129V18.4135V18.4141V18.4147V18.4153V18.4159V18.4165V18.4172V18.4178V18.4184V18.419V18.4196V18.4202V18.4208V18.4214V18.422V18.4227V18.4233V18.4239V18.4241H24.8254V18.5491C24.8254 21.6342 27.2388 24.1562 30.2165 24.1562C32.6575 24.1562 34.7397 22.4504 35.3921 20.1044C37.7021 19.1575 39.2799 16.8798 39.2799 14.3101C39.2799 11.5906 37.5343 9.25312 35.081 8.39777C35.0215 6.63689 34.2406 4.941 32.8824 3.60049L32.8824 3.60045C31.082 1.8252 28.4669 0.830057 25.6922 0.87656C21.6672 0.933853 18.7073 2.79915 16.9116 5.13956C16.3109 5.92005 16.5094 7.04602 17.3446 7.5671L17.3451 7.56738C18.0777 8.02001 19.0194 7.83075 19.5423 7.15518C20.7808 5.55835 22.8635 4.26363 25.742 4.22171L25.7422 4.2217C27.6191 4.19031 29.3734 4.83952 30.5324 5.98115C31.0876 6.52943 31.7382 7.42713 31.7382 8.62262C31.7382 8.86109 31.711 9.10628 31.6531 9.34783L31.653 9.34855L31.2351 11.1405L31.2013 11.2853L31.3497 11.2937Z" fill="#0075FB" stroke="#2D81E0" stroke-width="0.25"/>
</g>
</svg>
