<?xml version="1.0" encoding="UTF-8"?><svg id="Layer_2" xmlns="http://www.w3.org/2000/svg" xmlns:xlink="http://www.w3.org/1999/xlink" viewBox="0 0 150 150"><defs><style>.cls-1{fill:url(#linear-gradient);}.cls-1,.cls-2{stroke-width:0px;}.cls-2{fill:#fff;}</style><linearGradient id="linear-gradient" x1="74.69" y1="10.61" x2="75.52" y2="146.14" gradientUnits="userSpaceOnUse"><stop offset="0" stop-color="#a0d1f9"/><stop offset="1" stop-color="#2d7ff9"/></linearGradient></defs><rect class="cls-1" x="7.33" y="8.37" width="135.54" height="135.54" rx="24.76" ry="24.76"/><path class="cls-2" d="M82.22,102.05c2.76,1.03,3.73,4.48,1.87,6.76-5.06,6.18-13.11,10.99-23.92,11.15-.15,0-.3,0-.45,0-7.56,0-14.68-2.75-19.59-7.59-3.84-3.79-6.01-8.59-6.11-13.55-6.91-2.3-11.85-8.82-11.85-16.43,0-7.17,4.44-13.52,10.92-16.11,1.75-6.57,7.54-11.35,14.32-11.35,7.28,0,13.35,5.49,14.61,12.7.08.3.13.63.16,1.06.06.57.1,1.14.1,1.73h-.07v11.49c0,1.81.35,2.68,1.34,3.67.93.87,2.1,1.34,3.38,1.34s2.45-.47,3.38-1.34c.99-.99,1.34-1.87,1.34-3.67v-11.67c0-.7,0-1.22.04-1.64v-5.29c0-3.03,1.75-5.02,4.37-5.02,1.92,0,3.15.87,3.97,2.97,2.51-2.33,4.55-3.15,7.87-3.15,2.97,0,5.48.87,7.47,2.57,2.27,2.04,3.09,4.14,3.09,8.22v14.06c0,.35,0,.64,0,.91h.11c0,3.71,2.74,6.73,6.12,6.73,3.2,0,5.87-2.75,6.09-6.27l.21-3.36,3.3-.66c4.79-.96,8.01-5.87,6.52-10.92-1.03-3.5-4.32-5.85-7.96-6.06l-4.96-.28,1.18-5.06c.17-.71.25-1.43.25-2.13,0-3.51-1.91-6.13-3.51-7.71-3.35-3.3-8.4-5.16-13.78-5.07-8.24.12-14.22,3.83-17.78,8.42-1.37,1.77-3.83,2.26-5.74,1.08h0c-2.18-1.36-2.7-4.3-1.13-6.34,5.01-6.53,13.27-11.74,24.52-11.9,7.75-.13,15.04,2.65,20.05,7.59,3.84,3.79,6.01,8.59,6.11,13.55,6.91,2.3,11.85,8.83,11.85,16.44,0,7.17-4.44,13.52-10.92,16.1-1.75,6.57-7.54,11.35-14.32,11.35-8.2,0-14.87-6.95-14.87-15.48h.08c0-.27,0-.56,0-.91v-12.02c0-3.32-1.87-5.42-4.78-5.42-2.74,0-4.84,2.22-4.84,5.07v12.37c0,1.57-.04,2.25-.29,2.93-.3,1.62-.9,2.96-1.85,4.12-2.45,3.15-6.71,5.07-11.2,5.07s-8.75-1.92-11.2-5.07c-1.46-1.81-2.1-4.02-2.1-7.06v-12.54h-.11c0-3.71-2.74-6.74-6.12-6.74-3.2,0-5.87,2.75-6.09,6.27l-.21,3.36-3.3.66c-4.79.96-8.01,5.87-6.52,10.93,1.03,3.5,4.32,5.85,7.96,6.06l4.96.28-1.18,5.06c-.17.71-.25,1.43-.25,2.13,0,3.51,1.91,6.13,3.51,7.71,3.35,3.3,8.38,5.13,13.78,5.07,7.88-.11,13.7-3.51,17.3-7.82,1.2-1.43,3.14-1.99,4.88-1.34h0Z"/></svg>