<?xml version="1.0" encoding="UTF-8"?><svg id="Layer_2" xmlns="http://www.w3.org/2000/svg" xmlns:xlink="http://www.w3.org/1999/xlink" viewBox="0 0 150 150"><defs><style>.cls-1{fill:#fff;stroke-width:3px;}.cls-1,.cls-2,.cls-3{stroke:#2c2c2c;stroke-miterlimit:10;}.cls-2{fill:#ffe773;}.cls-2,.cls-3{stroke-width:2px;}.cls-4,.cls-5,.cls-6,.cls-7{stroke-width:0px;}.cls-4,.cls-3{fill:#2c2c2c;}.cls-8{opacity:.97;}.cls-5{fill:#2c2c2c;}.cls-6{fill:url(#radial-gradient-2);}.cls-7{fill:url(#radial-gradient);}</style><radialGradient id="radial-gradient" cx="51.04" cy="98.58" fx="51.04" fy="98.58" r="4.53" gradientUnits="userSpaceOnUse"><stop offset="0" stop-color="#fcc"/><stop offset=".32" stop-color="#ffd8d8"/><stop offset=".89" stop-color="#fff7f7"/><stop offset="1" stop-color="#fff"/></radialGradient><radialGradient id="radial-gradient-2" cx="98.22" cy="98.77" fx="98.22" fy="98.77" r="4.33" xlink:href="#radial-gradient"/></defs><g id="Layer_16"><g class="cls-8"><path class="cls-1" d="M23.45,94c.33-.2.46-.6.28-.94-1.43-2.75-6.44-14.57,7.46-24.03,9.42-6.41,18.22-2.91,21.53-1.13.52.28,1.14-.15,1.04-.74-.67-3.99-1.06-14.38,12.51-16.72,14.1-2.43,17.47,6.97,18.21,10.14.11.47.64.71,1.05.46,3.21-1.92,14.71-7.7,23.96,1.46,8.88,8.8,6.05,17.94,4.73,20.97-.21.48.14,1,.65,1,4.39-.04,19.56,1.19,17.93,20.05-.44,5.07-2.98,8.96-5.07,11.26-1.39,1.53-3.36,2.4-5.43,2.4H27.32c-4.66,0-9.56-4.22-10.09-8.84-.43-3.76-.5-11.31,6.22-15.33Z"/></g><circle class="cls-7" cx="51.04" cy="98.58" r="4.53"/><circle class="cls-6" cx="98.22" cy="98.77" r="4.33"/><circle class="cls-4" cx="57.4" cy="92.04" r="2.49"/><circle class="cls-5" cx="92.22" cy="91.97" r="2.49"/><path class="cls-3" d="M74.92,99.51c-2.32-.02-4.26-1.48-4.42-3.38-.01-.15-.16-.26-.33-.27-.21,0-.38.14-.36.32.2,2.21,2.41,3.95,5.11,3.96h-.01c2.7,0,4.91-1.75,5.11-3.96.02-.18-.15-.32-.36-.32-.18,0-.32.12-.33.27-.16,1.89-2.1,3.36-4.42,3.38"/><path class="cls-2" d="M96.33,48.49l4.64-16.35c.11-.4.67-.43.83-.05l3.9,9.21c.1.24.38.34.61.22l12.57-6.57c.33-.17.72.12.63.49l-2.53,10.8c-.08.32.22.61.54.52l11.34-3.04c.44-.12.75.43.42.74l-13.77,13.08c-.13.12-.32.16-.49.08l-18.44-8.6c-.2-.09-.3-.31-.24-.52Z"/></g></svg>