<?xml version="1.0" encoding="UTF-8"?><svg id="Layer_2" xmlns="http://www.w3.org/2000/svg" xmlns:xlink="http://www.w3.org/1999/xlink" viewBox="0 0 400 150"><defs><style>.cls-1{fill:url(#linear-gradient);}.cls-1,.cls-2{stroke-width:0px;}.cls-2{fill:#2c2c2c;}</style><linearGradient id="linear-gradient" x1="50.84" y1="78.35" x2="177.2" y2="78.35" gradientUnits="userSpaceOnUse"><stop offset="0" stop-color="#a0d1f9"/><stop offset="1" stop-color="#2d7ff9"/></linearGradient></defs><path class="cls-2" d="M213.72,64.46c1.75.98,2.87,2.8,2.87,4.69,0,2.52-1.82,4.62-4.06,4.62-.91,0-1.19-.07-3.71-1.05-1.47-.56-2.59-.77-3.71-.77-4.41,0-7.56,3.71-7.56,8.89s3.15,8.82,7.84,8.82c1.26,0,2.66-.35,4.06-.98,1.75-.84,2.03-.91,2.94-.91,2.38,0,4.27,2.03,4.27,4.69,0,1.4-.77,2.87-1.96,3.78-2.45,1.82-6.44,3.01-10.29,3.01-5.04,0-9.24-1.82-12.46-5.32-3.29-3.57-4.69-7.49-4.69-13.23s1.89-10.5,5.32-13.58c3.29-3.01,7.91-4.76,12.25-4.76,3.15,0,6.51.77,8.89,2.1Z"/><path class="cls-2" d="M231.08,92.18c0,2.45-.07,3.08-.7,4.27-.77,1.54-2.59,2.59-4.41,2.59s-3.71-1.05-4.48-2.59c-.63-1.19-.7-1.75-.7-4.27v-38.15c0-2.45.07-3.08.7-4.2.77-1.54,2.59-2.59,4.48-2.59s3.64,1.05,4.41,2.52c.63,1.19.7,1.75.7,4.27v38.15Z"/><path class="cls-2" d="M265.03,67.96c3.01,3.29,4.62,7.84,4.62,12.88,0,10.5-7.35,18.41-17.15,18.41-4.76,0-9.45-2.1-12.6-5.6-3.08-3.36-4.62-7.77-4.62-13.09,0-10.22,7.49-18.2,17.22-18.2,4.69,0,9.38,2.1,12.53,5.6ZM245.42,80.7c0,5.18,2.94,8.96,6.86,8.96s7.21-3.92,7.21-8.89-3.15-8.82-7.21-8.82c-3.85,0-6.86,3.85-6.86,8.75Z"/><path class="cls-2" d="M305.84,84.69c0,3.64-.77,6.3-2.52,8.47-2.94,3.78-8.05,6.09-13.44,6.09s-10.5-2.31-13.44-6.09c-1.75-2.17-2.52-4.83-2.52-8.47v-15.26c0-2.45.07-3.08.7-4.27.77-1.54,2.59-2.59,4.48-2.59s3.64,1.05,4.41,2.59c.63,1.19.7,1.75.7,4.27v14c0,2.17.42,3.22,1.61,4.41,1.12,1.05,2.52,1.61,4.06,1.61s2.94-.56,4.06-1.61c1.19-1.19,1.61-2.24,1.61-4.41v-14c0-2.45.07-3.08.7-4.27.77-1.54,2.59-2.59,4.48-2.59s3.64,1.05,4.41,2.59c.63,1.19.7,1.75.7,4.27v15.26Z"/><path class="cls-2" d="M334.32,54.02c0-2.45.07-3.08.7-4.27.77-1.54,2.59-2.59,4.48-2.59s3.64,1.05,4.41,2.59c.63,1.19.7,1.75.7,4.27v39.13c0,3.71-1.89,5.88-5.18,5.88-2.52,0-3.92-1.12-4.97-4.06-2.17,3.01-4.9,4.27-8.89,4.27-4.69,0-8.82-2.31-11.76-6.44-2.45-3.57-3.85-7.98-3.85-12.25,0-5.46,2.52-11.13,6.3-14.42,2.66-2.31,6.51-3.78,9.73-3.78s5.53.91,8.33,3.22v-11.55ZM320.25,80.21c0,5.18,3.01,8.96,7.14,8.96s7-3.85,7-8.89-3.01-8.82-7-8.82-7.14,3.78-7.14,8.75Z"/><path class="cls-1" d="M121.28,107.58c3.23,1.21,4.38,5.25,2.19,7.92-5.93,7.24-15.37,12.89-28.06,13.07-.18,0-.35,0-.53,0-8.87,0-17.22-3.23-22.98-8.91-4.51-4.44-7.04-10.07-7.17-15.9-8.11-2.7-13.9-10.35-13.9-19.27,0-8.41,5.21-15.86,12.8-18.89,2.05-7.7,8.85-13.31,16.79-13.31,8.54,0,15.65,6.43,17.14,14.89.1.35.15.74.18,1.24.07.67.12,1.34.12,2.03h-.08v13.48c0,2.12.41,3.15,1.57,4.31,1.09,1.03,2.46,1.57,3.97,1.57s2.87-.55,3.97-1.57c1.16-1.16,1.57-2.19,1.57-4.31v-13.68c0-.82,0-1.44.05-1.93v-6.2c0-3.56,2.05-5.88,5.13-5.88,2.26,0,3.69,1.03,4.65,3.49,2.94-2.74,5.34-3.69,9.23-3.69,3.49,0,6.43,1.03,8.76,3.01,2.67,2.39,3.63,4.86,3.63,9.64v16.48c0,.41,0,.75,0,1.06h.13c0,4.36,3.22,7.9,7.18,7.9,3.75,0,6.89-3.23,7.14-7.36l.24-3.94,3.87-.77c5.62-1.13,9.39-6.89,7.65-12.81-1.21-4.1-5.06-6.87-9.33-7.11l-5.82-.33,1.38-5.94c.2-.84.3-1.68.3-2.5,0-4.12-2.24-7.19-4.12-9.04-3.93-3.87-9.86-6.05-16.16-5.95-9.66.14-16.68,4.49-20.85,9.87-1.61,2.08-4.5,2.65-6.73,1.27h0c-2.56-1.59-3.16-5.04-1.33-7.44,5.88-7.66,15.56-13.77,28.76-13.96,9.09-.15,17.63,3.11,23.51,8.9,4.51,4.44,7.04,10.07,7.17,15.9,8.11,2.7,13.9,10.35,13.9,19.27,0,8.41-5.21,15.86-12.8,18.89-2.05,7.7-8.85,13.31-16.79,13.31-9.61,0-17.44-8.15-17.44-18.16h.1c0-.31,0-.65,0-1.06v-14.09c0-3.9-2.19-6.36-5.61-6.36-3.21,0-5.68,2.6-5.68,5.95v14.5c0,1.85-.05,2.63-.34,3.43-.35,1.9-1.06,3.47-2.17,4.83-2.87,3.69-7.87,5.95-13.13,5.95s-10.26-2.26-13.13-5.95c-1.71-2.12-2.46-4.72-2.46-8.28v-14.71h-.13c0-4.36-3.22-7.9-7.18-7.9-3.75,0-6.89,3.23-7.14,7.36l-.24,3.94-3.87.77c-5.62,1.13-9.39,6.89-7.65,12.81,1.21,4.1,5.06,6.86,9.33,7.11l5.82.33-1.38,5.94c-.2.84-.3,1.68-.3,2.5,0,4.12,2.24,7.19,4.12,9.04,3.93,3.87,9.83,6.01,16.16,5.95,9.24-.13,16.06-4.11,20.29-9.17,1.4-1.68,3.68-2.34,5.73-1.57h0Z"/></svg>