<?xml version="1.0" encoding="UTF-8"?><svg id="Layer_2" xmlns="http://www.w3.org/2000/svg" xmlns:xlink="http://www.w3.org/1999/xlink" viewBox="0 0 150 150"><defs><style>.cls-1,.cls-2,.cls-3,.cls-4,.cls-5,.cls-6{stroke-width:0px;}.cls-1,.cls-7{fill:#2c2c2c;}.cls-2{fill:#ffe773;}.cls-3{fill:#2c2c2c;}.cls-4{fill:url(#radial-gradient-2);}.cls-7{stroke:#2c2c2c;stroke-miterlimit:10;stroke-width:2px;}.cls-5{fill:url(#radial-gradient);}.cls-6{fill:#fe8034;}</style><radialGradient id="radial-gradient" cx="52.22" cy="87.85" fx="52.22" fy="87.85" r="4.53" gradientUnits="userSpaceOnUse"><stop offset="0" stop-color="#fe8034"/><stop offset=".18" stop-color="#fe8c3b"/><stop offset=".51" stop-color="#feac4e"/><stop offset=".94" stop-color="#fedf6e"/><stop offset="1" stop-color="#ffe773"/></radialGradient><radialGradient id="radial-gradient-2" cx="99.39" cy="88.03" fx="99.39" fy="88.03" r="4.33" gradientUnits="userSpaceOnUse"><stop offset="0" stop-color="#fe8034"/><stop offset=".18" stop-color="#fe8c3b"/><stop offset=".51" stop-color="#feac4e"/><stop offset=".94" stop-color="#fedf6e"/><stop offset="1" stop-color="#ffe773"/></radialGradient></defs><path class="cls-2" d="M25,84.55s-8.7-13.84,7.14-24.62c11.96-8.14,22.91-.3,22.91-.3,0,0-4.72-15.38,12.16-18.29s18.39,11.16,18.39,11.16c0,0,13.97-9.85,24.82.9,10.85,10.75,4.22,22.01,4.22,22.01,0,0,21-2.01,19.09,20-.44,5.07-2.98,8.96-5.07,11.26-1.39,1.53-3.36,2.4-5.43,2.4H28.26c-4.66,0-9.56-4.22-10.09-8.84-.44-3.87-.5-11.76,6.83-15.68Z"/><circle class="cls-5" cx="52.22" cy="87.85" r="4.53"/><circle class="cls-4" cx="99.39" cy="88.03" r="4.33"/><circle class="cls-1" cx="58.58" cy="81.31" r="2.49"/><circle class="cls-3" cx="93.4" cy="81.24" r="2.49"/><path class="cls-7" d="M76.09,88.95c-2.32-.02-4.26-1.56-4.42-3.54-.01-.15-.16-.27-.33-.28-.21,0-.38.15-.36.33.2,2.32,2.41,4.14,5.11,4.15h-.01c2.7,0,4.91-1.83,5.11-4.15.02-.18-.15-.34-.36-.33-.18,0-.32.13-.33.28-.16,1.99-2.1,3.52-4.42,3.54"/><circle class="cls-6" cx="41.31" cy="52.76" r="16.93"/><g id="_Radial_Repeat_"><ellipse class="cls-6" cx="32.66" cy="73.29" rx="3.14" ry="1.52" transform="translate(-46.87 83.91) rotate(-73.59)"/></g><g id="_Radial_Repeat_-2"><ellipse class="cls-6" cx="44.17" cy="74.85" rx="1.52" ry="3.14" transform="translate(-16.58 12.69) rotate(-13.8)"/></g><g id="_Radial_Repeat_-3"><ellipse class="cls-6" cx="54.9" cy="70.41" rx="1.52" ry="3.14" transform="translate(-33.51 57.91) rotate(-44.01)"/></g><g id="_Radial_Repeat_-4"><ellipse class="cls-6" cx="61.94" cy="61.18" rx="1.52" ry="3.14" transform="translate(-13.78 104.14) rotate(-74.22)"/></g><g id="_Radial_Repeat_-5"><ellipse class="cls-6" cx="63.37" cy="49.65" rx="3.14" ry="1.52" transform="translate(-10.37 17.35) rotate(-14.43)"/></g><g id="_Radial_Repeat_-6"><ellipse class="cls-6" cx="58.82" cy="38.97" rx="3.14" ry="1.52" transform="translate(-10.42 52.56) rotate(-44.64)"/></g><g id="_Radial_Repeat_-7"><ellipse class="cls-6" cx="49.5" cy="32.03" rx="3.14" ry="1.52" transform="translate(5.64 71.44) rotate(-74.85)"/></g><g id="_Radial_Repeat_-8"><ellipse class="cls-6" cx="37.96" cy="30.72" rx="1.52" ry="3.14" transform="translate(-6.68 10.92) rotate(-15.06)"/></g><g id="_Radial_Repeat_-9"><ellipse class="cls-6" cx="27.33" cy="35.4" rx="1.52" ry="3.14" transform="translate(-17.05 29.9) rotate(-45.27)"/></g><g id="_Radial_Repeat_-10"><ellipse class="cls-6" cx="20.5" cy="44.79" rx="1.52" ry="3.14" transform="translate(-28 53.4) rotate(-75.47)"/></g><g id="_Radial_Repeat_-11"><ellipse class="cls-6" cx="19.32" cy="56.34" rx="3.14" ry="1.52" transform="translate(-14.51 7.32) rotate(-15.68)"/></g><g id="_Radial_Repeat_-12"><ellipse class="cls-6" cx="24.11" cy="66.92" rx="3.14" ry="1.52" transform="translate(-40.72 37.66) rotate(-45.89)"/></g></svg>