<svg width="64" height="64" viewBox="0 0 64 64" fill="none" xmlns="http://www.w3.org/2000/svg">
<path d="M52.3087 0H11.6913C5.23435 0 0 5.23438 0 11.6913V52.3087C0 58.7656 5.23435 64 11.6913 64H52.3087C58.7656 64 64 58.7656 64 52.3087V11.6913C64 5.23438 58.7656 0 52.3087 0Z" fill="url(#paint0_linear_6270_7136)"/>
<path d="M35.3664 44.2342C36.6697 44.7206 37.1277 46.3496 36.2494 47.4262C33.8602 50.3443 30.0591 52.6155 24.9548 52.6911C24.8839 52.6911 24.8131 52.6911 24.7423 52.6911C21.1726 52.6911 17.8106 51.3926 15.4922 49.1072C13.679 47.3176 12.6543 45.0511 12.6071 42.7091C9.3443 41.623 7.01172 38.5444 7.01172 34.9511C7.01172 31.5655 9.10821 28.5671 12.168 27.3442C12.9943 24.2419 15.7283 21.9849 18.9297 21.9849C22.3672 21.9849 25.2333 24.5772 25.8283 27.9816C25.8661 28.1233 25.8897 28.2791 25.9039 28.4821C25.9322 28.7513 25.9511 29.0204 25.9511 29.299H25.918V34.7244C25.918 35.5791 26.0833 35.9899 26.5507 36.4573C26.9899 36.8681 27.5423 37.0901 28.1467 37.0901C28.7511 37.0901 29.3036 36.8681 29.7427 36.4573C30.2102 35.9899 30.3754 35.5744 30.3754 34.7244V29.214C30.3754 28.8835 30.3755 28.638 30.3943 28.4396V25.9418C30.3943 24.511 31.2207 23.5714 32.4578 23.5714C33.3644 23.5714 33.9452 23.9822 34.3324 24.9738C35.5175 23.8736 36.4808 23.4864 38.0485 23.4864C39.4508 23.4864 40.636 23.8972 41.5757 24.6999C42.6475 25.6632 43.0347 26.6548 43.0347 28.5813V35.2202C43.0347 35.3855 43.0347 35.5224 43.0347 35.6499H43.0867C43.0867 37.4017 44.3805 38.8277 45.9765 38.8277C47.4875 38.8277 48.7482 37.5292 48.8521 35.8671L48.9512 34.2806L50.5094 33.9689C52.7712 33.5156 54.2916 31.1972 53.5881 28.8127C53.1017 27.16 51.5482 26.0504 49.8295 25.9512L47.4874 25.819L48.0446 23.4297C48.1249 23.0945 48.1627 22.7545 48.1627 22.424C48.1627 20.7666 47.2608 19.5295 46.5053 18.7834C44.9235 17.2252 42.5389 16.347 39.9986 16.3895C36.1078 16.4461 33.2841 18.1979 31.6031 20.3653C30.9562 21.201 29.7947 21.4324 28.8928 20.8752C27.8634 20.233 27.6179 18.8448 28.3592 17.8816C30.7249 14.7982 34.6251 12.3381 39.9372 12.2626C43.5966 12.2012 47.0389 13.5138 49.4045 15.8464C51.2177 17.636 52.2424 19.9025 52.2896 22.2446C55.5524 23.3306 57.885 26.414 57.885 30.0073C57.885 33.3929 55.7885 36.3912 52.7287 37.6095C51.9024 40.7117 49.1684 42.9688 45.967 42.9688C42.0951 42.9688 38.9456 39.6871 38.9456 35.6593H38.9834C38.9834 35.5319 38.9834 35.3949 38.9834 35.2297V29.554C38.9834 27.9863 38.1004 26.9947 36.7263 26.9947C35.4325 26.9947 34.441 28.043 34.441 29.3887V35.2297C34.441 35.971 34.4221 36.2921 34.304 36.6132C34.1624 37.3781 33.8791 38.0108 33.4305 38.5586C32.2736 40.0459 30.2621 40.9525 28.142 40.9525C26.0219 40.9525 24.0104 40.0459 22.8535 38.5586C22.1641 37.7039 21.862 36.6604 21.862 35.2249V29.3037H21.81C21.81 27.5519 20.5162 26.1212 18.9202 26.1212C17.4092 26.1212 16.1485 27.4197 16.0446 29.0818L15.9455 30.6683L14.3873 30.98C12.1255 31.4333 10.605 33.7517 11.3086 36.141C11.7949 37.7936 13.3484 38.9033 15.0672 39.0024L17.4092 39.1346L16.8521 41.5239C16.7718 41.8591 16.734 42.1991 16.734 42.5296C16.734 44.187 17.6359 45.4241 18.3914 46.1702C19.9732 47.7284 22.3483 48.5925 24.8981 48.5642C28.6189 48.5122 31.367 46.9068 33.0669 44.8717C33.6335 44.1965 34.5496 43.932 35.3712 44.2389L35.3664 44.2342Z" fill="white"/>
<defs>
<linearGradient id="paint0_linear_6270_7136" x1="31.8111" y1="1.0577" x2="32.203" y2="65.053" gradientUnits="userSpaceOnUse">
<stop stop-color="#A0D1F9"/>
<stop offset="1" stop-color="#2D7FF9"/>
</linearGradient>
</defs>
</svg>
