<?xml version="1.0" encoding="UTF-8"?><svg id="Layer_4" xmlns="http://www.w3.org/2000/svg" xmlns:xlink="http://www.w3.org/1999/xlink" viewBox="0 0 150 150"><defs><style>.cls-1{fill:#fff;}.cls-1,.cls-2,.cls-3,.cls-4{stroke:#2c2c2c;stroke-miterlimit:10;}.cls-1,.cls-2,.cls-4{stroke-width:3px;}.cls-2,.cls-3{fill:none;}.cls-5{fill:#2c2c2c;}.cls-5,.cls-6,.cls-7,.cls-8{stroke-width:0px;}.cls-9{opacity:.97;}.cls-6{fill:#2c2c2c;}.cls-7{fill:url(#radial-gradient-2);}.cls-8{fill:url(#radial-gradient);}.cls-4{fill:#aa52bf;}</style><radialGradient id="radial-gradient" cx="52.18" cy="99.5" fx="52.18" fy="99.5" r="4.53" gradientUnits="userSpaceOnUse"><stop offset="0" stop-color="#fcc"/><stop offset=".32" stop-color="#ffd8d8"/><stop offset=".89" stop-color="#fff7f7"/><stop offset="1" stop-color="#fff"/></radialGradient><radialGradient id="radial-gradient-2" cx="99.36" cy="99.69" fx="99.36" fy="99.69" r="4.33" xlink:href="#radial-gradient"/></defs><g class="cls-9"><path class="cls-1" d="M25.45,95.94c.33-.2.46-.6.28-.94-1.43-2.75-6.44-14.57,7.46-24.03,9.42-6.41,18.22-2.91,21.53-1.13.52.28,1.14-.15,1.04-.74-.67-3.99-1.06-14.38,12.51-16.72,14.1-2.43,17.47,6.97,18.21,10.14.11.47.64.71,1.05.46,3.21-1.92,14.71-7.7,23.96,1.46,8.88,8.8,6.05,17.94,4.73,20.97-.21.48.14,1,.65,1,4.39-.04,19.56,1.19,17.93,20.05-.44,5.07-2.98,8.96-5.07,11.26-1.39,1.53-3.36,2.4-5.43,2.4H29.32c-4.66,0-9.56-4.22-10.09-8.84-.43-3.76-.5-11.31,6.22-15.33Z"/></g><circle class="cls-5" cx="59.4" cy="93.98" r="2.49"/><circle class="cls-6" cx="94.22" cy="93.91" r="2.49"/><circle class="cls-8" cx="52.18" cy="99.5" r="4.53"/><circle class="cls-7" cx="99.36" cy="99.69" r="4.33"/><path class="cls-3" d="M57.77,93.9s-1.97.19-2.16-3.05"/><path class="cls-3" d="M95.61,93.4s1.97.19,2.16-3.05"/><path class="cls-4" d="M81.77,40.22c-.1,0-.15-.12-.08-.2,3.58-4.32,5.39-8.04.61-9.92-4.27-1.68-7.07,6.76-8.02,10.21-.01.05-.06.08-.11.09-53.89,2.53-69.04,35.73-53.06,41.72,1.74.65,3.63.82,5.49.66l85.1-7.22c5.3-.45,9.87-3.93,11.67-8.93,8.7-24.06-29.29-26.29-41.58-26.39Z"/><ellipse class="cls-2" cx="77.22" cy="102.54" rx="2.95" ry="3.14"/></svg>