<?xml version="1.0" encoding="UTF-8"?><svg id="Layer_2" xmlns="http://www.w3.org/2000/svg" xmlns:xlink="http://www.w3.org/1999/xlink" viewBox="0 0 150 150"><defs><style>.cls-1{opacity:.97;}.cls-2{fill:#2c2c2c;stroke:#000;stroke-miterlimit:10;stroke-width:2px;}.cls-3{fill:url(#radial-gradient-2);}.cls-3,.cls-4,.cls-5{stroke-width:0px;}.cls-4{fill:url(#radial-gradient);}.cls-5{fill:#b1d5d5;}</style><radialGradient id="radial-gradient" cx="50.99" cy="87.93" fx="50.99" fy="87.93" r="4.53" gradientUnits="userSpaceOnUse"><stop offset="0" stop-color="#478486"/><stop offset=".18" stop-color="#538d8e"/><stop offset=".5" stop-color="#73a5a6"/><stop offset=".92" stop-color="#a6cdcd"/><stop offset="1" stop-color="#b1d5d5"/></radialGradient><radialGradient id="radial-gradient-2" cx="98.45" cy="87.67" fx="98.45" fy="87.67" r="4.33" xlink:href="#radial-gradient"/></defs><g class="cls-1"><path class="cls-5" d="M24.07,84.18s-8.7-13.84,7.14-24.62c11.96-8.14,22.91-.3,22.91-.3,0,0-4.72-15.38,12.16-18.29,16.88-2.91,18.39,11.16,18.39,11.16,0,0,13.97-9.85,24.82.9,10.85,10.75,4.22,22.01,4.22,22.01,0,0,21-2.01,19.09,20-.44,5.07-2.98,8.96-5.07,11.26-1.39,1.53-3.36,2.4-5.43,2.4H27.32c-4.66,0-9.56-4.22-10.09-8.84-.44-3.87-.5-11.76,6.83-15.68Z"/><circle class="cls-4" cx="50.99" cy="87.93" r="4.53"/><rect class="cls-2" x="90.25" y="80.46" width="7.22" height=".78" rx=".19" ry=".19"/><rect class="cls-2" x="52.93" y="80.94" width="7.22" height=".37" rx=".19" ry=".19"/><rect class="cls-2" x="68.78" y="86.19" width="12.44" height=".78" rx=".19" ry=".19"/><circle class="cls-3" cx="98.45" cy="87.67" r="4.33"/></g></svg>