<?xml version="1.0" encoding="UTF-8"?><svg id="Layer_2" xmlns="http://www.w3.org/2000/svg" xmlns:xlink="http://www.w3.org/1999/xlink" viewBox="0 0 150 150"><defs><style>.cls-1{stroke-width:3px;}.cls-1,.cls-2,.cls-3,.cls-4{stroke:#2c2c2c;stroke-miterlimit:10;}.cls-1,.cls-3{fill:#fff;}.cls-5,.cls-6,.cls-7,.cls-8{stroke-width:0px;}.cls-5,.cls-4{fill:#2c2c2c;}.cls-2{fill:none;}.cls-2,.cls-3,.cls-4{stroke-width:2px;}.cls-9{opacity:.97;}.cls-6{fill:#2c2c2c;}.cls-7{fill:url(#radial-gradient-2);}.cls-8{fill:url(#radial-gradient);}</style><radialGradient id="radial-gradient" cx="51.04" cy="89.47" fx="51.04" fy="89.47" r="4.53" gradientUnits="userSpaceOnUse"><stop offset="0" stop-color="#fcc"/><stop offset=".32" stop-color="#ffd8d8"/><stop offset=".89" stop-color="#fff7f7"/><stop offset="1" stop-color="#fff"/></radialGradient><radialGradient id="radial-gradient-2" cx="98.22" cy="89.65" fx="98.22" fy="89.65" r="4.33" gradientUnits="userSpaceOnUse"><stop offset="0" stop-color="#fcc"/><stop offset=".32" stop-color="#ffd8d8"/><stop offset=".89" stop-color="#fff7f7"/><stop offset="1" stop-color="#fff"/></radialGradient></defs><g class="cls-9"><path class="cls-1" d="M23.45,84.89c.33-.2.46-.6.28-.94-1.43-2.75-6.44-14.57,7.46-24.03,9.42-6.41,18.22-2.91,21.53-1.13.52.28,1.14-.15,1.04-.74-.67-3.99-1.06-14.38,12.51-16.72,14.1-2.43,17.47,6.97,18.21,10.14.11.47.64.71,1.05.46,3.21-1.92,14.71-7.7,23.96,1.46,8.88,8.8,6.05,17.94,4.73,20.97-.21.48.14,1,.65,1,4.39-.04,19.56,1.19,17.93,20.05-.44,5.07-2.98,8.96-5.07,11.26-1.39,1.53-3.36,2.4-5.43,2.4H27.32c-4.66,0-9.56-4.22-10.09-8.84-.43-3.76-.5-11.31,6.22-15.33Z"/></g><circle class="cls-8" cx="51.04" cy="89.47" r="4.53"/><circle class="cls-7" cx="98.22" cy="89.65" r="4.33"/><ellipse class="cls-2" cx="54.87" cy="83.01" rx="12.14" ry="11.72"/><ellipse class="cls-2" cx="95.48" cy="82.16" rx="12.14" ry="11.72"/><path class="cls-3" d="M66.48,82.85c8.68-6.29,15.04-1.71,16.57-.25"/><line class="cls-3" x1="107.37" y1="78.47" x2="114.36" y2="75.93"/><line class="cls-3" x1="42.61" y1="82.54" x2="21.94" y2="75.93"/><circle class="cls-5" cx="57.4" cy="82.93" r="2.49"/><circle class="cls-6" cx="92.22" cy="82.86" r="2.49"/><path class="cls-4" d="M74.92,90.4c-2.32-.02-4.26-1.48-4.42-3.38-.01-.15-.16-.26-.33-.27-.21,0-.38.14-.36.32.2,2.21,2.41,3.95,5.11,3.96h-.01c2.7,0,4.91-1.75,5.11-3.96.02-.18-.15-.32-.36-.32-.18,0-.32.12-.33.27-.16,1.89-2.1,3.36-4.42,3.38"/></svg>