<svg width="48" height="48" viewBox="0 0 48 48" fill="none" xmlns="http://www.w3.org/2000/svg">
<circle cx="24" cy="24" r="24" fill="#FFFAEB"/>
<path fill-rule="evenodd" clip-rule="evenodd" d="M28.2276 11.5692C28.4722 11.4668 28.7348 11.4141 29 11.4141C29.2652 11.4141 29.5278 11.4668 29.7724 11.5692C30.0156 11.6711 30.2363 11.82 30.4217 12.0074L35.9925 17.5781C36.1799 17.7636 36.3288 17.9842 36.4306 18.2275C36.5331 18.4721 36.5858 18.7347 36.5858 18.9999C36.5858 19.2651 36.5331 19.5277 36.4306 19.7723C36.3288 20.0155 36.1799 20.2362 35.9925 20.4216L20.7071 35.707C20.5196 35.8945 20.2652 35.9999 20 35.9999H14C13.4696 35.9999 12.9609 35.7892 12.5858 35.4141C12.2107 35.039 12 34.5303 12 33.9999V28.4138M28.2276 11.5692C27.9843 11.6711 27.7636 11.82 27.5782 12.0075L28.2276 11.5692ZM14 28.4141V33.9999H19.5858L34.5858 18.9999L34.5804 18.9945L29 13.4141L28.9946 13.4195L14 28.4141Z" fill="#FFE773"/>
<path fill-rule="evenodd" clip-rule="evenodd" d="M19 35C19 34.4477 19.4477 34 20 34H35C35.5523 34 36 34.4477 36 35C36 35.5523 35.5523 36 35 36H20C19.4477 36 19 35.5523 19 35Z" fill="#FFE773"/>
<path fill-rule="evenodd" clip-rule="evenodd" d="M24.2929 15.2929C24.6834 14.9024 25.3166 14.9024 25.7071 15.2929L32.7071 22.2929C33.0976 22.6834 33.0976 23.3166 32.7071 23.7071C32.3166 24.0976 31.6834 24.0976 31.2929 23.7071L24.2929 16.7071C23.9024 16.3166 23.9024 15.6834 24.2929 15.2929Z" fill="#FFE773"/>
</svg>
