<?xml version="1.0" encoding="UTF-8"?><svg id="Layer_2" xmlns="http://www.w3.org/2000/svg" viewBox="0 0 150 150"><defs><style>.cls-1,.cls-2,.cls-3,.cls-4{stroke:#2c2c2c;stroke-miterlimit:10;}.cls-1,.cls-3{stroke-width:3px;}.cls-1,.cls-4{fill:none;}.cls-5,.cls-6,.cls-7,.cls-8{stroke-width:0px;}.cls-5,.cls-2,.cls-3{fill:#2c2c2c;}.cls-9{opacity:.97;}.cls-6{fill:#fcc;}.cls-7{fill:#bebebe;}.cls-8{fill:#2c2c2c;}</style></defs><g id="Layer_6"><path class="cls-6" d="M66.79,68.14c10.37-.3,20.74-.29,31.11.06,4.88.16,9.78.32,14.64.73,4.16.35,8.6,1.1,11.98,3.74,1.2.94,3.48-.32,2.36-1.82-2.38-3.17-5.57-5.31-9.39-6.38-4.02-1.12-8.25-1.19-12.17-2.69v2.89c4.2-1.21,8.46.48,12.28,2.16,1.98.87,3.97,1.72,5.94,2.63.97.45,3.22,1.42,2.61,2.88-.26.64-.68.29-1.17-.02-.86-.54-1.63-1.08-2.59-1.46-1.87-.74-3.93-.96-5.9-1.31-4.63-.81-9.26-1.61-13.88-2.42-5.2-.91-10.39-1.81-15.59-2.72-1.89-.33-2.7,2.56-.8,2.89,10.88,1.9,21.81,3.61,32.66,5.7,1.05.2,2.13.43,3.08.93s1.8,1.33,2.89,1.64c1.96.55,3.72-.69,4.23-2.58,1.27-4.78-5.08-6.59-8.3-8.02-5.09-2.25-10.6-4.84-16.26-3.2-1.51.44-1.33,2.38,0,2.89,3.52,1.35,7.28,1.55,10.92,2.38s6.65,2.4,8.84,5.31l2.36-1.82c-5.72-4.48-13.16-4.63-20.11-4.98-8.38-.43-16.78-.64-25.18-.64-4.86,0-9.71.08-14.57.22-1.93.06-1.93,3.06,0,3h0Z"/><path class="cls-6" d="M77.65,65.93c1.93,0,1.93-3,0-3s-1.93,3,0,3h0Z"/><path class="cls-6" d="M54.22,67.65c3.95.11,7.9-.18,11.78-.88s7.45-1.94,11.42-1.26c1.89.33,2.7-2.57.8-2.89s-3.94-.44-5.93-.19-3.82.8-5.73,1.19c-4.06.83-8.19,1.15-12.34,1.03-1.93-.05-1.93,2.95,0,3h0Z"/><path class="cls-6" d="M84.29,60.14c-7.69,1.11-15.55,1.88-23.11,3.75-1.87.46-1.08,3.36.8,2.89,7.56-1.87,15.42-2.63,23.11-3.75.81-.12,1.24-1.13,1.05-1.85-.23-.86-1.05-1.16-1.85-1.05h0Z"/><path class="cls-6" d="M21.14,75.32c-1.77-.36-2.33-2.29-1.77-3.85.71-1.97,2.56-3.23,4.27-4.26s3.52-2.16,5.27-3.27,3.58-2.19,5.66-2.44c2.3-.28,4.59.42,6.83.8s4.51.53,6.78.45c4.8-.17,9.43-1.45,14.18-2.01,9.25-1.09,18.48.88,27.61,2.11,4.52.61,9.09,1.06,13.66.89s8.84-1.4,13.08.02c3.64,1.22,6.7,4.07,8.29,7.55.41.89.7,1.85.89,2.81.1.49.21.84-.12,1.21s-1.2.61-1.62.81c-2.49,1.17-4.97,2.34-7.46,3.51l1.82,2.36c.52-.47,2.75-2.27,3.18-.77l2.2-1.69c-.58-.34-1.55-.8-1.79-1.5-.28-.81.37-.7,1.01-.77,2.03-.2,4.06-.38,6.08-.56l-.76-2.8c-2.59,1.39-4.97,3.09-7.15,5.07-1.24,1.13.41,3.34,1.82,2.36,3.23-2.27,7.1-5.71,5.41-10.14l-2.51,1.46c.39.49.77.98,1.16,1.46l.66-2.51c-.73.29-1.41-.17-2.13-.35-.63-.16-1.3-.2-1.95-.07-1.37.28-2.18,1.2-2.33,2.56-.17,1.53,2.1,1.96,2.8.76.85-1.48.5-3.33-.74-4.5-1.4-1.32-3.42-1.39-5.23-1.53-4.33-.33-8.84-.34-13.08-1.33-2.04-.48-3.98-1.26-5.97-1.93s-4.03-1.09-6.12-1.31c-4.35-.45-8.78-.46-13.14-.64s-9.01-.48-13.52-.47-8.77.58-13.11,1.32-8.68,1.63-13.08,1.98c-4.17.33-8.61-.26-12.6,1.23-2.01.75-3.73,2.2-5.75,2.86-.58.19-1.59.48-1.75-.35-.19-.96,1.03-1.67,1.72-2.03,2.12-1.09,4.52-1.82,6.78-2.54,1.22-.39,2.44-.75,3.67-1.09.54-.15,1.08-.29,1.62-.42.2-.05.42-.07.61-.13.34-.11.38.2.18-.12l.54-2.05c-4.64,2.32-9.33,4.52-14.09,6.59-1.66.72-3.67,1.89-3.87,3.9-.09.91.26,1.76.93,2.38.3.28.65.49.99.69.22.13.62.37.63.39.35,1.63,3.11,1.3,2.95-.4-.19-2.05,2.18-2.58,3.75-2.76,2.14-.24,4.23-.45,6.32-1.01,4.17-1.12,8.08-3.06,11.94-4.97.76-.37.88-1.37.54-2.05-.74-1.47-2.27-1.97-3.82-2.07-.7-.04-3.19.43-3.46-.49l-1.45,1.9c7.77.3,15.5.86,23.28.87s15.75-.3,23.61-.91c1.93-.15,1.93-2.86,0-3-8.6-.64-17.22-.34-25.76.85-4.27.6-8.49,1.46-12.68,2.47s-8.43,2.06-12.7,1.31l.66,2.51c1.09-1.39,2.97-1.54,4.6-1.85,2.08-.4,4.16-.8,6.24-1.17,4.36-.79,8.73-1.52,13.13-2.04,8.68-1.02,17.52-1.26,26.14.34,1.89.35,2.7-2.54.8-2.89-9.23-1.71-18.62-1.48-27.91-.33-4.66.58-9.3,1.35-13.92,2.21-2.19.41-4.39.8-6.58,1.25-1.73.36-3.49.93-4.62,2.37-.62.79-.57,2.29.66,2.51,4.36.77,8.65.03,12.91-.97s8.38-1.95,12.65-2.6c8.72-1.32,17.59-1.6,26.39-.95v-3c-7.85.61-15.73.91-23.61.91s-15.51-.57-23.28-.87c-.96-.04-1.72.99-1.45,1.9.5,1.66,1.92,2.43,3.55,2.65,1.05.14,3.48-.46,4.03.63l.54-2.05c-4.43,2.2-8.95,4.42-13.87,5.25-2.23.38-4.59.22-6.66,1.25-1.79.89-3.16,2.77-2.96,4.83l2.95-.4c-.16-.73-.59-1.27-1.19-1.7-.26-.19-.54-.32-.82-.48-.2-.12-.48-.43-.47-.16-.02-.56,1.4-1.18,1.75-1.34.94-.44,1.9-.83,2.85-1.25,4.01-1.78,7.97-3.66,11.9-5.63.71-.36.94-1.4.54-2.05-.94-1.52-2.61-1.51-4.18-1.13-2.25.54-4.47,1.22-6.66,1.96s-4.35,1.42-6.32,2.49c-1.63.89-2.98,2.4-3.02,4.35-.04,1.75,1.12,3.29,2.84,3.65s3.37-.36,4.78-1.15c1.98-1.12,3.83-2.19,6.11-2.58s4.51-.27,6.75-.33c9.38-.27,18.43-3.28,27.82-3.43,4.75-.08,9.51.25,14.26.45s9.27.16,13.84.7c2.5.3,4.83,1.13,7.19,1.96s4.79,1.42,7.32,1.72,5.06.44,7.59.63c.72.05,6.9.14,5.99,1.71l2.8.76c-.07.6-.14.3.48.39.38.06.75.26,1.12.36.87.24,1.75.33,2.61,0,1.12-.44,1.4-1.58.66-2.51-.39-.49-.77-.98-1.16-1.46-.92-1.16-3.02.1-2.51,1.46,1.15,3.03-1.88,5.24-4.03,6.75l1.82,2.36c1.99-1.81,4.17-3.33,6.54-4.6,1.26-.67.75-2.93-.76-2.8-1.79.17-3.59.33-5.38.5-1.45.13-3.04.11-4.05,1.33-2.14,2.56.45,5.31,2.61,6.59,1.12.67,2.56-.44,2.2-1.69-.45-1.59-1.87-2.64-3.52-2.73-1.84-.1-3.37,1-4.67,2.17s.36,3.04,1.82,2.36c2.49-1.17,4.97-2.34,7.46-3.51.91-.43,1.9-.82,2.57-1.61.81-.94.83-2.11.64-3.28-.63-3.96-2.97-7.61-6.09-10.09-3.43-2.73-7.5-3.88-11.85-3.63-2.67.16-5.32.57-8,.64s-5.27-.07-7.89-.32c-10.41-.98-20.77-3.74-31.29-2.84-5.39.46-10.62,2.04-16.05,2.17-2.72.06-5.32-.32-7.99-.83-2.46-.47-4.93-.74-7.37-.01s-4.7,2.28-6.89,3.69-4.68,2.56-6.59,4.41c-1.71,1.65-2.98,3.99-2.68,6.42.28,2.26,1.86,4.32,4.15,4.79,1.89.38,2.69-2.51.8-2.89h0Z"/><path class="cls-6" d="M35.9,52.05c1.16-1.51,2.65-2.75,4.02-4.06s2.47-2.66,3.51-4.19c2.07-3.07,4.71-5.2,8.35-6.15,3.82-1,7.83-.42,11.48.95,3.35,1.26,6.59,4.22,10.34,4.06,1.85-.08,3.43-1,5.09-1.72,1.93-.83,3.92-1.52,5.95-2.08s3.89-.96,5.87-1.25,3.9-.58,5.67.6,3.21,2.67,4.74,4.01,3.11,2.72,4.65,4.1c.77.69,1.54,1.37,2.29,2.08.23.22.44.58.68.76,0,0,.34.65.19.01-.09-.37-.1-.26-.57-.3-2.12-.19-4.24-.38-6.37-.52-17.46-1.1-34.94.26-52.38,1.04-2.21.1-4.43.19-6.65.26-.98.03-1.97.06-2.95.09-.61.02-2.14.33-2.72-.03-.35-.22-.1-.4.07-.81.15-.37.3-.73.46-1.09.37-.85.77-1.68,1.2-2.5.8-1.49,1.72-2.92,2.91-4.14,5.67-5.79,14.25-2.99,20.73-.41,6.9,2.74,14.9,5.84,22.04,2.02,3.28-1.75,5.76-4.4,9.67-4.72,3.64-.3,6.74,1.28,8.74,4.32.95,1.44,1.68,3.01,2.41,4.58l1.3-2.26c-18.08,1.75-36.26.35-54.36,1.47-5.13.32-10.25.85-15.32,1.68l1.46,2.51c2.88-3.46,5.87-7.26,9.79-9.6,1.97-1.17,4-1.59,6.11-.53,1.94.97,3.66,2.29,5.64,3.19,3.99,1.81,8.27,2.67,12.61,3.12s9.15.89,13.49.08,8.45-4.06,8.3-8.75c-.03-.8-.67-1.51-1.5-1.5-4.78.08-9.3,2.95-11.23,7.35-.52,1.18.7,3.08,2.05,2.05,1.56-1.19,3.25-2.21,5.08-2.94,1.41-.56,3.81-1.67,5.21-.7,1.51,1.05,2.77,2.43,4.31,3.46,1.67,1.11,3.46,1.97,5.32,2.69.87.33,1.98-.53,1.9-1.45-.29-3.31-4.95-3.16-7.41-3.29-3.6-.19-7.21.18-10.72,1.01-1.61.38-1.3,3.17.4,2.95,2.78-.36,5.39-1.12,7.91-2.35,1.03-.51.92-2.05,0-2.59-1.73-1.02-3.68-1.02-5.45-.08l1.51,2.59c1.48-.93,2.73-2.19,3.5-3.77.04-.07.58-1.33.28-1.19.18-.08.69.54.82.68.64.67,1.2,1.43,1.79,2.15,2.23,2.74,4.56,5.35,7.99,6.54l.4-2.95c-8.69.9-17.4,1.8-26.14,1.99s-17.41-.54-26.1-1.26c-2.43-.2-4.86-.4-7.28-.6-2.24-.18-5.11.02-7.16-1v2.59c10.7-5.21,23.21-6.09,34.56-2.55v-2.89c-2.51.56-5.09.69-7.65.91-2.73.23-5.45.46-8.18.69-5.37.46-10.74.91-16.11,1.37l1.3,2.26c1.38-2.26,5.34-2.28,7.65-2.47,3.36-.28,6.73-.25,10.1-.21,1.27.01,2.01-1.67,1.06-2.56-2.53-2.38-6.41-3.5-9.8-3.88-1.85-.2-3.42.34-5,1.26-1.03.6-3.05,2.14-4.24,1.07l.23,1.82c.92-1.47,3.47-1.64,5-1.89,2.2-.36,4.47-.49,6.67-.1s4.21,1.11,6.35,1.49,4.17.56,6.27.55c8.5-.06,16.72-3.07,24.14-7.02.75-.4.89-1.35.54-2.05-.73-1.46-2.51-1.88-3.89-1.09-.92.52-1.04,2.1,0,2.59,5.56,2.64,10.86,5.81,15.79,9.5,1.19.89,2.35,1.81,3.49,2.76.56.47,1.12.94,1.67,1.43.39.35.49.77.69.14s-.31-.3-.82-.26c-3.44.25-6.89.42-10.33.59-13.6.67-27.25.88-40.83-.23-3.67-.3-7.49-.48-11.09-1.28s-4.92-3.52-6.34-6.49c-.83-1.74-3.42-.22-2.59,1.51,1.31,2.74,2.85,5.62,5.69,7.03,1.45.72,3.01.98,4.6,1.19,1.93.26,3.87.48,5.82.68,7.67.77,15.37,1.1,23.08,1.14s15.44-.22,23.15-.62c1.8-.09,3.61-.2,5.41-.3s3.82.1,5.44-.55c1.18-.47,1.98-1.62,1.59-2.93-.43-1.45-2.25-2.54-3.35-3.44-5.98-4.94-12.54-9.12-19.55-12.45v2.59c-.07-.02-.15-.01-.22.02l.54-2.05c-7.71,4.11-16.39,7.17-25.25,6.53-4.53-.33-8.77-2.3-13.34-2.19-2.22.06-4.5.4-6.65.94-1.73.44-3.3,1.22-4.27,2.77-.34.54-.25,1.39.23,1.82,1.28,1.15,2.88,1.4,4.54,1s2.87-1.51,4.37-2.17c1.71-.75,3.61-.07,5.32.38s3.47,1.06,4.82,2.32l1.06-2.56c-4-.04-8.02-.08-12.01.41-3.09.38-6.57.87-8.33,3.76-.56.91.15,2.35,1.3,2.26,5.53-.47,11.07-.94,16.6-1.41,2.73-.23,5.45-.46,8.18-.69s5.34-.39,7.95-.97c1.51-.34,1.34-2.47,0-2.89-12.14-3.79-25.45-2.71-36.87,2.85-.99.48-.97,2.11,0,2.59,1.89.94,3.94,1.02,6,1.19,2.19.18,4.37.36,6.56.54,4.49.37,8.98.76,13.48,1.07,9.02.62,18,.59,27.02-.1,5.05-.38,10.09-.91,15.13-1.43,1.66-.17,2.06-2.37.4-2.95-3.71-1.29-5.85-4.99-8.33-7.78-1.19-1.34-3.32-2.5-4.88-1.01-.74.7-.89,1.8-1.41,2.64s-1.23,1.52-2.07,2.04c-1.64,1.03-.19,3.5,1.51,2.59.82-.44,1.63-.39,2.42.08v-2.59c-2.01.98-4.17,1.66-6.39,1.94l.4,2.95c2.56-.6,5.16-.93,7.79-.95,1.26,0,2.52.05,3.78.17.65.06,1.3.14,1.94.26.15.03.53.17.68.15.37-.06.19.46.13-.24l1.9-1.45c-2.02-.77-3.93-1.83-5.66-3.12-1.59-1.19-2.94-3.05-5-3.42s-4.17.44-5.98,1.17c-2.01.81-3.87,1.85-5.6,3.16l2.05,2.05c1.52-3.46,4.83-5.8,8.64-5.87l-1.5-1.5c.14,4.39-4.83,5.94-8.38,6.09-4.21.18-8.6-.07-12.77-.71s-8.26-1.85-11.88-4.11c-1.68-1.05-3.37-2.18-5.37-2.48s-4.1.3-5.9,1.3c-4.34,2.42-7.64,6.53-10.76,10.28-.99,1.19-.04,2.75,1.46,2.51,17.73-2.89,35.75-1.75,53.62-2.17,5.1-.12,10.19-.38,15.26-.87,1.19-.11,1.8-1.17,1.3-2.26-1.63-3.51-3.52-7.24-7.12-9.08-3.36-1.73-7.45-1.71-10.92-.32-1.91.77-3.51,1.96-5.2,3.11-1.82,1.23-3.75,2.08-5.94,2.32-4.39.49-8.7-.95-12.74-2.52-7.33-2.86-16.18-6.72-23.69-2.08-3.3,2.04-5.47,5.41-7.04,8.87-.76,1.67-2.1,3.92-.83,5.65,1.12,1.54,3.19,1.4,4.88,1.35,19.43-.5,38.85-2.43,58.3-1.62,2.45.1,4.91.25,7.36.45,1.79.14,4.58,1.01,6.02-.47,1.35-1.39.42-3.38-.72-4.56-1.63-1.68-3.5-3.19-5.26-4.73s-3.47-3.03-5.21-4.53c-1.57-1.35-3.21-2.64-5.34-2.9s-4.47.24-6.57.64-4.36.98-6.47,1.69-4.15,1.69-6.23,2.54-3.8.1-5.63-.9c-3.93-2.13-7.89-3.86-12.42-4.17-3.93-.27-8.04.66-11.34,2.87-3.48,2.33-5.16,6.14-8.14,8.96-1.53,1.45-3.05,2.84-4.34,4.52-1.17,1.53,1.43,3.03,2.59,1.51h0Z"/><path class="cls-6" d="M23.51,78.8c2.71-5.76,7.42-9.98,13.69-11.39,1.8-.41,3.62-.29,5.46-.34,2.02-.06,4.04-.16,6.05-.28,3.98-.24,7.96-.59,11.94-.95,15.95-1.43,32.42-3.12,48.03,1.48,2.21.65,4.39,1.42,6.52,2.31,1.4.59,2.9,1.42,3.19,3.05.24,1.35-.2,2.79-.52,4.09-.39,1.62-.77,3.24-.82,4.92-.06,1.93,2.94,1.93,3,0,.1-2.93,1.57-5.73,1.38-8.68-.24-3.74-3.17-5.38-6.32-6.64-8.01-3.21-16.62-4.62-25.21-4.96s-17.27.36-25.86,1.13c-4.36.39-8.71.8-13.08,1.11-2.17.15-4.34.28-6.51.37-2.05.08-4.18-.07-6.21.17-7.7.93-14.08,6.22-17.32,13.11-.82,1.74,1.77,3.26,2.59,1.51h0Z"/><circle class="cls-7" cx="30.28" cy="76.44" r=".76"/><circle class="cls-7" cx="30.28" cy="78.72" r=".76"/><circle class="cls-7" cx="30.28" cy="81.03" r=".76"/><circle class="cls-7" cx="30.28" cy="83.21" r=".76"/><circle class="cls-7" cx="30.28" cy="85.53" r=".76"/><circle class="cls-7" cx="30.28" cy="87.92" r=".76"/><circle class="cls-7" cx="30.28" cy="90.23" r=".76"/><circle class="cls-7" cx="30.28" cy="92.41" r=".76"/><circle class="cls-7" cx="32.3" cy="75.24" r=".76"/><circle class="cls-7" cx="32.3" cy="77.55" r=".76"/><circle class="cls-7" cx="32.3" cy="79.73" r=".76"/><circle class="cls-7" cx="32.3" cy="82.05" r=".76"/><circle class="cls-7" cx="32.3" cy="84.44" r=".76"/><circle class="cls-7" cx="32.3" cy="86.74" r=".76"/><circle class="cls-7" cx="32.3" cy="88.93" r=".76"/><circle class="cls-7" cx="28.21" cy="77.86" r=".76"/><circle class="cls-7" cx="28.21" cy="80.15" r=".76"/><circle class="cls-7" cx="28.21" cy="82.45" r=".76"/><circle class="cls-7" cx="28.21" cy="84.64" r=".76"/><circle class="cls-7" cx="28.21" cy="86.95" r=".76"/><circle class="cls-7" cx="28.21" cy="89.34" r=".76"/><circle class="cls-7" cx="28.21" cy="91.65" r=".76"/><circle class="cls-7" cx="28.21" cy="93.83" r=".76"/><circle class="cls-7" cx="36.63" cy="74.65" r=".76"/><circle class="cls-7" cx="36.63" cy="76.94" r=".76"/><circle class="cls-7" cx="36.63" cy="79.25" r=".76"/><circle class="cls-7" cx="36.63" cy="81.43" r=".76"/><circle class="cls-7" cx="36.63" cy="83.75" r=".76"/><circle class="cls-7" cx="36.63" cy="86.13" r=".76"/><circle class="cls-7" cx="36.63" cy="88.44" r=".76"/><circle class="cls-7" cx="36.63" cy="90.62" r=".76"/><circle class="cls-7" cx="38.66" cy="71.17" r=".76"/><circle class="cls-7" cx="38.66" cy="73.45" r=".76"/><circle class="cls-7" cx="38.66" cy="75.76" r=".76"/><circle class="cls-7" cx="38.66" cy="77.95" r=".76"/><circle class="cls-7" cx="38.66" cy="80.26" r=".76"/><circle class="cls-7" cx="38.66" cy="82.65" r=".76"/><circle class="cls-7" cx="38.66" cy="84.96" r=".76"/><circle class="cls-7" cx="38.66" cy="87.14" r=".76"/><circle class="cls-7" cx="34.56" cy="76.07" r=".76"/><circle class="cls-7" cx="34.56" cy="78.36" r=".76"/><circle class="cls-7" cx="34.56" cy="80.67" r=".76"/><circle class="cls-7" cx="34.56" cy="82.85" r=".76"/><circle class="cls-7" cx="34.56" cy="85.17" r=".76"/><circle class="cls-7" cx="34.56" cy="87.55" r=".76"/><circle class="cls-7" cx="34.56" cy="89.86" r=".76"/><circle class="cls-7" cx="34.56" cy="92.05" r=".76"/><circle class="cls-7" cx="24.13" cy="96.58" r=".76"/><circle class="cls-7" cx="24.13" cy="98.87" r=".76"/><circle class="cls-7" cx="24.13" cy="101.18" r=".76"/><circle class="cls-7" cx="24.13" cy="103.36" r=".76"/><circle class="cls-7" cx="24.13" cy="105.68" r=".76"/><circle class="cls-7" cx="24.13" cy="108.06" r=".76"/><circle class="cls-7" cx="24.13" cy="110.37" r=".76"/><circle class="cls-7" cx="24.13" cy="112.55" r=".76"/><circle class="cls-7" cx="26.16" cy="93.1" r=".76"/><circle class="cls-7" cx="26.16" cy="95.38" r=".76"/><circle class="cls-7" cx="26.16" cy="97.69" r=".76"/><circle class="cls-7" cx="26.16" cy="99.88" r=".76"/><circle class="cls-7" cx="26.16" cy="102.19" r=".76"/><circle class="cls-7" cx="26.16" cy="104.58" r=".76"/><circle class="cls-7" cx="26.16" cy="106.89" r=".76"/><circle class="cls-7" cx="26.16" cy="109.07" r=".76"/><circle class="cls-7" cx="22.06" cy="98" r=".76"/><circle class="cls-7" cx="22.06" cy="100.29" r=".76"/><circle class="cls-7" cx="22.06" cy="102.6" r=".76"/><circle class="cls-7" cx="22.06" cy="104.78" r=".76"/><circle class="cls-7" cx="22.06" cy="107.1" r=".76"/><circle class="cls-7" cx="22.06" cy="109.48" r=".76"/><circle class="cls-7" cx="22.06" cy="111.79" r=".76"/><circle class="cls-7" cx="22.06" cy="113.97" r=".76"/><circle class="cls-7" cx="30.23" cy="95.2" r=".76"/><circle class="cls-7" cx="30.23" cy="97.48" r=".76"/><circle class="cls-7" cx="30.23" cy="99.79" r=".76"/><circle class="cls-7" cx="30.23" cy="101.98" r=".76"/><circle class="cls-7" cx="30.23" cy="104.29" r=".76"/><circle class="cls-7" cx="30.23" cy="106.68" r=".76"/><circle class="cls-7" cx="30.23" cy="108.99" r=".76"/><circle class="cls-7" cx="30.23" cy="111.17" r=".76"/><circle class="cls-7" cx="32.25" cy="91.72" r=".76"/><circle class="cls-7" cx="32.25" cy="94" r=".76"/><circle class="cls-7" cx="32.25" cy="96.31" r=".76"/><circle class="cls-7" cx="32.25" cy="98.49" r=".76"/><circle class="cls-7" cx="32.25" cy="100.81" r=".76"/><circle class="cls-7" cx="32.25" cy="103.2" r=".76"/><circle class="cls-7" cx="32.25" cy="105.51" r=".76"/><circle class="cls-7" cx="32.25" cy="107.69" r=".76"/><circle class="cls-7" cx="28.16" cy="96.62" r=".76"/><circle class="cls-7" cx="28.16" cy="98.91" r=".76"/><circle class="cls-7" cx="28.16" cy="101.22" r=".76"/><circle class="cls-7" cx="28.16" cy="103.4" r=".76"/><circle class="cls-7" cx="28.16" cy="105.72" r=".76"/><circle class="cls-7" cx="28.16" cy="108.1" r=".76"/><circle class="cls-7" cx="28.16" cy="110.41" r=".76"/><circle class="cls-7" cx="28.16" cy="112.59" r=".76"/><circle class="cls-7" cx="36.78" cy="92.84" r=".76"/><circle class="cls-7" cx="36.78" cy="95.13" r=".76"/><circle class="cls-7" cx="36.78" cy="97.44" r=".76"/><circle class="cls-7" cx="36.78" cy="99.62" r=".76"/><circle class="cls-7" cx="36.78" cy="101.94" r=".76"/><circle class="cls-7" cx="36.78" cy="104.32" r=".76"/><circle class="cls-7" cx="36.78" cy="106.63" r=".76"/><circle class="cls-7" cx="36.78" cy="108.81" r=".76"/><circle class="cls-7" cx="38.8" cy="89.36" r=".76"/><circle class="cls-7" cx="38.8" cy="91.65" r=".76"/><circle class="cls-7" cx="38.8" cy="93.95" r=".76"/><circle class="cls-7" cx="38.8" cy="96.14" r=".76"/><circle class="cls-7" cx="38.8" cy="98.45" r=".76"/><circle class="cls-7" cx="38.8" cy="100.84" r=".76"/><circle class="cls-7" cx="38.8" cy="103.15" r=".76"/><circle class="cls-7" cx="38.8" cy="105.33" r=".76"/><circle class="cls-7" cx="34.71" cy="94.26" r=".76"/><circle class="cls-7" cx="34.71" cy="96.55" r=".76"/><circle class="cls-7" cx="34.71" cy="98.86" r=".76"/><circle class="cls-7" cx="34.71" cy="101.04" r=".76"/><circle class="cls-7" cx="34.71" cy="103.36" r=".76"/><circle class="cls-7" cx="34.71" cy="105.74" r=".76"/><circle class="cls-7" cx="34.71" cy="108.05" r=".76"/><circle class="cls-7" cx="34.71" cy="110.24" r=".76"/><circle class="cls-7" cx="23.86" cy="93.61" r=".76"/><circle class="cls-7" cx="25.88" cy="74.16" r=".76"/><circle class="cls-7" cx="25.88" cy="76.44" r=".76"/><circle class="cls-7" cx="25.88" cy="78.75" r=".76"/><circle class="cls-7" cx="25.88" cy="80.94" r=".76"/><circle class="cls-7" cx="25.88" cy="83.25" r=".76"/><circle class="cls-7" cx="25.88" cy="85.64" r=".76"/><circle class="cls-7" cx="25.88" cy="87.95" r=".76"/><circle class="cls-7" cx="25.88" cy="90.13" r=".76"/><circle class="cls-7" cx="21.79" cy="95.03" r=".76"/><circle class="cls-7" cx="49.53" cy="70.56" r=".76"/><circle class="cls-7" cx="49.53" cy="72.87" r=".76"/><circle class="cls-7" cx="49.53" cy="75.05" r=".76"/><circle class="cls-7" cx="49.53" cy="77.37" r=".76"/><circle class="cls-7" cx="49.53" cy="79.75" r=".76"/><circle class="cls-7" cx="49.53" cy="82.06" r=".76"/><circle class="cls-7" cx="49.53" cy="84.24" r=".76"/><circle class="cls-7" cx="51.56" cy="69.38" r=".76"/><circle class="cls-7" cx="51.56" cy="71.57" r=".76"/><circle class="cls-7" cx="51.56" cy="73.88" r=".76"/><circle class="cls-7" cx="51.56" cy="76.27" r=".76"/><circle class="cls-7" cx="51.56" cy="78.58" r=".76"/><circle class="cls-7" cx="51.56" cy="80.76" r=".76"/><circle class="cls-7" cx="47.46" cy="69.69" r=".76"/><circle class="cls-7" cx="47.46" cy="71.98" r=".76"/><circle class="cls-7" cx="47.46" cy="74.29" r=".76"/><circle class="cls-7" cx="47.46" cy="76.47" r=".76"/><circle class="cls-7" cx="47.46" cy="78.79" r=".76"/><circle class="cls-7" cx="47.46" cy="81.17" r=".76"/><circle class="cls-7" cx="47.46" cy="83.48" r=".76"/><circle class="cls-7" cx="47.46" cy="85.67" r=".76"/><circle class="cls-7" cx="55.89" cy="71.08" r=".76"/><circle class="cls-7" cx="55.89" cy="73.26" r=".76"/><circle class="cls-7" cx="55.89" cy="75.58" r=".76"/><circle class="cls-7" cx="55.89" cy="77.96" r=".76"/><circle class="cls-7" cx="55.89" cy="80.27" r=".76"/><circle class="cls-7" cx="55.89" cy="82.46" r=".76"/><circle class="cls-7" cx="57.91" cy="69.78" r=".76"/><circle class="cls-7" cx="57.91" cy="72.1" r=".76"/><circle class="cls-7" cx="57.91" cy="74.48" r=".76"/><circle class="cls-7" cx="57.91" cy="76.79" r=".76"/><circle class="cls-7" cx="57.91" cy="78.97" r=".76"/><circle class="cls-7" cx="53.82" cy="70.19" r=".76"/><circle class="cls-7" cx="53.82" cy="72.5" r=".76"/><circle class="cls-7" cx="53.82" cy="74.69" r=".76"/><circle class="cls-7" cx="53.82" cy="77" r=".76"/><circle class="cls-7" cx="53.82" cy="79.39" r=".76"/><circle class="cls-7" cx="53.82" cy="81.7" r=".76"/><circle class="cls-7" cx="53.82" cy="83.88" r=".76"/><circle class="cls-7" cx="43.39" cy="88.41" r=".76"/><circle class="cls-7" cx="43.39" cy="90.7" r=".76"/><circle class="cls-7" cx="43.39" cy="93.01" r=".76"/><circle class="cls-7" cx="43.39" cy="95.19" r=".76"/><circle class="cls-7" cx="43.39" cy="97.51" r=".76"/><circle class="cls-7" cx="43.39" cy="99.89" r=".76"/><circle class="cls-7" cx="43.39" cy="102.2" r=".76"/><circle class="cls-7" cx="43.39" cy="104.39" r=".76"/><circle class="cls-7" cx="45.41" cy="84.93" r=".76"/><circle class="cls-7" cx="45.41" cy="87.22" r=".76"/><circle class="cls-7" cx="45.41" cy="89.53" r=".76"/><circle class="cls-7" cx="45.41" cy="91.71" r=".76"/><circle class="cls-7" cx="45.41" cy="94.03" r=".76"/><circle class="cls-7" cx="45.41" cy="96.41" r=".76"/><circle class="cls-7" cx="45.41" cy="98.72" r=".76"/><circle class="cls-7" cx="45.41" cy="100.9" r=".76"/><circle class="cls-7" cx="41.32" cy="89.84" r=".76"/><circle class="cls-7" cx="41.32" cy="92.12" r=".76"/><circle class="cls-7" cx="41.32" cy="94.43" r=".76"/><circle class="cls-7" cx="41.32" cy="96.61" r=".76"/><circle class="cls-7" cx="41.32" cy="98.93" r=".76"/><circle class="cls-7" cx="41.32" cy="101.32" r=".76"/><circle class="cls-7" cx="41.32" cy="103.63" r=".76"/><circle class="cls-7" cx="41.32" cy="105.81" r=".76"/><circle class="cls-7" cx="49.49" cy="87.03" r=".76"/><circle class="cls-7" cx="49.49" cy="89.32" r=".76"/><circle class="cls-7" cx="49.49" cy="91.63" r=".76"/><circle class="cls-7" cx="49.49" cy="93.81" r=".76"/><circle class="cls-7" cx="49.49" cy="96.13" r=".76"/><circle class="cls-7" cx="49.49" cy="98.51" r=".76"/><circle class="cls-7" cx="49.49" cy="100.82" r=".76"/><circle class="cls-7" cx="49.49" cy="103" r=".76"/><circle class="cls-7" cx="51.51" cy="83.55" r=".76"/><circle class="cls-7" cx="51.51" cy="85.84" r=".76"/><circle class="cls-7" cx="51.51" cy="88.15" r=".76"/><circle class="cls-7" cx="51.51" cy="90.33" r=".76"/><circle class="cls-7" cx="51.51" cy="92.65" r=".76"/><circle class="cls-7" cx="51.51" cy="95.03" r=".76"/><circle class="cls-7" cx="51.51" cy="97.34" r=".76"/><circle class="cls-7" cx="51.51" cy="99.52" r=".76"/><circle class="cls-7" cx="47.41" cy="88.45" r=".76"/><circle class="cls-7" cx="47.41" cy="90.74" r=".76"/><circle class="cls-7" cx="47.41" cy="93.05" r=".76"/><circle class="cls-7" cx="47.41" cy="95.23" r=".76"/><circle class="cls-7" cx="47.41" cy="97.55" r=".76"/><circle class="cls-7" cx="47.41" cy="99.94" r=".76"/><circle class="cls-7" cx="47.41" cy="102.24" r=".76"/><circle class="cls-7" cx="47.41" cy="104.43" r=".76"/><circle class="cls-7" cx="56.03" cy="84.68" r=".76"/><circle class="cls-7" cx="56.03" cy="86.96" r=".76"/><circle class="cls-7" cx="56.03" cy="89.27" r=".76"/><circle class="cls-7" cx="56.03" cy="91.45" r=".76"/><circle class="cls-7" cx="56.03" cy="93.77" r=".76"/><circle class="cls-7" cx="56.03" cy="96.16" r=".76"/><circle class="cls-7" cx="56.03" cy="98.46" r=".76"/><circle class="cls-7" cx="56.03" cy="100.65" r=".76"/><circle class="cls-7" cx="58.06" cy="81.19" r=".76"/><circle class="cls-7" cx="58.06" cy="83.48" r=".76"/><circle class="cls-7" cx="58.06" cy="85.79" r=".76"/><circle class="cls-7" cx="58.06" cy="87.97" r=".76"/><circle class="cls-7" cx="58.06" cy="90.29" r=".76"/><circle class="cls-7" cx="58.06" cy="92.67" r=".76"/><circle class="cls-7" cx="58.06" cy="94.98" r=".76"/><circle class="cls-7" cx="58.06" cy="97.17" r=".76"/><circle class="cls-7" cx="53.96" cy="86.1" r=".76"/><circle class="cls-7" cx="53.96" cy="88.38" r=".76"/><circle class="cls-7" cx="53.96" cy="90.69" r=".76"/><circle class="cls-7" cx="53.96" cy="92.88" r=".76"/><circle class="cls-7" cx="53.96" cy="95.19" r=".76"/><circle class="cls-7" cx="53.96" cy="97.58" r=".76"/><circle class="cls-7" cx="53.96" cy="99.89" r=".76"/><circle class="cls-7" cx="53.96" cy="102.07" r=".76"/><circle class="cls-7" cx="43.12" cy="71.76" r=".76"/><circle class="cls-7" cx="43.12" cy="74.07" r=".76"/><circle class="cls-7" cx="43.12" cy="76.25" r=".76"/><circle class="cls-7" cx="43.12" cy="78.57" r=".76"/><circle class="cls-7" cx="43.12" cy="80.95" r=".76"/><circle class="cls-7" cx="43.12" cy="83.26" r=".76"/><circle class="cls-7" cx="43.12" cy="85.45" r=".76"/><circle class="cls-7" cx="45.14" cy="70.59" r=".76"/><circle class="cls-7" cx="45.14" cy="72.77" r=".76"/><circle class="cls-7" cx="45.14" cy="75.09" r=".76"/><circle class="cls-7" cx="45.14" cy="77.47" r=".76"/><circle class="cls-7" cx="45.14" cy="79.78" r=".76"/><circle class="cls-7" cx="45.14" cy="81.96" r=".76"/><circle class="cls-7" cx="41.04" cy="70.9" r=".76"/><circle class="cls-7" cx="41.04" cy="73.18" r=".76"/><circle class="cls-7" cx="41.04" cy="75.49" r=".76"/><circle class="cls-7" cx="41.04" cy="77.67" r=".76"/><circle class="cls-7" cx="41.04" cy="79.99" r=".76"/><circle class="cls-7" cx="41.04" cy="82.38" r=".76"/><circle class="cls-7" cx="41.04" cy="84.69" r=".76"/><circle class="cls-7" cx="41.04" cy="86.87" r=".76"/><circle class="cls-7" cx="68.65" cy="66.7" r=".76"/><circle class="cls-7" cx="66.57" cy="68.12" r=".76"/><circle class="cls-7" cx="62.5" cy="70.87" r=".76"/><circle class="cls-7" cx="62.5" cy="73.15" r=".76"/><circle class="cls-7" cx="62.5" cy="75.46" r=".76"/><circle class="cls-7" cx="62.5" cy="77.64" r=".76"/><circle class="cls-7" cx="62.5" cy="79.96" r=".76"/><circle class="cls-7" cx="62.5" cy="82.35" r=".76"/><circle class="cls-7" cx="62.5" cy="84.66" r=".76"/><circle class="cls-7" cx="62.5" cy="86.84" r=".76"/><circle class="cls-7" cx="64.53" cy="67.38" r=".76"/><circle class="cls-7" cx="64.53" cy="69.67" r=".76"/><circle class="cls-7" cx="64.53" cy="71.98" r=".76"/><circle class="cls-7" cx="64.53" cy="74.16" r=".76"/><circle class="cls-7" cx="64.53" cy="76.48" r=".76"/><circle class="cls-7" cx="64.53" cy="78.86" r=".76"/><circle class="cls-7" cx="64.53" cy="81.17" r=".76"/><circle class="cls-7" cx="64.53" cy="83.36" r=".76"/><circle class="cls-7" cx="60.43" cy="72.29" r=".76"/><circle class="cls-7" cx="60.43" cy="74.57" r=".76"/><circle class="cls-7" cx="60.43" cy="76.88" r=".76"/><circle class="cls-7" cx="60.43" cy="79.07" r=".76"/><circle class="cls-7" cx="60.43" cy="81.38" r=".76"/><circle class="cls-7" cx="60.43" cy="83.77" r=".76"/><circle class="cls-7" cx="60.43" cy="86.08" r=".76"/><circle class="cls-7" cx="60.43" cy="88.26" r=".76"/><circle class="cls-7" cx="68.6" cy="69.48" r=".76"/><circle class="cls-7" cx="68.6" cy="71.77" r=".76"/><circle class="cls-7" cx="68.6" cy="74.08" r=".76"/><circle class="cls-7" cx="68.6" cy="76.26" r=".76"/><circle class="cls-7" cx="68.6" cy="78.58" r=".76"/><circle class="cls-7" cx="68.6" cy="80.96" r=".76"/><circle class="cls-7" cx="68.6" cy="83.27" r=".76"/><circle class="cls-7" cx="68.6" cy="85.46" r=".76"/><circle class="cls-7" cx="70.62" cy="68.29" r=".76"/><circle class="cls-7" cx="70.62" cy="70.6" r=".76"/><circle class="cls-7" cx="70.62" cy="72.78" r=".76"/><circle class="cls-7" cx="70.62" cy="75.1" r=".76"/><circle class="cls-7" cx="70.62" cy="77.48" r=".76"/><circle class="cls-7" cx="70.62" cy="79.79" r=".76"/><circle class="cls-7" cx="70.62" cy="81.97" r=".76"/><circle class="cls-7" cx="66.53" cy="70.91" r=".76"/><circle class="cls-7" cx="66.53" cy="73.19" r=".76"/><circle class="cls-7" cx="66.53" cy="75.5" r=".76"/><circle class="cls-7" cx="66.53" cy="77.69" r=".76"/><circle class="cls-7" cx="66.53" cy="80" r=".76"/><circle class="cls-7" cx="66.53" cy="82.39" r=".76"/><circle class="cls-7" cx="66.53" cy="84.7" r=".76"/><circle class="cls-7" cx="66.53" cy="86.88" r=".76"/><circle class="cls-7" cx="75.15" cy="67.13" r=".76"/><circle class="cls-7" cx="75.15" cy="69.41" r=".76"/><circle class="cls-7" cx="75.15" cy="71.72" r=".76"/><circle class="cls-7" cx="75.15" cy="73.91" r=".76"/><circle class="cls-7" cx="75.15" cy="76.22" r=".76"/><circle class="cls-7" cx="75.15" cy="78.61" r=".76"/><circle class="cls-7" cx="75.15" cy="80.92" r=".76"/><circle class="cls-7" cx="75.15" cy="83.1" r=".76"/><circle class="cls-7" cx="77.17" cy="68.24" r=".76"/><circle class="cls-7" cx="77.17" cy="70.42" r=".76"/><circle class="cls-7" cx="77.17" cy="72.74" r=".76"/><circle class="cls-7" cx="77.17" cy="75.13" r=".76"/><circle class="cls-7" cx="77.17" cy="77.44" r=".76"/><circle class="cls-7" cx="77.17" cy="79.62" r=".76"/><circle class="cls-7" cx="73.07" cy="68.55" r=".76"/><circle class="cls-7" cx="73.07" cy="70.84" r=".76"/><circle class="cls-7" cx="73.07" cy="73.15" r=".76"/><circle class="cls-7" cx="73.07" cy="75.33" r=".76"/><circle class="cls-7" cx="73.07" cy="77.65" r=".76"/><circle class="cls-7" cx="73.07" cy="80.03" r=".76"/><circle class="cls-7" cx="73.07" cy="82.34" r=".76"/><circle class="cls-7" cx="73.07" cy="84.52" r=".76"/><circle class="cls-7" cx="62.23" cy="67.9" r=".76"/><circle class="cls-7" cx="60.16" cy="67.14" r=".76"/><circle class="cls-7" cx="60.16" cy="69.32" r=".76"/><circle class="cls-7" cx="106.65" cy="87.74" r=".76"/><circle class="cls-7" cx="106.65" cy="90.02" r=".76"/><circle class="cls-7" cx="106.65" cy="92.33" r=".76"/><circle class="cls-7" cx="106.65" cy="94.52" r=".76"/><circle class="cls-7" cx="106.65" cy="96.83" r=".76"/><circle class="cls-7" cx="106.65" cy="99.22" r=".76"/><circle class="cls-7" cx="106.65" cy="101.53" r=".76"/><circle class="cls-7" cx="106.65" cy="103.71" r=".76"/><circle class="cls-7" cx="108.67" cy="84.26" r=".76"/><circle class="cls-7" cx="108.67" cy="86.54" r=".76"/><circle class="cls-7" cx="108.67" cy="88.85" r=".76"/><circle class="cls-7" cx="108.67" cy="91.03" r=".76"/><circle class="cls-7" cx="108.67" cy="93.35" r=".76"/><circle class="cls-7" cx="108.67" cy="95.74" r=".76"/><circle class="cls-7" cx="108.67" cy="98.05" r=".76"/><circle class="cls-7" cx="108.67" cy="100.23" r=".76"/><circle class="cls-7" cx="104.57" cy="89.16" r=".76"/><circle class="cls-7" cx="104.57" cy="91.45" r=".76"/><circle class="cls-7" cx="104.57" cy="93.76" r=".76"/><circle class="cls-7" cx="104.57" cy="95.94" r=".76"/><circle class="cls-7" cx="104.57" cy="98.26" r=".76"/><circle class="cls-7" cx="104.57" cy="100.64" r=".76"/><circle class="cls-7" cx="104.57" cy="102.95" r=".76"/><circle class="cls-7" cx="104.57" cy="105.13" r=".76"/><circle class="cls-7" cx="113" cy="85.95" r=".76"/><circle class="cls-7" cx="113" cy="88.24" r=".76"/><circle class="cls-7" cx="113" cy="90.55" r=".76"/><circle class="cls-7" cx="113" cy="92.73" r=".76"/><circle class="cls-7" cx="113" cy="95.05" r=".76"/><circle class="cls-7" cx="113" cy="97.43" r=".76"/><circle class="cls-7" cx="113" cy="99.74" r=".76"/><circle class="cls-7" cx="113" cy="101.93" r=".76"/><circle class="cls-7" cx="115.03" cy="82.47" r=".76"/><circle class="cls-7" cx="115.03" cy="84.76" r=".76"/><circle class="cls-7" cx="115.03" cy="87.07" r=".76"/><circle class="cls-7" cx="115.03" cy="89.25" r=".76"/><circle class="cls-7" cx="115.03" cy="91.57" r=".76"/><circle class="cls-7" cx="115.03" cy="93.95" r=".76"/><circle class="cls-7" cx="115.03" cy="96.26" r=".76"/><circle class="cls-7" cx="115.03" cy="98.44" r=".76"/><circle class="cls-7" cx="110.93" cy="87.38" r=".76"/><circle class="cls-7" cx="110.93" cy="89.66" r=".76"/><circle class="cls-7" cx="110.93" cy="91.97" r=".76"/><circle class="cls-7" cx="110.93" cy="94.15" r=".76"/><circle class="cls-7" cx="110.93" cy="96.47" r=".76"/><circle class="cls-7" cx="110.93" cy="98.86" r=".76"/><circle class="cls-7" cx="110.93" cy="101.17" r=".76"/><circle class="cls-7" cx="110.93" cy="103.35" r=".76"/><circle class="cls-7" cx="100.5" cy="107.88" r=".76"/><circle class="cls-7" cx="100.5" cy="110.17" r=".76"/><circle class="cls-7" cx="100.5" cy="112.48" r=".76"/><circle class="cls-7" cx="100.5" cy="114.66" r=".76"/><circle class="cls-7" cx="102.53" cy="104.4" r=".76"/><circle class="cls-7" cx="102.53" cy="106.69" r=".76"/><circle class="cls-7" cx="102.53" cy="108.99" r=".76"/><circle class="cls-7" cx="102.53" cy="111.18" r=".76"/><circle class="cls-7" cx="102.53" cy="113.49" r=".76"/><circle class="cls-7" cx="102.53" cy="115.88" r=".76"/><circle class="cls-7" cx="98.43" cy="109.3" r=".76"/><circle class="cls-7" cx="98.43" cy="111.59" r=".76"/><circle class="cls-7" cx="98.43" cy="113.9" r=".76"/><circle class="cls-7" cx="98.43" cy="116.08" r=".76"/><circle class="cls-7" cx="106.6" cy="106.5" r=".76"/><circle class="cls-7" cx="106.6" cy="108.79" r=".76"/><circle class="cls-7" cx="106.6" cy="111.1" r=".76"/><circle class="cls-7" cx="106.6" cy="113.28" r=".76"/><circle class="cls-7" cx="106.6" cy="115.6" r=".76"/><circle class="cls-7" cx="108.62" cy="103.02" r=".76"/><circle class="cls-7" cx="108.62" cy="105.3" r=".76"/><circle class="cls-7" cx="108.62" cy="107.61" r=".76"/><circle class="cls-7" cx="108.62" cy="109.8" r=".76"/><circle class="cls-7" cx="108.62" cy="112.11" r=".76"/><circle class="cls-7" cx="108.62" cy="114.5" r=".76"/><path class="cls-7" d="M107.86,116.81c0-.42.34-.76.76-.76s.76.34.76.76"/><circle class="cls-7" cx="104.53" cy="107.92" r=".76"/><circle class="cls-7" cx="104.53" cy="110.21" r=".76"/><circle class="cls-7" cx="104.53" cy="112.52" r=".76"/><circle class="cls-7" cx="104.53" cy="114.7" r=".76"/><circle class="cls-7" cx="113.15" cy="104.14" r=".76"/><circle class="cls-7" cx="113.15" cy="106.43" r=".76"/><circle class="cls-7" cx="113.15" cy="108.74" r=".76"/><circle class="cls-7" cx="113.15" cy="110.92" r=".76"/><circle class="cls-7" cx="113.15" cy="113.24" r=".76"/><circle class="cls-7" cx="113.15" cy="115.62" r=".76"/><circle class="cls-7" cx="115.17" cy="100.66" r=".76"/><circle class="cls-7" cx="115.17" cy="102.95" r=".76"/><circle class="cls-7" cx="115.17" cy="105.26" r=".76"/><circle class="cls-7" cx="115.17" cy="107.44" r=".76"/><circle class="cls-7" cx="115.17" cy="109.76" r=".76"/><circle class="cls-7" cx="115.17" cy="112.14" r=".76"/><circle class="cls-7" cx="115.17" cy="114.45" r=".76"/><circle class="cls-7" cx="115.17" cy="116.63" r=".76"/><circle class="cls-7" cx="111.07" cy="105.57" r=".76"/><circle class="cls-7" cx="111.07" cy="107.85" r=".76"/><circle class="cls-7" cx="111.07" cy="110.16" r=".76"/><circle class="cls-7" cx="111.07" cy="112.34" r=".76"/><circle class="cls-7" cx="111.07" cy="114.66" r=".76"/><circle class="cls-7" cx="100.23" cy="88.94" r=".76"/><circle class="cls-7" cx="100.23" cy="91.23" r=".76"/><circle class="cls-7" cx="100.23" cy="93.54" r=".76"/><circle class="cls-7" cx="100.23" cy="95.72" r=".76"/><circle class="cls-7" cx="100.23" cy="98.04" r=".76"/><circle class="cls-7" cx="100.23" cy="100.42" r=".76"/><circle class="cls-7" cx="100.23" cy="102.73" r=".76"/><circle class="cls-7" cx="100.23" cy="104.91" r=".76"/><circle class="cls-7" cx="102.25" cy="85.46" r=".76"/><circle class="cls-7" cx="102.25" cy="87.74" r=".76"/><circle class="cls-7" cx="102.25" cy="90.05" r=".76"/><circle class="cls-7" cx="102.25" cy="92.24" r=".76"/><circle class="cls-7" cx="102.25" cy="94.55" r=".76"/><circle class="cls-7" cx="102.25" cy="96.94" r=".76"/><circle class="cls-7" cx="102.25" cy="99.25" r=".76"/><circle class="cls-7" cx="102.25" cy="101.43" r=".76"/><circle class="cls-7" cx="98.16" cy="90.36" r=".76"/><circle class="cls-7" cx="98.16" cy="92.65" r=".76"/><circle class="cls-7" cx="98.16" cy="94.96" r=".76"/><circle class="cls-7" cx="98.16" cy="97.14" r=".76"/><circle class="cls-7" cx="98.16" cy="99.46" r=".76"/><circle class="cls-7" cx="98.16" cy="101.84" r=".76"/><circle class="cls-7" cx="98.16" cy="104.15" r=".76"/><circle class="cls-7" cx="98.16" cy="106.34" r=".76"/><circle class="cls-7" cx="81.39" cy="71.48" r=".76"/><circle class="cls-7" cx="81.39" cy="73.67" r=".76"/><circle class="cls-7" cx="81.39" cy="75.98" r=".76"/><circle class="cls-7" cx="81.39" cy="78.37" r=".76"/><circle class="cls-7" cx="81.39" cy="80.68" r=".76"/><circle class="cls-7" cx="81.39" cy="82.86" r=".76"/><circle class="cls-7" cx="83.41" cy="70.19" r=".76"/><circle class="cls-7" cx="83.41" cy="72.5" r=".76"/><circle class="cls-7" cx="83.41" cy="74.89" r=".76"/><circle class="cls-7" cx="83.41" cy="77.2" r=".76"/><circle class="cls-7" cx="83.41" cy="79.38" r=".76"/><circle class="cls-7" cx="79.32" cy="70.6" r=".76"/><circle class="cls-7" cx="79.32" cy="72.91" r=".76"/><circle class="cls-7" cx="79.32" cy="75.09" r=".76"/><circle class="cls-7" cx="79.32" cy="77.41" r=".76"/><circle class="cls-7" cx="79.32" cy="79.79" r=".76"/><circle class="cls-7" cx="79.32" cy="82.1" r=".76"/><circle class="cls-7" cx="79.32" cy="84.28" r=".76"/><circle class="cls-7" cx="87.49" cy="70.1" r=".76"/><circle class="cls-7" cx="87.49" cy="72.29" r=".76"/><circle class="cls-7" cx="87.49" cy="74.6" r=".76"/><circle class="cls-7" cx="87.49" cy="76.99" r=".76"/><circle class="cls-7" cx="87.49" cy="79.3" r=".76"/><circle class="cls-7" cx="87.49" cy="81.48" r=".76"/><circle class="cls-7" cx="89.51" cy="71.12" r=".76"/><circle class="cls-7" cx="89.51" cy="73.51" r=".76"/><circle class="cls-7" cx="89.51" cy="75.82" r=".76"/><circle class="cls-7" cx="89.51" cy="78" r=".76"/><circle class="cls-7" cx="85.41" cy="71.53" r=".76"/><circle class="cls-7" cx="85.41" cy="73.71" r=".76"/><circle class="cls-7" cx="85.41" cy="76.03" r=".76"/><circle class="cls-7" cx="85.41" cy="78.41" r=".76"/><circle class="cls-7" cx="85.41" cy="80.72" r=".76"/><circle class="cls-7" cx="85.41" cy="82.9" r=".76"/><circle class="cls-7" cx="94.03" cy="69.93" r=".76"/><circle class="cls-7" cx="94.03" cy="72.25" r=".76"/><circle class="cls-7" cx="94.03" cy="74.63" r=".76"/><circle class="cls-7" cx="94.03" cy="76.94" r=".76"/><circle class="cls-7" cx="94.03" cy="79.12" r=".76"/><circle class="cls-7" cx="96.06" cy="71.15" r=".76"/><circle class="cls-7" cx="96.06" cy="73.46" r=".76"/><circle class="cls-7" cx="96.06" cy="75.64" r=".76"/><circle class="cls-7" cx="91.96" cy="71.35" r=".76"/><circle class="cls-7" cx="91.96" cy="73.67" r=".76"/><circle class="cls-7" cx="91.96" cy="76.05" r=".76"/><circle class="cls-7" cx="91.96" cy="78.36" r=".76"/><circle class="cls-7" cx="91.96" cy="80.55" r=".76"/><circle class="cls-7" cx="87.67" cy="83.79" r=".76"/><circle class="cls-7" cx="87.67" cy="86.07" r=".76"/><circle class="cls-7" cx="87.67" cy="88.38" r=".76"/><circle class="cls-7" cx="87.67" cy="90.57" r=".76"/><circle class="cls-7" cx="87.67" cy="92.88" r=".76"/><circle class="cls-7" cx="87.67" cy="95.27" r=".76"/><circle class="cls-7" cx="87.67" cy="97.58" r=".76"/><circle class="cls-7" cx="87.67" cy="99.76" r=".76"/><circle class="cls-7" cx="89.69" cy="80.31" r=".76"/><circle class="cls-7" cx="89.69" cy="82.59" r=".76"/><circle class="cls-7" cx="89.69" cy="84.9" r=".76"/><circle class="cls-7" cx="89.69" cy="87.08" r=".76"/><circle class="cls-7" cx="89.69" cy="89.4" r=".76"/><circle class="cls-7" cx="89.69" cy="91.79" r=".76"/><circle class="cls-7" cx="89.69" cy="94.1" r=".76"/><circle class="cls-7" cx="89.69" cy="96.28" r=".76"/><circle class="cls-7" cx="85.6" cy="85.21" r=".76"/><circle class="cls-7" cx="85.6" cy="87.5" r=".76"/><circle class="cls-7" cx="85.6" cy="89.81" r=".76"/><circle class="cls-7" cx="85.6" cy="91.99" r=".76"/><circle class="cls-7" cx="85.6" cy="94.31" r=".76"/><circle class="cls-7" cx="85.6" cy="96.69" r=".76"/><circle class="cls-7" cx="85.6" cy="99" r=".76"/><circle class="cls-7" cx="85.6" cy="101.18" r=".76"/><circle class="cls-7" cx="94.03" cy="82" r=".76"/><circle class="cls-7" cx="94.03" cy="84.29" r=".76"/><circle class="cls-7" cx="94.03" cy="86.6" r=".76"/><circle class="cls-7" cx="94.03" cy="88.78" r=".76"/><circle class="cls-7" cx="94.03" cy="91.1" r=".76"/><circle class="cls-7" cx="94.03" cy="93.48" r=".76"/><circle class="cls-7" cx="94.03" cy="95.79" r=".76"/><circle class="cls-7" cx="94.03" cy="97.97" r=".76"/><circle class="cls-7" cx="96.05" cy="78.52" r=".76"/><circle class="cls-7" cx="96.05" cy="80.81" r=".76"/><circle class="cls-7" cx="96.05" cy="83.12" r=".76"/><circle class="cls-7" cx="96.05" cy="85.3" r=".76"/><circle class="cls-7" cx="96.05" cy="87.62" r=".76"/><circle class="cls-7" cx="96.05" cy="90" r=".76"/><circle class="cls-7" cx="96.05" cy="92.31" r=".76"/><circle class="cls-7" cx="96.05" cy="94.49" r=".76"/><circle class="cls-7" cx="91.96" cy="83.43" r=".76"/><circle class="cls-7" cx="91.96" cy="85.71" r=".76"/><circle class="cls-7" cx="91.96" cy="88.02" r=".76"/><circle class="cls-7" cx="91.96" cy="90.2" r=".76"/><circle class="cls-7" cx="91.96" cy="92.52" r=".76"/><circle class="cls-7" cx="91.96" cy="94.91" r=".76"/><circle class="cls-7" cx="91.96" cy="97.21" r=".76"/><circle class="cls-7" cx="91.96" cy="99.4" r=".76"/><circle class="cls-7" cx="81.53" cy="103.93" r=".76"/><circle class="cls-7" cx="81.53" cy="106.22" r=".76"/><circle class="cls-7" cx="81.53" cy="108.53" r=".76"/><circle class="cls-7" cx="81.53" cy="110.71" r=".76"/><circle class="cls-7" cx="81.53" cy="113.03" r=".76"/><circle class="cls-7" cx="81.53" cy="115.41" r=".76"/><circle class="cls-7" cx="83.55" cy="100.45" r=".76"/><circle class="cls-7" cx="83.55" cy="102.73" r=".76"/><circle class="cls-7" cx="83.55" cy="105.04" r=".76"/><circle class="cls-7" cx="83.55" cy="107.23" r=".76"/><circle class="cls-7" cx="83.55" cy="109.54" r=".76"/><circle class="cls-7" cx="83.55" cy="111.93" r=".76"/><circle class="cls-7" cx="83.55" cy="114.24" r=".76"/><circle class="cls-7" cx="83.55" cy="116.42" r=".76"/><circle class="cls-7" cx="79.46" cy="105.35" r=".76"/><circle class="cls-7" cx="79.46" cy="107.64" r=".76"/><circle class="cls-7" cx="79.46" cy="109.95" r=".76"/><circle class="cls-7" cx="79.46" cy="112.13" r=".76"/><circle class="cls-7" cx="79.46" cy="114.45" r=".76"/><path class="cls-7" d="M78.69,116.83c0-.42.34-.76.76-.76s.76.34.76.76"/><circle class="cls-7" cx="87.62" cy="102.55" r=".76"/><circle class="cls-7" cx="87.62" cy="104.84" r=".76"/><circle class="cls-7" cx="87.62" cy="107.15" r=".76"/><circle class="cls-7" cx="87.62" cy="109.33" r=".76"/><circle class="cls-7" cx="87.62" cy="111.65" r=".76"/><circle class="cls-7" cx="87.62" cy="114.03" r=".76"/><circle class="cls-7" cx="87.62" cy="116.34" r=".76"/><circle class="cls-7" cx="89.65" cy="99.07" r=".76"/><circle class="cls-7" cx="89.65" cy="101.35" r=".76"/><circle class="cls-7" cx="89.65" cy="103.66" r=".76"/><circle class="cls-7" cx="89.65" cy="105.85" r=".76"/><circle class="cls-7" cx="89.65" cy="108.16" r=".76"/><circle class="cls-7" cx="89.65" cy="110.55" r=".76"/><circle class="cls-7" cx="89.65" cy="112.86" r=".76"/><circle class="cls-7" cx="89.65" cy="115.04" r=".76"/><circle class="cls-7" cx="85.55" cy="103.97" r=".76"/><circle class="cls-7" cx="85.55" cy="106.26" r=".76"/><circle class="cls-7" cx="85.55" cy="108.57" r=".76"/><circle class="cls-7" cx="85.55" cy="110.75" r=".76"/><circle class="cls-7" cx="85.55" cy="113.07" r=".76"/><circle class="cls-7" cx="85.55" cy="115.45" r=".76"/><circle class="cls-7" cx="94.17" cy="100.19" r=".76"/><circle class="cls-7" cx="94.17" cy="102.48" r=".76"/><circle class="cls-7" cx="94.17" cy="104.79" r=".76"/><circle class="cls-7" cx="94.17" cy="106.97" r=".76"/><circle class="cls-7" cx="94.17" cy="109.29" r=".76"/><circle class="cls-7" cx="94.17" cy="111.67" r=".76"/><circle class="cls-7" cx="94.17" cy="113.98" r=".76"/><circle class="cls-7" cx="94.17" cy="116.17" r=".76"/><circle class="cls-7" cx="96.19" cy="96.71" r=".76"/><circle class="cls-7" cx="96.19" cy="99" r=".76"/><circle class="cls-7" cx="96.19" cy="101.31" r=".76"/><circle class="cls-7" cx="96.19" cy="103.49" r=".76"/><circle class="cls-7" cx="96.19" cy="105.81" r=".76"/><circle class="cls-7" cx="96.19" cy="108.19" r=".76"/><circle class="cls-7" cx="96.19" cy="110.5" r=".76"/><circle class="cls-7" cx="96.19" cy="112.68" r=".76"/><circle class="cls-7" cx="92.1" cy="101.62" r=".76"/><circle class="cls-7" cx="92.1" cy="103.9" r=".76"/><circle class="cls-7" cx="92.1" cy="106.21" r=".76"/><circle class="cls-7" cx="92.1" cy="108.39" r=".76"/><circle class="cls-7" cx="92.1" cy="110.71" r=".76"/><circle class="cls-7" cx="92.1" cy="113.1" r=".76"/><circle class="cls-7" cx="92.1" cy="115.41" r=".76"/><circle class="cls-7" cx="81.25" cy="84.99" r=".76"/><circle class="cls-7" cx="81.25" cy="87.28" r=".76"/><circle class="cls-7" cx="81.25" cy="89.59" r=".76"/><circle class="cls-7" cx="81.25" cy="91.77" r=".76"/><circle class="cls-7" cx="81.25" cy="94.09" r=".76"/><circle class="cls-7" cx="81.25" cy="96.47" r=".76"/><circle class="cls-7" cx="81.25" cy="98.78" r=".76"/><circle class="cls-7" cx="81.25" cy="100.96" r=".76"/><circle class="cls-7" cx="83.28" cy="81.51" r=".76"/><circle class="cls-7" cx="83.28" cy="83.79" r=".76"/><circle class="cls-7" cx="83.28" cy="86.1" r=".76"/><circle class="cls-7" cx="83.28" cy="88.29" r=".76"/><circle class="cls-7" cx="83.28" cy="90.6" r=".76"/><circle class="cls-7" cx="83.28" cy="92.99" r=".76"/><circle class="cls-7" cx="83.28" cy="95.3" r=".76"/><circle class="cls-7" cx="83.28" cy="97.48" r=".76"/><circle class="cls-7" cx="79.18" cy="86.41" r=".76"/><circle class="cls-7" cx="79.18" cy="88.7" r=".76"/><circle class="cls-7" cx="79.18" cy="91.01" r=".76"/><circle class="cls-7" cx="79.18" cy="93.19" r=".76"/><circle class="cls-7" cx="79.18" cy="95.51" r=".76"/><circle class="cls-7" cx="79.18" cy="97.89" r=".76"/><circle class="cls-7" cx="79.18" cy="100.2" r=".76"/><circle class="cls-7" cx="79.18" cy="102.39" r=".76"/><circle class="cls-7" cx="108.67" cy="58.95" r=".76"/><circle class="cls-7" cx="100.5" cy="71.09" r=".76"/><circle class="cls-7" cx="100.5" cy="73.38" r=".76"/><circle class="cls-7" cx="100.5" cy="75.69" r=".76"/><circle class="cls-7" cx="100.5" cy="77.87" r=".76"/><circle class="cls-7" cx="100.5" cy="80.19" r=".76"/><circle class="cls-7" cx="100.5" cy="82.57" r=".76"/><circle class="cls-7" cx="100.5" cy="84.88" r=".76"/><circle class="cls-7" cx="100.5" cy="87.06" r=".76"/><circle class="cls-7" cx="102.53" cy="69.9" r=".76"/><circle class="cls-7" cx="102.53" cy="72.2" r=".76"/><circle class="cls-7" cx="102.53" cy="74.39" r=".76"/><circle class="cls-7" cx="102.53" cy="76.7" r=".76"/><circle class="cls-7" cx="102.53" cy="79.09" r=".76"/><circle class="cls-7" cx="102.53" cy="81.4" r=".76"/><circle class="cls-7" cx="102.53" cy="83.58" r=".76"/><circle class="cls-7" cx="98.43" cy="72.51" r=".76"/><circle class="cls-7" cx="98.43" cy="74.8" r=".76"/><circle class="cls-7" cx="98.43" cy="77.11" r=".76"/><circle class="cls-7" cx="98.43" cy="79.29" r=".76"/><circle class="cls-7" cx="98.43" cy="81.61" r=".76"/><circle class="cls-7" cx="98.43" cy="83.99" r=".76"/><circle class="cls-7" cx="98.43" cy="86.3" r=".76"/><circle class="cls-7" cx="98.43" cy="88.49" r=".76"/><circle class="cls-7" cx="106.6" cy="72" r=".76"/><circle class="cls-7" cx="106.6" cy="74.31" r=".76"/><circle class="cls-7" cx="106.6" cy="76.49" r=".76"/><circle class="cls-7" cx="106.6" cy="78.81" r=".76"/><circle class="cls-7" cx="106.6" cy="81.19" r=".76"/><circle class="cls-7" cx="106.6" cy="83.5" r=".76"/><circle class="cls-7" cx="106.6" cy="85.68" r=".76"/><circle class="cls-7" cx="108.62" cy="73.01" r=".76"/><circle class="cls-7" cx="108.62" cy="75.32" r=".76"/><circle class="cls-7" cx="108.62" cy="77.71" r=".76"/><circle class="cls-7" cx="108.62" cy="80.02" r=".76"/><circle class="cls-7" cx="108.62" cy="82.2" r=".76"/><circle class="cls-7" cx="104.53" cy="71.13" r=".76"/><circle class="cls-7" cx="104.53" cy="73.42" r=".76"/><circle class="cls-7" cx="104.53" cy="75.73" r=".76"/><circle class="cls-7" cx="104.53" cy="77.91" r=".76"/><circle class="cls-7" cx="104.53" cy="80.23" r=".76"/><circle class="cls-7" cx="104.53" cy="82.61" r=".76"/><circle class="cls-7" cx="104.53" cy="84.92" r=".76"/><circle class="cls-7" cx="104.53" cy="87.11" r=".76"/><circle class="cls-7" cx="113.15" cy="71.95" r=".76"/><circle class="cls-7" cx="113.15" cy="74.13" r=".76"/><circle class="cls-7" cx="113.15" cy="76.45" r=".76"/><circle class="cls-7" cx="113.15" cy="78.83" r=".76"/><circle class="cls-7" cx="113.15" cy="81.14" r=".76"/><circle class="cls-7" cx="113.15" cy="83.33" r=".76"/><circle class="cls-7" cx="115.17" cy="72.97" r=".76"/><circle class="cls-7" cx="115.17" cy="75.35" r=".76"/><circle class="cls-7" cx="115.17" cy="77.66" r=".76"/><circle class="cls-7" cx="115.17" cy="79.84" r=".76"/><circle class="cls-7" cx="111.07" cy="73.37" r=".76"/><circle class="cls-7" cx="111.07" cy="75.55" r=".76"/><circle class="cls-7" cx="111.07" cy="77.87" r=".76"/><circle class="cls-7" cx="111.07" cy="80.26" r=".76"/><circle class="cls-7" cx="111.07" cy="82.57" r=".76"/><circle class="cls-7" cx="111.07" cy="84.75" r=".76"/><circle class="cls-7" cx="98.16" cy="69.55" r=".76"/><circle class="cls-7" cx="68.79" cy="87.83" r=".76"/><circle class="cls-7" cx="68.79" cy="90.12" r=".76"/><circle class="cls-7" cx="68.79" cy="92.43" r=".76"/><circle class="cls-7" cx="68.79" cy="94.61" r=".76"/><circle class="cls-7" cx="68.79" cy="96.93" r=".76"/><circle class="cls-7" cx="68.79" cy="99.31" r=".76"/><circle class="cls-7" cx="68.79" cy="101.62" r=".76"/><circle class="cls-7" cx="68.79" cy="103.8" r=".76"/><circle class="cls-7" cx="70.81" cy="84.35" r=".76"/><circle class="cls-7" cx="70.81" cy="86.63" r=".76"/><circle class="cls-7" cx="70.81" cy="88.94" r=".76"/><circle class="cls-7" cx="70.81" cy="91.13" r=".76"/><circle class="cls-7" cx="70.81" cy="93.44" r=".76"/><circle class="cls-7" cx="70.81" cy="95.83" r=".76"/><circle class="cls-7" cx="70.81" cy="98.14" r=".76"/><circle class="cls-7" cx="70.81" cy="100.32" r=".76"/><circle class="cls-7" cx="66.72" cy="89.25" r=".76"/><circle class="cls-7" cx="66.72" cy="91.54" r=".76"/><circle class="cls-7" cx="66.72" cy="93.85" r=".76"/><circle class="cls-7" cx="66.72" cy="96.03" r=".76"/><circle class="cls-7" cx="66.72" cy="98.35" r=".76"/><circle class="cls-7" cx="66.72" cy="100.73" r=".76"/><circle class="cls-7" cx="66.72" cy="103.04" r=".76"/><circle class="cls-7" cx="66.72" cy="105.22" r=".76"/><circle class="cls-7" cx="75.15" cy="86.04" r=".76"/><circle class="cls-7" cx="75.15" cy="88.33" r=".76"/><circle class="cls-7" cx="75.15" cy="90.64" r=".76"/><circle class="cls-7" cx="75.15" cy="92.82" r=".76"/><circle class="cls-7" cx="75.15" cy="95.14" r=".76"/><circle class="cls-7" cx="75.15" cy="97.52" r=".76"/><circle class="cls-7" cx="75.15" cy="99.83" r=".76"/><circle class="cls-7" cx="75.15" cy="102.02" r=".76"/><circle class="cls-7" cx="77.17" cy="82.56" r=".76"/><circle class="cls-7" cx="77.17" cy="84.85" r=".76"/><circle class="cls-7" cx="77.17" cy="87.16" r=".76"/><circle class="cls-7" cx="77.17" cy="89.34" r=".76"/><circle class="cls-7" cx="77.17" cy="91.66" r=".76"/><circle class="cls-7" cx="77.17" cy="94.04" r=".76"/><circle class="cls-7" cx="77.17" cy="96.35" r=".76"/><circle class="cls-7" cx="77.17" cy="98.53" r=".76"/><circle class="cls-7" cx="73.07" cy="87.47" r=".76"/><circle class="cls-7" cx="73.07" cy="89.75" r=".76"/><circle class="cls-7" cx="73.07" cy="92.06" r=".76"/><circle class="cls-7" cx="73.07" cy="94.24" r=".76"/><circle class="cls-7" cx="73.07" cy="96.56" r=".76"/><circle class="cls-7" cx="73.07" cy="98.95" r=".76"/><circle class="cls-7" cx="73.07" cy="101.26" r=".76"/><circle class="cls-7" cx="73.07" cy="103.44" r=".76"/><circle class="cls-7" cx="62.65" cy="107.97" r=".76"/><circle class="cls-7" cx="62.65" cy="110.26" r=".76"/><circle class="cls-7" cx="62.65" cy="112.57" r=".76"/><circle class="cls-7" cx="62.65" cy="114.75" r=".76"/><circle class="cls-7" cx="64.67" cy="104.49" r=".76"/><circle class="cls-7" cx="64.67" cy="106.78" r=".76"/><circle class="cls-7" cx="64.67" cy="109.09" r=".76"/><circle class="cls-7" cx="64.67" cy="111.27" r=".76"/><circle class="cls-7" cx="64.67" cy="113.59" r=".76"/><circle class="cls-7" cx="60.57" cy="109.4" r=".76"/><circle class="cls-7" cx="60.57" cy="111.68" r=".76"/><circle class="cls-7" cx="60.57" cy="113.99" r=".76"/><circle class="cls-7" cx="68.74" cy="106.59" r=".76"/><circle class="cls-7" cx="68.74" cy="108.88" r=".76"/><circle class="cls-7" cx="68.74" cy="111.19" r=".76"/><circle class="cls-7" cx="68.74" cy="113.37" r=".76"/><circle class="cls-7" cx="70.76" cy="103.11" r=".76"/><circle class="cls-7" cx="70.76" cy="105.4" r=".76"/><circle class="cls-7" cx="70.76" cy="107.7" r=".76"/><circle class="cls-7" cx="70.76" cy="109.89" r=".76"/><circle class="cls-7" cx="70.76" cy="112.2" r=".76"/><circle class="cls-7" cx="70.76" cy="114.59" r=".76"/><circle class="cls-7" cx="66.67" cy="108.01" r=".76"/><circle class="cls-7" cx="66.67" cy="110.3" r=".76"/><circle class="cls-7" cx="66.67" cy="112.61" r=".76"/><circle class="cls-7" cx="66.67" cy="114.79" r=".76"/><circle class="cls-7" cx="75.29" cy="104.23" r=".76"/><circle class="cls-7" cx="75.29" cy="106.52" r=".76"/><circle class="cls-7" cx="75.29" cy="108.83" r=".76"/><circle class="cls-7" cx="75.29" cy="111.01" r=".76"/><circle class="cls-7" cx="75.29" cy="113.33" r=".76"/><circle class="cls-7" cx="75.29" cy="115.71" r=".76"/><circle class="cls-7" cx="77.31" cy="100.75" r=".76"/><circle class="cls-7" cx="77.31" cy="103.04" r=".76"/><circle class="cls-7" cx="77.31" cy="105.35" r=".76"/><circle class="cls-7" cx="77.31" cy="107.53" r=".76"/><circle class="cls-7" cx="77.31" cy="109.85" r=".76"/><circle class="cls-7" cx="77.31" cy="112.23" r=".76"/><circle class="cls-7" cx="77.31" cy="114.54" r=".76"/><path class="cls-7" d="M76.55,116.72c0-.42.34-.76.76-.76s.76.34.76.76"/><circle class="cls-7" cx="73.22" cy="105.66" r=".76"/><circle class="cls-7" cx="73.22" cy="107.94" r=".76"/><circle class="cls-7" cx="73.22" cy="110.25" r=".76"/><circle class="cls-7" cx="73.22" cy="112.44" r=".76"/><circle class="cls-7" cx="73.22" cy="114.75" r=".76"/><circle class="cls-7" cx="62.37" cy="89.03" r=".76"/><circle class="cls-7" cx="62.37" cy="91.32" r=".76"/><circle class="cls-7" cx="62.37" cy="93.63" r=".76"/><circle class="cls-7" cx="62.37" cy="95.81" r=".76"/><circle class="cls-7" cx="62.37" cy="98.13" r=".76"/><circle class="cls-7" cx="62.37" cy="100.51" r=".76"/><circle class="cls-7" cx="62.37" cy="102.82" r=".76"/><circle class="cls-7" cx="62.37" cy="105" r=".76"/><circle class="cls-7" cx="64.4" cy="85.55" r=".76"/><circle class="cls-7" cx="64.4" cy="87.84" r=".76"/><circle class="cls-7" cx="64.4" cy="90.15" r=".76"/><circle class="cls-7" cx="64.4" cy="92.33" r=".76"/><circle class="cls-7" cx="64.4" cy="94.65" r=".76"/><circle class="cls-7" cx="64.4" cy="97.03" r=".76"/><circle class="cls-7" cx="64.4" cy="99.34" r=".76"/><circle class="cls-7" cx="64.4" cy="101.52" r=".76"/><circle class="cls-7" cx="60.3" cy="90.45" r=".76"/><circle class="cls-7" cx="60.3" cy="92.74" r=".76"/><circle class="cls-7" cx="60.3" cy="95.05" r=".76"/><circle class="cls-7" cx="60.3" cy="97.23" r=".76"/><circle class="cls-7" cx="60.3" cy="99.55" r=".76"/><circle class="cls-7" cx="60.3" cy="101.94" r=".76"/><circle class="cls-7" cx="60.3" cy="104.24" r=".76"/><circle class="cls-7" cx="60.3" cy="106.43" r=".76"/><circle class="cls-7" cx="49.77" cy="105" r=".76"/><circle class="cls-7" cx="49.77" cy="107.29" r=".76"/><circle class="cls-7" cx="49.77" cy="109.6" r=".76"/><circle class="cls-7" cx="49.77" cy="111.78" r=".76"/><circle class="cls-7" cx="49.77" cy="114.1" r=".76"/><circle class="cls-7" cx="49.77" cy="116.48" r=".76"/><circle class="cls-7" cx="51.79" cy="101.52" r=".76"/><circle class="cls-7" cx="51.79" cy="103.81" r=".76"/><circle class="cls-7" cx="51.79" cy="106.12" r=".76"/><circle class="cls-7" cx="51.79" cy="108.3" r=".76"/><circle class="cls-7" cx="51.79" cy="110.62" r=".76"/><circle class="cls-7" cx="51.79" cy="113" r=".76"/><circle class="cls-7" cx="51.79" cy="115.31" r=".76"/><circle class="cls-7" cx="47.69" cy="106.43" r=".76"/><circle class="cls-7" cx="47.69" cy="108.71" r=".76"/><circle class="cls-7" cx="47.69" cy="111.02" r=".76"/><circle class="cls-7" cx="47.69" cy="113.2" r=".76"/><circle class="cls-7" cx="47.69" cy="115.52" r=".76"/><circle class="cls-7" cx="56.12" cy="103.22" r=".76"/><circle class="cls-7" cx="56.12" cy="105.5" r=".76"/><circle class="cls-7" cx="56.12" cy="107.81" r=".76"/><circle class="cls-7" cx="56.12" cy="109.99" r=".76"/><circle class="cls-7" cx="56.12" cy="112.31" r=".76"/><circle class="cls-7" cx="56.12" cy="114.7" r=".76"/><circle class="cls-7" cx="58.15" cy="99.73" r=".76"/><circle class="cls-7" cx="58.15" cy="102.02" r=".76"/><circle class="cls-7" cx="58.15" cy="104.33" r=".76"/><circle class="cls-7" cx="58.15" cy="106.51" r=".76"/><circle class="cls-7" cx="58.15" cy="108.83" r=".76"/><circle class="cls-7" cx="58.15" cy="111.21" r=".76"/><circle class="cls-7" cx="58.15" cy="113.52" r=".76"/><circle class="cls-7" cx="58.15" cy="115.71" r=".76"/><circle class="cls-7" cx="54.05" cy="104.64" r=".76"/><circle class="cls-7" cx="54.05" cy="106.93" r=".76"/><circle class="cls-7" cx="54.05" cy="109.23" r=".76"/><circle class="cls-7" cx="54.05" cy="111.42" r=".76"/><circle class="cls-7" cx="54.05" cy="113.73" r=".76"/><circle class="cls-7" cx="54.05" cy="116.12" r=".76"/><circle class="cls-7" cx="43.35" cy="106.2" r=".76"/><circle class="cls-7" cx="43.35" cy="108.49" r=".76"/><circle class="cls-7" cx="43.35" cy="110.8" r=".76"/><circle class="cls-7" cx="43.35" cy="112.98" r=".76"/><circle class="cls-7" cx="43.35" cy="115.3" r=".76"/><circle class="cls-7" cx="45.37" cy="102.72" r=".76"/><circle class="cls-7" cx="45.37" cy="105.01" r=".76"/><circle class="cls-7" cx="45.37" cy="107.32" r=".76"/><circle class="cls-7" cx="45.37" cy="109.5" r=".76"/><circle class="cls-7" cx="45.37" cy="111.82" r=".76"/><circle class="cls-7" cx="45.37" cy="114.2" r=".76"/><circle class="cls-7" cx="45.37" cy="116.51" r=".76"/><circle class="cls-7" cx="41.28" cy="107.63" r=".76"/><circle class="cls-7" cx="41.28" cy="109.91" r=".76"/><circle class="cls-7" cx="41.28" cy="112.22" r=".76"/><circle class="cls-7" cx="41.28" cy="114.41" r=".76"/><path class="cls-7" d="M40.51,116.72c0-.42.34-.76.76-.76s.76.34.76.76"/><circle class="cls-7" cx="125.82" cy="84.87" r=".76"/><circle class="cls-7" cx="125.82" cy="87.05" r=".76"/><circle class="cls-7" cx="125.82" cy="89.37" r=".76"/><circle class="cls-7" cx="125.82" cy="91.75" r=".76"/><circle class="cls-7" cx="125.82" cy="94.06" r=".76"/><circle class="cls-7" cx="125.82" cy="96.24" r=".76"/><circle class="cls-7" cx="127.84" cy="85.88" r=".76"/><circle class="cls-7" cx="127.84" cy="88.27" r=".76"/><circle class="cls-7" cx="127.84" cy="90.58" r=".76"/><circle class="cls-7" cx="127.84" cy="92.76" r=".76"/><circle class="cls-7" cx="123.75" cy="83.98" r=".76"/><circle class="cls-7" cx="123.75" cy="86.29" r=".76"/><circle class="cls-7" cx="123.75" cy="88.47" r=".76"/><circle class="cls-7" cx="123.75" cy="90.79" r=".76"/><circle class="cls-7" cx="123.75" cy="93.17" r=".76"/><circle class="cls-7" cx="123.75" cy="95.48" r=".76"/><circle class="cls-7" cx="123.75" cy="97.67" r=".76"/><circle class="cls-7" cx="132.18" cy="92.27" r=".76"/><circle class="cls-7" cx="132.18" cy="94.46" r=".76"/><circle class="cls-7" cx="130.1" cy="89" r=".76"/><circle class="cls-7" cx="130.1" cy="91.39" r=".76"/><circle class="cls-7" cx="130.1" cy="93.7" r=".76"/><circle class="cls-7" cx="130.1" cy="95.88" r=".76"/><circle class="cls-7" cx="119.68" cy="100.41" r=".76"/><circle class="cls-7" cx="119.68" cy="102.7" r=".76"/><circle class="cls-7" cx="119.68" cy="105.01" r=".76"/><circle class="cls-7" cx="119.68" cy="107.19" r=".76"/><circle class="cls-7" cx="119.68" cy="109.51" r=".76"/><circle class="cls-7" cx="119.68" cy="111.89" r=".76"/><circle class="cls-7" cx="119.68" cy="114.2" r=".76"/><circle class="cls-7" cx="119.68" cy="116.39" r=".76"/><circle class="cls-7" cx="121.7" cy="96.93" r=".76"/><circle class="cls-7" cx="121.7" cy="99.22" r=".76"/><circle class="cls-7" cx="121.7" cy="101.53" r=".76"/><circle class="cls-7" cx="121.7" cy="103.71" r=".76"/><circle class="cls-7" cx="121.7" cy="106.03" r=".76"/><circle class="cls-7" cx="121.7" cy="108.41" r=".76"/><circle class="cls-7" cx="121.7" cy="110.72" r=".76"/><circle class="cls-7" cx="121.7" cy="112.9" r=".76"/><circle class="cls-7" cx="117.6" cy="101.84" r=".76"/><circle class="cls-7" cx="117.6" cy="104.12" r=".76"/><circle class="cls-7" cx="117.6" cy="106.43" r=".76"/><circle class="cls-7" cx="117.6" cy="108.61" r=".76"/><circle class="cls-7" cx="117.6" cy="110.93" r=".76"/><circle class="cls-7" cx="117.6" cy="113.32" r=".76"/><circle class="cls-7" cx="117.6" cy="115.63" r=".76"/><circle class="cls-7" cx="125.77" cy="99.03" r=".76"/><circle class="cls-7" cx="125.77" cy="101.32" r=".76"/><circle class="cls-7" cx="125.77" cy="103.63" r=".76"/><circle class="cls-7" cx="125.77" cy="105.81" r=".76"/><circle class="cls-7" cx="125.77" cy="108.13" r=".76"/><circle class="cls-7" cx="125.77" cy="110.51" r=".76"/><circle class="cls-7" cx="125.77" cy="112.82" r=".76"/><circle class="cls-7" cx="125.77" cy="115" r=".76"/><circle class="cls-7" cx="127.79" cy="95.55" r=".76"/><circle class="cls-7" cx="127.79" cy="97.84" r=".76"/><circle class="cls-7" cx="127.79" cy="100.15" r=".76"/><circle class="cls-7" cx="127.79" cy="102.33" r=".76"/><circle class="cls-7" cx="127.79" cy="104.65" r=".76"/><circle class="cls-7" cx="127.79" cy="107.03" r=".76"/><circle class="cls-7" cx="127.79" cy="109.34" r=".76"/><circle class="cls-7" cx="127.79" cy="111.52" r=".76"/><circle class="cls-7" cx="123.7" cy="100.45" r=".76"/><circle class="cls-7" cx="123.7" cy="102.74" r=".76"/><circle class="cls-7" cx="123.7" cy="105.05" r=".76"/><circle class="cls-7" cx="123.7" cy="107.23" r=".76"/><circle class="cls-7" cx="123.7" cy="109.55" r=".76"/><circle class="cls-7" cx="123.7" cy="111.94" r=".76"/><circle class="cls-7" cx="123.7" cy="114.24" r=".76"/><circle class="cls-7" cx="123.7" cy="116.43" r=".76"/><circle class="cls-7" cx="132.32" cy="96.68" r=".76"/><circle class="cls-7" cx="132.32" cy="98.96" r=".76"/><circle class="cls-7" cx="132.32" cy="101.27" r=".76"/><circle class="cls-7" cx="132.32" cy="103.45" r=".76"/><circle class="cls-7" cx="132.32" cy="105.77" r=".76"/><circle class="cls-7" cx="134.34" cy="93.19" r=".76"/><circle class="cls-7" cx="134.34" cy="95.48" r=".76"/><circle class="cls-7" cx="134.34" cy="97.79" r=".76"/><circle class="cls-7" cx="134.34" cy="99.97" r=".76"/><circle class="cls-7" cx="134.34" cy="102.29" r=".76"/><circle class="cls-7" cx="134.34" cy="104.67" r=".76"/><circle class="cls-7" cx="130.25" cy="98.1" r=".76"/><circle class="cls-7" cx="130.25" cy="100.38" r=".76"/><circle class="cls-7" cx="130.25" cy="102.69" r=".76"/><circle class="cls-7" cx="130.25" cy="104.88" r=".76"/><circle class="cls-7" cx="130.25" cy="107.19" r=".76"/><circle class="cls-7" cx="130.25" cy="109.58" r=".76"/><circle class="cls-7" cx="130.25" cy="111.89" r=".76"/><circle class="cls-7" cx="119.4" cy="81.47" r=".76"/><circle class="cls-7" cx="119.4" cy="83.76" r=".76"/><circle class="cls-7" cx="119.4" cy="86.07" r=".76"/><circle class="cls-7" cx="119.4" cy="88.25" r=".76"/><circle class="cls-7" cx="119.4" cy="90.57" r=".76"/><circle class="cls-7" cx="119.4" cy="92.95" r=".76"/><circle class="cls-7" cx="119.4" cy="95.26" r=".76"/><circle class="cls-7" cx="119.4" cy="97.45" r=".76"/><circle class="cls-7" cx="121.43" cy="82.59" r=".76"/><circle class="cls-7" cx="121.43" cy="84.77" r=".76"/><circle class="cls-7" cx="121.43" cy="87.09" r=".76"/><circle class="cls-7" cx="121.43" cy="89.47" r=".76"/><circle class="cls-7" cx="121.43" cy="91.78" r=".76"/><circle class="cls-7" cx="121.43" cy="93.96" r=".76"/><circle class="cls-7" cx="117.33" cy="82.9" r=".76"/><circle class="cls-7" cx="117.33" cy="85.18" r=".76"/><circle class="cls-7" cx="117.33" cy="87.49" r=".76"/><circle class="cls-7" cx="117.33" cy="89.67" r=".76"/><circle class="cls-7" cx="117.33" cy="91.99" r=".76"/><circle class="cls-7" cx="117.33" cy="94.38" r=".76"/><circle class="cls-7" cx="117.33" cy="96.69" r=".76"/><circle class="cls-7" cx="117.33" cy="98.87" r=".76"/><circle class="cls-7" cx="30.77" cy="113.03" r=".76"/><circle class="cls-7" cx="32.41" cy="109.36" r=".76"/><circle class="cls-7" cx="32.41" cy="111.65" r=".76"/><circle class="cls-7" cx="32.6" cy="113.86" r=".76"/><circle class="cls-7" cx="29.08" cy="114.36" r=".76"/><circle class="cls-7" cx="36.75" cy="111.06" r=".76"/><circle class="cls-7" cx="36.75" cy="113.34" r=".76"/><circle class="cls-7" cx="38.77" cy="107.57" r=".76"/><circle class="cls-7" cx="38.77" cy="109.86" r=".76"/><circle class="cls-7" cx="38.77" cy="112.17" r=".76"/><circle class="cls-7" cx="38.77" cy="114.35" r=".76"/><circle class="cls-7" cx="34.68" cy="112.48" r=".76"/><circle class="cls-7" cx="30.36" cy="74.45" r=".76"/><circle class="cls-7" cx="28.29" cy="73.69" r=".76"/><circle class="cls-7" cx="28.29" cy="75.87" r=".76"/><circle class="cls-7" cx="36.91" cy="72.09" r=".76"/><circle class="cls-7" cx="34.84" cy="73.51" r=".76"/><circle class="cls-7" cx="20.22" cy="103.83" r=".76"/><circle class="cls-7" cx="20.6" cy="106.02" r=".76"/><circle class="cls-7" cx="26.22" cy="111.64" r=".76"/><g class="cls-9"><path class="cls-1" d="M118.55,73.78c.11,3.19-1.53,5.49-2.25,7.14-.21.48.14,1,.65,1,4.39-.04,19.56,1.19,17.93,20.05-.44,5.07-2.98,8.96-5.07,11.26-1.39,1.53-3.36,2.4-5.43,2.4H29.4c-4.66,0-9.56-4.22-10.09-8.84-.43-3.76-.5-11.31,6.22-15.33.33-.2.46-.6.28-.94-.91-1.75-5.83-11.54,3.31-17"/></g><circle class="cls-5" cx="59.48" cy="89.49" r="2.49"/><circle class="cls-8" cx="94.3" cy="89.42" r="2.49"/><path class="cls-2" d="M61.4,105.51h-6.14c-.55,0-1-.45-1-1h0c0-.55.45-1,1-1h5.51c.92,0,1.68-.74,1.7-1.66l.11-4.65c.06-2.29,1.92-4.11,4.21-4.11h3.99c.55,0,1,.45,1,1h0c0,.55-.45,1-1,1h-3.71c-1.36,0-2.47,1.09-2.51,2.45l-.12,4.99c-.04,1.66-1.4,2.98-3.05,2.98Z"/><path class="cls-2" d="M87.4,92.89h-6.14c-.55,0-1,.45-1,1h0c0,.55.45,1,1,1h5.51c.92,0,1.68.74,1.7,1.66l.11,4.65c.06,2.29,1.92,4.11,4.21,4.11h3.99c.55,0,1-.45,1-1h0c0-.55-.45-1-1-1h-3.71c-1.36,0-2.47-1.09-2.51-2.45l-.12-4.99c-.04-1.66-1.4-2.98-3.05-2.98Z"/><path class="cls-5" d="M74.82,103.73c-1.04,0-1.94-.1-2.59-.2-.58-.09-.95-.67-.8-1.24h0c.13-.5.6-.82,1.11-.74,1.8.28,6.02.56,8.94-2.09.37-.34.94-.33,1.31,0h0c.45.4.45,1.1,0,1.51-2.48,2.25-5.6,2.78-7.98,2.78Z"/><path class="cls-1" d="M122.93,82.73s21.86-8.71-5.95-23.76c0,0-8.95-28-26.86-26.29,0,0-7.57,1.48-12.76,5.14-2.63,1.85-5.28,1.6-6.99,1.1-.95-.28-1.81-.8-2.61-1.39-5.1-3.82-11.97-4.51-11.97-4.51-17.9-1.71-26.86,26.29-26.86,26.29-27.81,15.05-5.71,21.9-5.71,21.9"/><path class="cls-2" d="M22.65,76.08h0c-.24-.5-.03-1.11.48-1.35,25.13-11.54,68.4-9.23,99.01-.85.54.15.84.7.69,1.24h0c-.15.53-.69.84-1.22.69-30.26-8.28-72.96-10.61-97.65.74-.5.23-1.08.02-1.31-.47Z"/><polygon class="cls-3" points="32.74 53.2 114.27 53.01 116.98 58.97 28.93 58.97 32.74 53.2"/><path class="cls-4" d="M63.41,42.73s11.05,7.81,18.48-.95"/><path class="cls-2" d="M88.84,83.97h0c-.38-.44-.32-1.1.14-1.45,1.55-1.18,5.05-3.56,8.9-4.16.59-.09,1.13.34,1.16.93h0c.03.51-.33.96-.83,1.04-3.39.52-6.63,2.72-8.02,3.78-.42.32-1.01.25-1.35-.14Z"/><path class="cls-2" d="M64.26,84.35h0c.38-.44.32-1.1-.14-1.45-1.55-1.18-5.05-3.56-8.9-4.16-.59-.09-1.13.34-1.16.93h0c-.03.51.33.96.83,1.04,3.39.52,6.63,2.72,8.02,3.78.42.32,1.01.25,1.35-.14Z"/></g></svg>