<?xml version="1.0" encoding="UTF-8"?><svg id="Layer_2" xmlns="http://www.w3.org/2000/svg" xmlns:xlink="http://www.w3.org/1999/xlink" viewBox="0 0 150 150"><defs><style>.cls-1,.cls-2,.cls-3,.cls-4,.cls-5,.cls-6{stroke:#2c2c2c;stroke-miterlimit:10;}.cls-1,.cls-4{stroke-width:3px;}.cls-1,.cls-7{fill:#fff;}.cls-8,.cls-2{fill:#2c2c2c;}.cls-8,.cls-9,.cls-10,.cls-11,.cls-7{stroke-width:0px;}.cls-12{opacity:.97;}.cls-3{fill:#f9c7d7;}.cls-9{fill:#2c2c2c;}.cls-4,.cls-5{fill:#a0d1f9;}.cls-10{fill:url(#radial-gradient-2);}.cls-6{fill:none;}.cls-11{fill:url(#radial-gradient);}</style><radialGradient id="radial-gradient" cx="48.29" cy="82.79" fx="48.29" fy="82.79" r="4.53" gradientUnits="userSpaceOnUse"><stop offset="0" stop-color="#fcc"/><stop offset=".32" stop-color="#ffd8d8"/><stop offset=".89" stop-color="#fff7f7"/><stop offset="1" stop-color="#fff"/></radialGradient><radialGradient id="radial-gradient-2" cx="95.46" cy="82.98" fx="95.46" fy="82.98" r="4.33" xlink:href="#radial-gradient"/></defs><g id="Layer_11"><path class="cls-4" d="M23.73,103.41l-.2,10.69c-.02,1.2.98,2.15,2.17,2.07,13.14-.87,80.79-5.69,94.53-13.02l-96.51.25Z"/><path class="cls-5" d="M127.95,97.65s3.26-2.77,6.38-3.09c1.18-.12,1.95,1.29,1.2,2.2-1.26,1.52-3.89,3.32-9.23,2.79l1.65-1.9Z"/><path class="cls-5" d="M125.92,100.19s4.53,0,6.87,1.42c.79.48.54,1.71-.37,1.87-2.08.36-4.89-.07-6.98-2.79"/><circle class="cls-7" cx="27.13" cy="113.06" r=".79"/><circle class="cls-7" cx="27.22" cy="110.19" r=".79"/><circle class="cls-7" cx="29.4" cy="111.58" r=".79"/><circle class="cls-7" cx="31.73" cy="113.09" r=".79"/><circle class="cls-7" cx="31.82" cy="110.23" r=".79"/><circle class="cls-7" cx="29.43" cy="109" r=".79"/><circle class="cls-7" cx="34.22" cy="111.09" r=".79"/><circle class="cls-7" cx="36.55" cy="112.6" r=".79"/><circle class="cls-7" cx="36.64" cy="109.73" r=".79"/><circle class="cls-7" cx="34.25" cy="108.51" r=".79"/><circle class="cls-7" cx="38.82" cy="111.12" r=".79"/><circle class="cls-7" cx="41.14" cy="112.63" r=".79"/><circle class="cls-7" cx="41.23" cy="109.77" r=".79"/><circle class="cls-7" cx="38.85" cy="108.54" r=".79"/><circle class="cls-7" cx="43.6" cy="108.76" r=".79"/><circle class="cls-7" cx="45.93" cy="110.26" r=".79"/><circle class="cls-7" cx="43.69" cy="111.76" r=".79"/><circle class="cls-7" cx="46.02" cy="107.4" r=".79"/><circle class="cls-7" cx="43.63" cy="106.17" r=".79"/><circle class="cls-7" cx="48.2" cy="108.79" r=".79"/><circle class="cls-7" cx="50.53" cy="110.3" r=".79"/><circle class="cls-7" cx="48.29" cy="111.79" r=".79"/><circle class="cls-7" cx="50.62" cy="107.43" r=".79"/><circle class="cls-7" cx="48.23" cy="106.21" r=".79"/><circle class="cls-7" cx="53.02" cy="108.3" r=".79"/><circle class="cls-7" cx="55.35" cy="109.8" r=".79"/><circle class="cls-7" cx="53.11" cy="111.3" r=".79"/><circle class="cls-7" cx="55.44" cy="106.94" r=".79"/><circle class="cls-7" cx="53.05" cy="105.71" r=".79"/><circle class="cls-7" cx="57.61" cy="108.33" r=".79"/><circle class="cls-7" cx="59.94" cy="109.84" r=".79"/><circle class="cls-7" cx="60.03" cy="106.97" r=".79"/><circle class="cls-7" cx="57.64" cy="105.75" r=".79"/><circle class="cls-7" cx="62.39" cy="108.51" r=".79"/><circle class="cls-7" cx="64.72" cy="110.02" r=".79"/><circle class="cls-7" cx="64.81" cy="107.15" r=".79"/><circle class="cls-7" cx="62.42" cy="105.93" r=".79"/><circle class="cls-7" cx="66.99" cy="108.55" r=".79"/><circle class="cls-7" cx="69.32" cy="110.05" r=".79"/><circle class="cls-7" cx="69.41" cy="107.19" r=".79"/><circle class="cls-7" cx="67.02" cy="105.96" r=".79"/><circle class="cls-7" cx="71.81" cy="108.05" r=".79"/><circle class="cls-7" cx="74.14" cy="109.56" r=".79"/><circle class="cls-7" cx="74.23" cy="106.69" r=".79"/><circle class="cls-7" cx="71.84" cy="105.47" r=".79"/><circle class="cls-7" cx="76.41" cy="108.08" r=".79"/><circle class="cls-7" cx="78.82" cy="106.73" r=".79"/><circle class="cls-7" cx="76.44" cy="105.5" r=".79"/><circle class="cls-7" cx="80.92" cy="107.99" r=".79"/><circle class="cls-7" cx="83.33" cy="106.63" r=".79"/><circle class="cls-7" cx="80.95" cy="105.4" r=".79"/><circle class="cls-7" cx="85.51" cy="108.02" r=".79"/><circle class="cls-7" cx="87.93" cy="106.66" r=".79"/><circle class="cls-7" cx="85.54" cy="105.44" r=".79"/><circle class="cls-7" cx="89.67" cy="107.72" r=".79"/><circle class="cls-7" cx="92.77" cy="106.79" r=".79"/><circle class="cls-7" cx="90.46" cy="105.33" r=".79"/><circle class="cls-7" cx="97.54" cy="105.55" r=".79"/><circle class="cls-7" cx="94.77" cy="105.27" r=".79"/><circle class="cls-7" cx="103.25" cy="105.4" r=".79"/><circle class="cls-7" cx="100.24" cy="105.75" r=".79"/><circle class="cls-7" cx="102" cy="102.44" r=".79"/><circle class="cls-7" cx="99.61" cy="101.21" r=".79"/><circle class="cls-7" cx="106.6" cy="102.47" r=".79"/><circle class="cls-7" cx="104.21" cy="101.25" r=".79"/><circle class="cls-7" cx="111.42" cy="101.98" r=".79"/><circle class="cls-7" cx="109.03" cy="100.75" r=".79"/><circle class="cls-7" cx="116.01" cy="102.01" r=".79"/><circle class="cls-7" cx="113.63" cy="100.79" r=".79"/><circle class="cls-7" cx="29.29" cy="105.83" r=".79"/><circle class="cls-7" cx="27.05" cy="107.32" r=".79"/><circle class="cls-7" cx="26.99" cy="101.74" r=".79"/><circle class="cls-7" cx="33.89" cy="105.86" r=".79"/><circle class="cls-7" cx="31.65" cy="107.35" r=".79"/><circle class="cls-7" cx="31.59" cy="101.77" r=".79"/><circle class="cls-7" cx="38.71" cy="105.37" r=".79"/><circle class="cls-7" cx="36.47" cy="106.86" r=".79"/><circle class="cls-7" cx="38.8" cy="102.5" r=".79"/><circle class="cls-7" cx="36.41" cy="101.28" r=".79"/><circle class="cls-7" cx="41.07" cy="106.89" r=".79"/><circle class="cls-7" cx="43.39" cy="102.54" r=".79"/><circle class="cls-7" cx="41.01" cy="101.31" r=".79"/><circle class="cls-7" cx="50.49" cy="101.46" r=".79"/><circle class="cls-7" cx="55.08" cy="101.5" r=".79"/><g class="cls-12"><path class="cls-1" d="M20.56,77.78c.33-.2.46-.6.28-.94-1.43-2.75-6.44-14.57,7.46-24.03,9.42-6.41,18.22-2.91,21.53-1.13.52.28,1.14-.15,1.04-.74-.67-3.99-1.06-14.38,12.51-16.72,14.1-2.43,17.47,6.97,18.21,10.14.11.47.64.71,1.05.46,3.21-1.92,14.71-7.7,23.96,1.46,8.88,8.8,6.05,17.94,4.73,20.97-.21.48.14,1,.65,1,4.39-.04,19.56,1.19,17.93,20.05-.44,5.07-2.98,8.96-5.07,11.26-1.39,1.53-3.36,2.4-5.43,2.4H24.43c-4.66,0-9.56-4.22-10.09-8.84-.43-3.76-.5-11.31,6.22-15.33Z"/></g><circle class="cls-8" cx="54.51" cy="75.82" r="2.49"/><circle class="cls-9" cx="89.33" cy="75.74" r="2.49"/><rect class="cls-2" x="61.16" y="82.84" width="21.05" height="2" rx="1" ry="1"/><line class="cls-2" x1="61.16" y1="83.84" x2="82.2" y2="83.84"/><path class="cls-3" d="M71.49,83.94s-1.34,6.69,4.86,6.67c5.5-.02,4.1-6.81,4.1-6.81l-8.95.14Z"/><path class="cls-6" d="M76.58,88.22s-.95-1.83.1-4.31"/><circle class="cls-11" cx="48.29" cy="82.79" r="4.53"/><circle class="cls-10" cx="95.46" cy="82.98" r="4.33"/></g></svg>