<?xml version="1.0" encoding="UTF-8"?><svg id="Layer_4" xmlns="http://www.w3.org/2000/svg" xmlns:xlink="http://www.w3.org/1999/xlink" viewBox="0 0 150 150"><defs><style>.cls-1{fill:#fff;stroke-width:3px;}.cls-1,.cls-2,.cls-3{stroke:#2c2c2c;stroke-miterlimit:10;}.cls-4,.cls-5,.cls-6,.cls-7,.cls-8{stroke-width:0px;}.cls-4,.cls-2{fill:#2c2c2c;}.cls-9{opacity:.97;}.cls-5{fill:#fcc;}.cls-2{stroke-width:.5px;}.cls-6{fill:#2c2c2c;}.cls-7{fill:url(#radial-gradient-2);}.cls-3{fill:none;}.cls-8{fill:url(#radial-gradient);}</style><radialGradient id="radial-gradient" cx="50.09" cy="94.28" fx="50.09" fy="94.28" r="4.53" gradientUnits="userSpaceOnUse"><stop offset="0" stop-color="#fcc"/><stop offset=".32" stop-color="#ffd8d8"/><stop offset=".89" stop-color="#fff7f7"/><stop offset="1" stop-color="#fff"/></radialGradient><radialGradient id="radial-gradient-2" cx="97.26" cy="94.46" fx="97.26" fy="94.46" r="4.33" xlink:href="#radial-gradient"/></defs><path class="cls-5" d="M87.78,56.78s.07-14.74,8.09-21.06c1.09-.86,2.65-.81,3.67.13,3.16,2.89,9.65,10.29,10.27,22.78"/><path class="cls-5" d="M109.21,56.33s13.83-4.72,22.44.67c1.26.79,1.72,2.4,1.12,3.76-1.76,4.01-6.65,12.39-18.08,17"/><g class="cls-9"><path class="cls-1" d="M23.35,90.72c.33-.2.46-.6.28-.94-1.43-2.75-6.44-14.57,7.46-24.03,9.42-6.41,18.22-2.91,21.53-1.13.52.28,1.14-.15,1.04-.74-.67-3.99-1.06-14.38,12.51-16.72,14.1-2.43,17.47,6.97,18.21,10.14.11.47.64.71,1.05.46,3.21-1.92,14.71-7.7,23.96,1.46,8.88,8.8,6.05,17.94,4.73,20.97-.21.48.14,1,.65,1,4.39-.04,19.56,1.19,17.93,20.05-.44,5.07-2.98,8.96-5.07,11.26-1.39,1.53-3.36,2.4-5.43,2.4H27.22c-4.66,0-9.56-4.22-10.09-8.84-.43-3.76-.5-11.31,6.22-15.33Z"/></g><circle class="cls-4" cx="57.3" cy="88.75" r="2.49"/><circle class="cls-6" cx="92.12" cy="88.68" r="2.49"/><circle class="cls-8" cx="50.09" cy="94.28" r="4.53"/><circle class="cls-7" cx="97.26" cy="94.46" r="4.33"/><path class="cls-2" d="M76.34,98.1c-3.42.62-6.42-1.99-6.42-5.28,0-.03,0-.06,0-.1h0c0-.3.24-.54.54-.55h0s9.72,0,9.72,0c.3,0,.54.23.54.53h0c.01.14,0,.13-.01.39-.17,2.46-1.94,4.57-4.38,5.01ZM71.22,93.25c-.1,0-.18.09-.16.19.31,2.08,2.11,3.67,4.27,3.67s3.97-1.6,4.27-3.67c.01-.1-.07-.19-.16-.19h-8.22Z"/><path class="cls-3" d="M55.67,88.67s-1.97.19-2.16-3.05"/><path class="cls-3" d="M93.52,88.18s1.97.19,2.16-3.05"/></svg>