<?xml version="1.0" encoding="UTF-8"?><svg id="Layer_2" xmlns="http://www.w3.org/2000/svg" viewBox="0 0 150 150"><defs><style>.cls-1{fill:#f9c7d7;}.cls-1,.cls-2,.cls-3,.cls-4,.cls-5{stroke-width:0px;}.cls-6{fill:none;stroke-width:3px;}.cls-6,.cls-7{stroke:#2c2c2c;stroke-miterlimit:10;}.cls-2,.cls-7{fill:#2c2c2c;}.cls-8{opacity:.97;}.cls-7{stroke-width:.5px;}.cls-3{fill:#ffe773;}.cls-4{fill:#a0d1f9;}.cls-5{fill:#aa52bf;}</style></defs><g id="Layer_9"><path class="cls-4" d="M41.03,87.69l.06.16c.23.63.18,1.35-.21,1.98-.54.87-1.63,1.27-2.6.96-1.31-.42-1.94-1.87-1.39-3.09l1.92-4.28c.12-.26.48-.25.58.02l1.63,4.26Z"/><path class="cls-4" d="M112.23,87.22l-.06.16c-.23.63-.18,1.35.21,1.98.54.87,1.63,1.27,2.6.96,1.31-.42,1.94-1.87,1.39-3.09l-1.92-4.28c-.12-.26-.48-.25-.58.02l-1.63,4.26Z"/><path class="cls-4" d="M100.99,96.17l-.06.16c-.23.63-.18,1.35.21,1.98.54.87,1.63,1.27,2.6.96,1.31-.42,1.94-1.87,1.39-3.09l-1.92-4.28c-.12-.26-.48-.25-.58.02l-1.63,4.26Z"/><path class="cls-4" d="M52.27,96.65l.06.16c.23.63.18,1.35-.21,1.98-.54.87-1.63,1.27-2.6.96-1.31-.42-1.94-1.87-1.39-3.09l1.92-4.28c.12-.26.48-.25.58.02l1.63,4.26Z"/><g class="cls-8"><path class="cls-6" d="M22.95,84.53c.33-.2.46-.6.28-.94-1.43-2.75-6.44-14.57,7.46-24.03,9.42-6.41,18.22-2.91,21.53-1.13.52.28,1.14-.15,1.04-.74-.67-3.99-1.06-14.38,12.51-16.72,14.1-2.43,17.47,6.97,18.21,10.14.11.47.64.71,1.05.46,3.21-1.92,14.71-7.7,23.96,1.46,8.88,8.8,6.05,17.94,4.73,20.97-.21.48.14,1,.65,1,4.39-.04,19.56,1.19,17.93,20.05-.44,5.07-2.98,8.96-5.07,11.26-1.39,1.53-3.36,2.4-5.43,2.4H26.82c-4.66,0-9.56-4.22-10.09-8.84-.43-3.76-.5-11.31,6.22-15.33Z"/><path class="cls-5" d="M22.49,66.57h94.11s-.41,4.33-.41,4.33l-95.94-.06s2.24-4.66,2.24-4.27Z"/><path class="cls-3" d="M25.15,62.31h91.01l.55,4.29-94.79-.02s3.24-4.66,3.24-4.27Z"/><path class="cls-1" d="M20.36,70.83h93.68l2.35,3.99-96.6.41s.57-4.79.57-4.4Z"/><path class="cls-4" d="M19.77,75.17l102.13-.4,6.83,4.67-108.49.08s-.3-4.74-.46-4.35Z"/></g><path class="cls-2" d="M52.44,81.5c-.25-.26.07-.61.47-.53l7.07,1.53c.69.27.64,1.05-.08,1.26l-6.05,1.56c-.8.24-1.5-.47-1.02-1,.02-.02.05-.04.08-.06l2.16-1c.15-.07.16-.24.02-.32l-2.64-1.46Z"/><path class="cls-2" d="M96.56,81.42c.25-.26-.07-.61-.47-.53l-7.07,1.53c-.69.27-.64,1.05.08,1.26l6.05,1.56c.8.24,1.5-.47,1.02-1-.02-.02-.05-.04-.08-.06l-2.16-1c-.15-.07-.16-.24-.02-.32l2.64-1.46Z"/><path class="cls-7" d="M75.93,91.91c-3.42.62-6.42-1.99-6.42-5.28,0-.03,0-.06,0-.1h0c0-.3.24-.54.54-.55h0s9.72,0,9.72,0c.3,0,.54.23.54.53h0c.01.14,0,.13-.01.39-.17,2.46-1.94,4.57-4.38,5.01ZM70.82,87.07c-.1,0-.18.09-.16.19.31,2.08,2.11,3.67,4.27,3.67s3.97-1.6,4.27-3.67c.01-.1-.07-.19-.16-.19h-8.22Z"/><path class="cls-4" d="M21.28,78.4c1.93,0,1.93-3,0-3s-1.93,3,0,3h0Z"/><path class="cls-4" d="M21.39,79.29c1.93,0,1.93-3,0-3s-1.93,3,0,3h0Z"/><path class="cls-4" d="M21.37,79.43c1.93,0,1.93-3,0-3s-1.93,3,0,3h0Z"/><path class="cls-4" d="M19.66,75.21s.03,2.83.52,4.35h2.65l-2.08-4.35s-1.09.03-1.09,0Z"/><path class="cls-1" d="M21.23,75.19l-1.55.03s-.05-2.34.58-4.4h1.18l-.21,4.38Z"/><path class="cls-5" d="M20.26,70.82s.51-2.42,1.66-4.25h2.12l-1.01,4.23h-2.71"/><path class="cls-3" d="M21.91,66.57s1.98-3.28,3.24-4.27h4.43l-5.54,4.27h-2.12Z"/><path class="cls-4" d="M121.82,74.77l.83.06s4.14,1.21,7,4.62h-1s-6.83-4.67-6.83-4.67Z"/><path class="cls-1" d="M116.39,74.82h6.25s-4.49-1.46-7.1-1.34l.84,1.34Z"/><path class="cls-1" d="M115.55,73.48l.74-2.64s-.37,1.8-.74,2.64Z"/><polyline class="cls-1" points="116.29 70.83 114.04 70.83 115.55 73.48"/><path class="cls-5" d="M116.27,70.83c.45-1.72.44-4.24.44-4.24h-.27s-.3,4.23-.3,4.23h.13Z"/><path class="cls-3" d="M116.71,66.59s-.03-3.01-.55-4.28l.54,4.26"/></g></svg>