<?xml version="1.0" encoding="UTF-8"?><svg id="Layer_2" xmlns="http://www.w3.org/2000/svg" xmlns:xlink="http://www.w3.org/1999/xlink" viewBox="0 0 150 150"><defs><style>.cls-1{fill:#f9c7d7;}.cls-1,.cls-2,.cls-3,.cls-4,.cls-5,.cls-6,.cls-7,.cls-8{stroke-width:0px;}.cls-2,.cls-9,.cls-10{fill:#2c2c2c;}.cls-3{fill:#e5bdbd;}.cls-4{fill:#2c2c2c;}.cls-9{stroke-width:.75px;}.cls-9,.cls-10{stroke:#2c2c2c;}.cls-9,.cls-10,.cls-11{stroke-miterlimit:10;}.cls-5{fill:url(#radial-gradient-2);}.cls-10{stroke-width:2px;}.cls-6{fill:url(#radial-gradient);}.cls-7{fill:#a0d1f9;}.cls-8{fill:#4881a8;}.cls-11{fill:none;stroke:#000;stroke-width:3px;}</style><radialGradient id="radial-gradient" cx="35.18" cy="103.69" fx="35.18" fy="103.69" r="4.53" gradientUnits="userSpaceOnUse"><stop offset="0" stop-color="#fcc"/><stop offset=".32" stop-color="#ffd8d8"/><stop offset=".89" stop-color="#fff7f7"/><stop offset="1" stop-color="#fff"/></radialGradient><radialGradient id="radial-gradient-2" cx="82.36" cy="103.88" fx="82.36" fy="103.88" r="4.33" xlink:href="#radial-gradient"/></defs><g id="Layer_19"><path class="cls-10" d="M57.16,107.49c-2.32-.02-4.26-1.48-4.42-3.38-.01-.15-.16-.26-.33-.27-.21,0-.38.14-.36.32.2,2.21,2.41,3.95,5.11,3.96h-.01c2.7,0,4.91-1.75,5.11-3.96.02-.18-.15-.32-.36-.32-.18,0-.32.12-.33.27-.16,1.89-2.1,3.36-4.42,3.38"/><circle class="cls-6" cx="35.18" cy="103.69" r="4.53"/><circle class="cls-5" cx="82.36" cy="103.88" r="4.33"/><circle class="cls-2" cx="40.12" cy="96.11" r="2.49"/><circle class="cls-4" cx="74.94" cy="96.04" r="2.49"/><path class="cls-11" d="M130.96,102.52c-1.25-15.05-15.05-17.33-15.05-17.33,0,0,6.46-11.99,1.78-23h-3.05c-1.2,0-2.25-.44-3.09-1.13-1.71-.04-3.35-1.08-4.41-2.49-1.62-2.15-2.96-4.49-4.44-6.73-.67-1.02-.83-2.18-.61-3.29-21.47-8.62-34.75,11.69-34.75,11.69,0,0-18.1-9.33-31.62,2.48-5.58,4.87-8.57,12.19-8.38,21.9,0,0-15.24,6.29-12.95,21.33,2.29,15.05,16.38,16.95,16.38,16.95h84.19s17.71.19,16-20.38Z"/><path class="cls-3" d="M133.48,67.34c0,.06.02.7-.02.71.03-.23.04-.26.01-.1-.01.07-.02.13-.04.2-.02.1-.04.2-.07.3-.04.13-.08.26-.12.39-.02.05-.03.1-.05.14-.04.1-.02.06.05-.12.01.08-.14.29-.18.36-.05.09-.1.18-.16.26-.04.06-.07.11-.11.17-.1.14-.08.11.06-.08-.05.01-.15.17-.18.21-.04.04-.09.09-.13.13-.12.1-.09.08.09-.06-.04,0-.2.13-.23.15-.23.16.33-.09,0,0s.29.02.01,0c.25.04.29.05.14.02-.11-.04-.11-.03.03.02.25.15-.06-.06-.1-.07.19.16.23.18.12.08l-.06-.06s-.08-.08-.11-.12c.15.19.17.23.08.1-.04-.07-.09-.15-.13-.22-.06-.11-.17-.47-.03-.03-.14-.46-.29-.9-.38-1.38-.02-.1-.03-.22-.05-.32.1.42,0-.03,0-.13-.02-.25-.03-.5-.02-.75,0-.23.02-.46.04-.7.04-.4-.05.23,0-.08.03-.14.05-.28.08-.42.16-.77-.22-1.66-1.05-1.85-.75-.17-1.67.23-1.85,1.05-.22,1.04-.3,2.11-.17,3.17s.35,2.18.92,3.1c.69,1.13,1.83,1.75,3.16,1.52,1.12-.19,2.01-1.14,2.56-2.07.62-1.06.94-2.31.91-3.53-.02-.78-.67-1.54-1.5-1.5s-1.52.66-1.5,1.5h0Z"/><path class="cls-1" d="M108.93,64.91c1.93,0,1.93-3,0-3s-1.93,3,0,3h0Z"/><path class="cls-1" d="M101.53,54.64c.81,1.39,1.91,2.58,2.64,4.02.09.18.18.37.26.55.07.17.08.19.03.06.04.09.08.19.11.28.13.33.25.67.37,1.01.26.78.49,1.57.71,2.36s1.07,1.3,1.85,1.05,1.28-1.04,1.05-1.85c-.47-1.65-.96-3.3-1.72-4.84s-1.88-2.72-2.71-4.15c-.39-.68-1.37-.98-2.05-.54s-.96,1.33-.54,2.05h0Z"/><path class="cls-1" d="M101.45,54.38c.25.29.5.58.74.88.06.07.12.15.18.22-.15-.19.04.06.07.1.11.15.23.31.34.46.46.64.88,1.31,1.26,2s.71,1.36,1.02,2.06c-.06-.15-.02-.05.02.04s.07.18.11.27c.08.2.15.4.23.6.14.38.26.77.38,1.16.23.75,1.06,1.3,1.85,1.05s1.29-1.04,1.05-1.85c-1.02-3.38-2.77-6.47-5.11-9.11-.52-.59-1.6-.57-2.12,0-.58.63-.56,1.49,0,2.12h0Z"/><path class="cls-1" d="M105.24,56.53c1.93,0,1.93-3,0-3s-1.93,3,0,3h0Z"/><path class="cls-1" d="M60.55,64.15c1.93,0,1.93-3,0-3s-1.93,3,0,3h0Z"/><path class="cls-1" d="M67.48,37.5c-2.25.81-4.41,1.86-6.41,3.17-.66.43-.99,1.35-.54,2.05.42.65,1.35,1,2.05.54.93-.61,1.89-1.17,2.89-1.67.49-.24.99-.47,1.49-.69.1-.04.07-.03-.11.04.07-.03.13-.06.2-.08.13-.06.27-.11.41-.16.27-.11.55-.21.82-.31.74-.26,1.31-1.03,1.05-1.85-.23-.73-1.05-1.33-1.85-1.05h0Z"/><path class="cls-1" d="M57.37,37.48c1.93,0,1.93-3,0-3s-1.93,3,0,3h0Z"/><path class="cls-1" d="M58.24,33.5c-.19.05-.38.08-.58.11l.4-.05c-.31.04-.63.06-.94.04-.21,0-.4.04-.58.13-.19.06-.35.16-.48.31-.15.14-.25.3-.31.48-.09.18-.14.37-.13.58l.05.4c.07.25.2.47.39.66l.3.23c.23.14.49.2.76.2.26,0,.52,0,.78-.03.38-.04.76-.09,1.14-.18.2-.05.37-.14.51-.27.16-.11.29-.25.39-.42.11-.17.17-.36.18-.56.04-.2.04-.4-.03-.6l-.15-.36c-.13-.23-.31-.4-.54-.54l-.36-.15c-.27-.07-.53-.07-.8,0h0Z"/><path class="cls-1" d="M28.29,65.6c1.15.58,2.26,1.25,3.31,2,.26.18.52.37.77.57-.09-.07-.18-.14-.04-.03.06.05.12.09.18.14.13.11.26.21.39.32.5.42.99.86,1.46,1.32.56.55,1.57.6,2.12,0s.6-1.54,0-2.12c-1.97-1.91-4.22-3.54-6.67-4.78-.7-.35-1.66-.21-2.05.54-.36.68-.21,1.67.54,2.05h0Z"/><path class="cls-1" d="M85.42,33.39c.29.02.58.04.88.06.15.01.29.03.44.04.36.04-.14-.04.18.03.28.06.57.11.85.19.14.04.27.09.41.14-.26-.1.11.06.16.09.12.06.24.13.35.21.13.09.25.2.06.04.17.15.34.3.49.47.08.08.15.17.22.26.22.25-.13-.2.04.06.14.21.28.41.41.63,1.01,1.69,1.69,3.65,3.26,4.93.61.5,1.54.64,2.12,0,.5-.55.65-1.59,0-2.12-.21-.17-.41-.35-.59-.55-.08-.08-.15-.18-.23-.26.24.26,0,0-.05-.06-.3-.41-.55-.86-.79-1.31-.47-.88-.89-1.8-1.45-2.63-.67-.98-1.51-1.87-2.6-2.38-1.32-.61-2.74-.75-4.17-.84-.78-.05-1.53.72-1.5,1.5.04.85.66,1.45,1.5,1.5h0Z"/><path class="cls-1" d="M95.36,37.09c-1.62-2.01-3.3-3.97-5.05-5.86-.53-.58-1.59-.58-2.12,0-.57.62-.57,1.5,0,2.12,1.75,1.9,3.44,3.85,5.05,5.86.23.28.72.44,1.06.44.37,0,.81-.16,1.06-.44s.46-.66.44-1.06c-.02-.42-.18-.73-.44-1.06h0Z"/><path class="cls-1" d="M26.89,51.62h-2.41c-.38,0-.79.17-1.06.44s-.46.69-.44,1.06.14.79.44,1.06.65.44,1.06.44h2.41c.38,0,.79-.17,1.06-.44s.46-.69.44-1.06-.14-.79-.44-1.06-.65-.44-1.06-.44h0Z"/><path class="cls-1" d="M32.06,69.86c-3.88-3.24-7.47-8-6.33-13.37.17-.79-.23-1.62-1.05-1.85-.75-.2-1.68.25-1.85,1.05-1.36,6.45,2.33,12.3,7.1,16.29.62.52,1.51.61,2.12,0,.53-.53.62-1.6,0-2.12h0Z"/><path class="cls-8" d="M88.67,76.38c5.89-.62,11.7-1.84,17.3-3.76s10.62-4.5,16.05-6.45c2.75-.99,5.56-1.77,8.43-2.31,1.69-.32,5.21-1.24,6.51.43s-1.24,4.81-2.25,6.12c-1.43,1.85-3.07,3.56-4.85,5.08-4.15,3.54-9.3,5.95-14.81,6.09l.4,2.95c5.23-2.13,11.08-2.96,15.93-5.98,4.1-2.56,7.59-6.79,6.57-11.9-.44-2.18-1.42-4.95-3.11-6.48-2.26-2.05-5.23-1.05-7.84-.39-5.92,1.48-11.78,3.21-17.56,5.17-3.29,1.12-6.56,2.31-9.8,3.58-2.17.85-6.66,1.9-5.87,5.11.2.83,1.07,1.2,1.85,1.05,3.17-.62,6.32.29,9.28,1.36s5.61,2.15,8.42,3.23,4.98,1.91,7.87.93c2.7-.91,5.52-1.98,7.91-3.56,2.13-1.4,3.97-3.3,4.85-5.74.79-2.18.61-5.11-1.39-6.6s-4.75-.74-6.89.16c-2.63,1.11-5.22,2.3-7.85,3.41-6.15,2.61-12.52,4.96-19.19,5.78-1.86.23-1.98,3.05,0,3,3.51-.08,7.01.17,10.46.85,2.51.5,5.62,1.18,7.13,3.46l.54-2.05c-1.82,1.2-2.7-4.6-3.52-5.21.22.16-.63.29.09.26.28-.01.61-.17.88-.25.66-.19,1.31-.39,1.96-.6,1.23-.39,2.44-.82,3.65-1.27,4.77-1.8,9.35-4.05,13.68-6.74l-2.05-.54c1.5,2.55-1.63,5.4-3.48,6.75-2.74,1.99-6,3.62-9.16,4.82-.9.34-2.96.87-2.51-.8.33-1.26,2-1.94,3.08-2.41,3.44-1.53,6.95-2.91,10.43-4.36l-1.46-.39-.21-.54-.22.23c-.26.11-.59.47-.83.64-.53.39-1.06.77-1.61,1.14-1.09.75-2.2,1.46-3.34,2.14s-2.18,1.25-3.29,1.82c-.59.31-1.19.6-1.79.89-.33.16-.66.32-1,.46-.12.06-.24.11-.36.14-.48.1-.29.34.56.72l-.44,1.06.16-.19c1.28-1.44-.84-3.57-2.12-2.12-1.54,1.74.18,3.92,2.28,3.5,1.12-.23,2.21-.87,3.23-1.38,1.13-.55,2.24-1.14,3.33-1.77,2.1-1.2,4.13-2.52,6.08-3.97,1.51-1.12,3.52-3.1,1.69-4.91-.34-.34-.98-.59-1.46-.39-3.71,1.55-7.47,3.02-11.14,4.66-2.6,1.16-5.53,3.54-4.39,6.76,1.36,3.85,5.86,2.12,8.47.92,3.34-1.53,6.75-3.17,9.5-5.66,2.52-2.29,4.53-6.03,2.61-9.3-.4-.68-1.36-.97-2.05-.54-5.85,3.64-12.17,6.47-18.79,8.38-1.31.38-2.71.81-2.96,2.35s.98,3.29,1.57,4.62,1.11,2.74,2.36,3.56,2.87.92,4.13.09c.65-.43,1.01-1.35.54-2.05-1.83-2.75-4.98-3.97-8.09-4.67-3.96-.88-8.04-1.23-12.09-1.13v3c5.19-.64,10.19-2.05,15.07-3.91,2.46-.93,4.89-1.96,7.31-3.01,2.27-.98,4.53-2.18,6.88-2.94.78-.25,1.91-.63,2.7-.21.93.5.87,1.91.68,2.79-.54,2.37-2.61,4.08-4.62,5.23-2.15,1.23-4.67,2.33-7.07,2.94s-5.07-1.02-7.26-1.87c-5.55-2.14-11.41-5.11-17.52-3.91l1.85,1.05c.16.64-.25.25.09.17.16-.04.46-.28.64-.37.55-.27,1.15-.48,1.72-.7,1.17-.47,2.35-.93,3.53-1.38,2.36-.9,4.74-1.76,7.14-2.57,4.8-1.64,9.65-3.11,14.55-4.42,1.15-.31,2.3-.61,3.46-.9,1.22-.31,2.81-.98,4.08-.76,1.8.32,2.55,3.21,2.97,4.68,1.2,4.2-1.93,7.56-5.31,9.57-4.56,2.72-10,3.49-14.88,5.48-1.45.59-1.44,2.99.4,2.95,5.51-.14,10.75-2.23,15.13-5.53,2.19-1.65,4.19-3.53,5.95-5.65,1.64-1.97,3.51-4.24,4.02-6.82s-.77-4.97-3.33-5.81-5.51-.15-8.06.37c-6.43,1.32-12.31,4.07-18.34,6.57-6.96,2.89-14.24,4.87-21.74,5.66-1.9.2-1.92,3.2,0,3h0Z"/><path class="cls-7" d="M46.68,39.18c.05-.15.86-1.53.84-1.56-.54.19-.75.18-.65-.03.03-.09.06-.02.07.19-.06.21.01.55,0,.77-.08,1.21-.46,2.37-.63,3.56h2.89c-.35-1.16-.71-2.31-1.06-3.47-.5-1.63-2.87-1.3-2.95.4-.15,3.47.26,6.93,1.19,10.27.39,1.39,2.54,1.46,2.89,0,.5-2.05.89-4.12,1.33-6.18s.82-4.35,1.75-6.22c1.21-2.42,4.96.34,6.4,1.23l-.3-2.36c.21-.18-.27.17-.38.24-.25.15-.52.29-.79.41-.56.26-1.16.46-1.76.61-.38.09-1.06.09-1.26.14-.22.06-.14-.14-.14-.04,0,0,.3.35.26.35-.09,0,.08-.51.11-.62.36-1.2-1.11-2.44-2.2-1.69-3.01,2.04-2.41,5.66-1.88,8.77.74,4.34.02,8.98-1.24,13.15l2.89.8c1.01-7.32,2.3-14.59,4.25-21.72l-2.95-.4c-.62,6.3-1.25,12.6-1.87,18.91-.14,1.44,2.21,2.1,2.8.76,2.3-5.3,3.2-10.92,3.97-16.6l-2.95-.4c-.76,5.89-1.52,11.79-2.27,17.68-.22,1.7,2.51,1.99,2.95.4,1.56-5.75,3.12-11.49,4.69-17.24l-2.95-.4c-.35,4.9-.39,9.8-.11,14.71.09,1.58,2.66,2.16,2.95.4.84-5.09,1.68-10.19,2.51-15.28l-2.95-.4c.17,4.45.42,8.98,2.09,13.17.64,1.61,2.74,1.31,2.95-.4.53-4.25,1.05-8.5,1.58-12.74h-3c-.23,4.29-.25,8.88,2.4,12.5.81,1.11,2.85.86,2.8-.76-.18-4.8.47-9.5,1.88-14.09l-2.95-.4c-.26,4.52-.44,9.01.28,13.5.23,1.43,2.66,1.43,2.89,0,.8-5,1.59-10.01,2.39-15.01l-2.95-.4c-.13,4.96-.26,9.93-.4,14.89-.04,1.65,2.68,2.1,2.95.4.9-5.63,1.8-11.26,2.7-16.9l-2.95-.4c.16,6.16.31,12.33.47,18.49.05,1.95,2.84,1.9,3,0,.5-6.13,1.06-12.27,2.78-18.2l-2.95-.4c-.08,5.94.56,11.87,1.89,17.66.44,1.92,3.18,1.06,2.89-.8-.89-5.8-1.72-11.74-.41-17.55l-2.95-.4c.37,4.87.74,9.74,1.11,14.62.14,1.91,3.12,1.94,3,0-.29-4.87-.14-9.76.52-14.6l-2.95-.4c.62,5,1.24,10,1.86,15,.19,1.52,2.59,2.22,2.95.4,1.04-5.3-1.94-10.79.08-15.91h-2.89c1.32,6.05,2.65,12.1,3.97,18.14.3,1.38,2.67,1.48,2.89,0,.88-5.74-.15-11.38-1.81-16.89l-2.89.8c2.56,8.1,5.12,16.19,7.67,24.29.58,1.85,3.29,1.09,2.89-.8-1.12-5.35-2.51-10.73-3.26-16.14-.48-3.52-.99-7.92-4.4-9.88-1.29-.74-2.83.75-2.05,2.05,4.25,7.16,7.39,14.87,9.28,22.98.35,1.5,2.47,1.35,2.89,0,1.2-3.82.12-7.59-1.49-11.1-1.49-3.25-3.84-6.51-4.28-10.13l-2.8.76c4.2,7.54,8.6,15.14,15.26,20.81,1.23,1.05,3.3-.28,2.36-1.82-4.61-7.46-9.29-15.13-16.78-20.04-.99-.65-2.22.22-2.26,1.3s.18,2.36,1.22,2.96c.88.51,2.01.29,2.73-.4.68-.65.95-1.63.57-2.51-.52-1.2-1.84-1.48-3.02-1.56-.84-.06-1.46.73-1.5,1.5-.23,4.27.76,8.75,2.99,12.43,1.95,3.21,5.27,5.21,7.39,8.28l1.3-2.26c-4.63-.24-8.92-1.38-13.26-2.95-.74-.27-1.49-.54-2.18-.92-.43-.24-.67-.64-1-.89-.02-.13-.07-.1-.14.09-.25.12-.24.13.01.04.16.05.41,0,.59.04.66.11,1.25.41,1.81.78,3.01,2,3.83,5.88,4.86,9.09,1.3,4.08,3.12,7.89,6,11.11l.66-2.51c-4.75,1.25-9.5,2.5-14.25,3.75-1.87.49-1.07,3.39.8,2.89,4.75-1.25,9.5-2.5,14.25-3.75,1.14-.3,1.4-1.69.66-2.51-2.82-3.15-4.38-6.98-5.59-10.98-.96-3.18-2.11-6.6-4.72-8.83-1.76-1.5-5.96-3.56-7.59-.73-.72,1.25-.27,2.95.7,3.93,1.08,1.1,2.65,1.66,4.07,2.18,4.68,1.71,9.33,2.89,14.33,3.15,1.09.06,1.93-1.34,1.3-2.26-1.98-2.86-4.98-4.8-6.96-7.63-2.32-3.31-3.22-7.57-3-11.56l-1.5,1.5c1.1.07-.34-.54.43-1.14.85-.65,1.02,1.05,1.07-.36l-2.26,1.3c7.03,4.61,11.38,11.97,15.7,18.97l2.36-1.82c-6.48-5.51-10.71-12.86-14.79-20.2-.68-1.22-2.98-.77-2.8.76.44,3.63,2.29,6.8,3.91,10.02s3.12,6.77,1.98,10.42h2.89c-1.95-8.34-5.2-16.34-9.58-23.7l-2.05,2.05c2.73,1.58,2.73,6.18,3.13,8.92.75,5.13,2.08,10.24,3.14,15.32l2.89-.8c-2.56-8.1-5.12-16.19-7.67-24.29-.58-1.83-3.45-1.06-2.89.8,1.49,4.94,2.6,10.13,1.81,15.3h2.89c-1.32-6.05-2.65-12.1-3.97-18.14-.35-1.59-2.4-1.25-2.89,0-2.09,5.3.96,10.57-.08,15.91l2.95.4c-.62-5-1.24-10-1.86-15-.09-.75-.5-1.37-1.3-1.47-.66-.09-1.55.34-1.65,1.07-.7,5.11-.93,10.24-.63,15.4h3c-.37-4.87-.74-9.74-1.11-14.62-.12-1.59-2.55-2.15-2.95-.4-1.44,6.36-.57,12.78.41,19.14l2.89-.8c-1.27-5.54-1.86-11.18-1.79-16.86.02-1.71-2.48-2.02-2.95-.4-1.78,6.19-2.36,12.61-2.88,19h3c-.16-6.16-.31-12.33-.47-18.49-.04-1.61-2.67-2.13-2.95-.4-.9,5.63-1.8,11.26-2.7,16.9l2.95.4c.13-4.96.26-9.93.4-14.89.04-1.65-2.68-2.1-2.95-.4-.8,5-1.59,10.01-2.39,15.01h2.89c-.67-4.2-.42-8.47-.18-12.7.1-1.74-2.46-1.97-2.95-.4-1.49,4.82-2.18,9.85-1.99,14.89l2.8-.76c-2.35-3.22-2.19-7.19-1.99-10.99.11-1.97-2.77-1.86-3,0-.53,4.25-1.05,8.5-1.58,12.74l2.95-.4c-1.58-3.96-1.82-8.16-1.98-12.37-.06-1.6-2.66-2.14-2.95-.4-.84,5.09-1.68,10.19-2.51,15.28l2.95.4c-.28-4.9-.25-9.81.11-14.71.12-1.71-2.51-2-2.95-.4-1.56,5.75-3.12,11.49-4.69,17.24l2.95.4c.76-5.89,1.52-11.79,2.27-17.68.21-1.66-2.72-2.07-2.95-.4-.72,5.38-1.48,10.87-3.66,15.89l2.8.76c.62-6.3,1.25-12.6,1.87-18.91.17-1.71-2.51-1.99-2.95-.4-1.95,7.13-3.24,14.41-4.25,21.72-.26,1.86,2.32,2.71,2.89.8,1.23-4.07,1.91-8.51,1.53-12.76-.17-1.87-1.76-6.02.21-7.36l-2.2-1.69c-.71,2.42.74,4.28,3.26,4.1,1.99-.15,4.17-.98,5.7-2.26.77-.64.46-1.89-.3-2.36-2.64-1.63-6.82-4.13-9.61-1.4-1.59,1.56-2.05,4.32-2.56,6.4-.64,2.64-1.1,5.32-1.74,7.96h2.89c-.87-3.1-1.22-6.25-1.09-9.47l-2.95.4c.35,1.16.71,2.31,1.06,3.47.39,1.28,2.68,1.56,2.89,0,.3-2.17,1.54-5.01.13-7.01-.79-1.12-2.24-1.57-3.44-.8-1.11.71-1.69,2.08-2.11,3.27-.65,1.82,2.25,2.61,2.89.8h0Z"/><path class="cls-7" d="M37.63,60.19c-2,2.73-4,5.46-6,8.19l2.8.76c-.13-3.31-.61-6.53-2.07-9.53-.94-1.93-2.59-5.04-5.18-4.6-5.01.84-.07,8,2.52,9.02,3.34,1.31,6.56-1.95,9.12-3.6.89-.58,1.05-2.05,0-2.59-1.46-.75-2.98-1.27-4.61-1.5-1-.15-2.29.65-1.85,1.85.08.22.91,2.53.75,2.55-.11.01.31-.59.31-.54,0-.05.03.05-.25.07-.48.02-.96.04-1.44.02-3.75-.15-7.5-.51-11.24-.76-1.28-.09-2,1.71-1.06,2.56,4.09,3.68,8.65,6.39,13.65,8.64,2.28,1.03,4.65,2.1,7.2,2.13,1.17.02,2.86-.13,3.83-.86.43-.33.74-.85,1.07-1.27.59-.74.6-1.82-.3-2.36-1.98-1.17-4.41-.59-6.3.48-1.21.68-2.77,2.13-3.21,3.48-.63,1.95.89,3.86,2.58,4.69,2.03,1,4.39-.48,5.69-2.01.66-.78.53-1.77-.3-2.36-.09-.06-.58-.52-.68-.92-.21-.8-1.07-1.24-1.85-1.05-1.04.25-2.35,1.02-2.88,2s.13,2.24.84,2.95c.89.9,2.13,1.27,3.37,1.15,1.63-.15,2.77-.93,3.9-2.04,3.8-3.74,6.15-8.56,9.03-12.98,1.31-2.01,2.78-3.97,4.67-5.47,2.08-1.66,4.42-2.28,6.98-2.79,6.58-1.33,13.48-1.03,19.96.72,7.15,1.93,13.75,5.64,18.98,10.9l.66-2.51c-.05.02-.4.18-.45.14,0,0,.14-.04.16,0,.03.09.29.24.35.35.04.07.06-.15.02.12-.02.12-.04.25-.11.35s-1.41.68-1.36.42c0,0,.44.69.51.81l.9-2.2c-.69.15-1.39.29-2.09.4l1.16.15c-1.96-1.4-2.63-3.92-3.64-5.97-1.31-2.66-3.16-4.14-5.86-5.3-5.86-2.5-12.22-2.78-18.5-2.68-5.11.08-9.66,1.4-13.76,4.52-3.81,2.89-6.82,6.61-9.8,10.32-1.67,2.08-3.32,4.16-5.12,6.13-.96,1.05-1.96,1.92-3.05,2.82-1.28,1.05-2.49,2.41-4.09,2.98l1.16,2.74c1.23-.6,2.55-1.14,3.71-1.87.93-.58,1.02-2.03,0-2.59-.73-.4-1.35-.09-2.01.23-1.08.53-2.15,1.08-3.22,1.63-1.58.81-.44,3.08,1.16,2.74,4.63-.98,9.42-1.08,14.14-1.01,5,.07,9.96-.58,14.89-1.4,9.72-1.62,19.56-4.28,28.41-8.7,2.27-1.14,5.62-2.67,6.26-5.38.43-1.82-.6-3.38-1.78-4.65-1.46-1.57-3.13-2.95-4.92-4.14-3.6-2.41-7.71-4.01-11.85-5.22-2.23-.65-4.44-1.28-6.77-1.32s-4.62.18-6.88.59c-5.43.98-10.59,3.16-15.5,5.64-1.13.57-2.16,1.07-3,2.04-.73.84-1.34,1.78-1.87,2.75-1.12,2.04-2.02,4.15-3.76,5.76l2.36,1.82c2.16-4.79,6.99-7.44,11.37-9.9l-2.05-2.05c-3.86,6.32-7.71,12.63-11.57,18.95-1.01,1.66,1.54,3.12,2.59,1.51,4.58-7.05,9.19-14.1,14.53-20.61l-2.36-1.82c-1.94,3.44-5.96,4.92-9.17,6.88-1.62.99-3.42,2.17-4.55,3.74s-.66,4.26.42,5.83c1.3,1.9,3.65,1.65,5.73,1.77,2.68.15,5.36.13,8.04-.04,5.45-.34,10.85-1.29,16.14-2.62,6.09-1.53,12.03-3.58,17.9-5.78,1.82-.68,1.11-3.22-.8-2.89-2.37.41-4.77.88-7.02,1.75-1.11.43-2.92,1.15-2.48,2.7s2.31,1.23,3.49.95c2.47-.59,4.85-1.63,7.16-2.65,1.66-.74.39-3.01-1.16-2.74-11.28,1.95-21.08,8.17-31.72,12.04-1.62.59-3.25,1.19-4.92,1.63s-3.7.96-5.42.47c-.65-.18-.92-.46-1.36-.93-.13-.14-.06-.06-.04-.13,0,.02-.06.38-.09.33-.02-.04-.04-.04.04-.07.05-.02.06-.1.37-.24.14-.07.24-.11.5-.2.68-.22,1.39-.36,2.1-.45,1.6-.21,3.23-.24,4.84-.2,1.22.03,2.52.08,3.37.3l-.36-2.74c-2.82,2.12-6.58,2.05-9.68,3.62-1.69.86-3.06,2.28-4.68,3.27s-3.49,1.9-5.28,2.77h1.51l-1.22-.83-.36,2.74c8.49-3.29,18.16-1.44,26.46-5.34,6.19-2.91,12.93-4.88,18.57-8.87,3.09-2.19,5.75-4.97,7.24-8.49.34-.81.16-2.01-.9-2.2-15.48-2.87-30.37,4.39-44.07,10.67-1.53.7-.45,3.31,1.16,2.74,12.46-4.42,26.09-4.12,38.25-9.54,1.57-.7.45-3.21-1.16-2.74-11.18,3.25-22.37,6.5-33.55,9.76-1.85.54-1.08,3.38.8,2.89,12.46-3.22,26.24-2.32,37.41-9.56.89-.58,1.06-2.05,0-2.59-5.98-3.03-12.42-3.58-18.98-2.66s-12.68,2.93-19.1,4c-1.66.28-1.28,3.07.4,2.95,7.93-.57,15.86-1.15,23.79-1.72l-.4-2.95c-6.09,1.42-12.28,2.31-18.53,2.67l.4,2.95c6.46-2.07,23.56-.58,21.03-11.88-.17-.74-1.11-1.32-1.85-1.05-3.02,1.12-5.57,3.09-8.32,4.72-2.6,1.54-5.7,3-8.71,1.71l.3,2.36c1.64-1.61,4.09-2.17,6.28-2.61,2.34-.48,4.72-.71,7.06-1.19l-.8-2.89c-10.38,3.16-21,5.82-31.93,5.52l1.3,2.26c1.64-3.88,3.13-7.84,3.68-12.04s0-8.18-1.65-12.04l-.23,1.82c3.59-4.3,10.69-2.1,14.95-.1v-2.59c-.45.24-.9.48-1.36.68-.21.08-.65.13-.81.27-.21.04-.22.05-.04.02.69.09,1.05.63,1.07,1.63-.03.15-.1.27-.21.38.04-.04.08-.08.12-.12.01,0-.08.02.19-.11.16-.07.1-.08.39-.14.31-.06.59-.04,1.02.13l-.36-2.74c-5.85,3.14-11.78,6.23-18.4,7.32-1.9.31-1.09,3.2.8,2.89,6.86-1.12,13.06-4.36,19.11-7.62,1.24-.67.76-2.31-.36-2.74-1.67-.65-4.57-.07-5.18,1.88-.36,1.17.53,2.19,1.69,2.23,1.33.05,2.72-.78,3.84-1.38.94-.5,1.02-2.11,0-2.59-5.46-2.56-14.04-4.88-18.59.57-.48.57-.52,1.15-.23,1.82,2.99,7,.79,14.39-2.03,21.05-.44,1.03.06,2.22,1.3,2.26,11.19.31,22.1-2.39,32.73-5.63,1.86-.57,1.09-3.28-.8-2.89-4.85,1-10.89.87-14.66,4.58-.62.61-.6,1.97.3,2.36,3.5,1.51,6.9.85,10.2-.85,3.11-1.61,5.84-4.05,9.14-5.27l-1.85-1.05c.92,4.11-3.58,5.46-6.85,6.18-3.96.87-8.22.77-12.09,2-1.54.49-1.36,3.05.4,2.95,6.51-.37,12.97-1.3,19.32-2.77,1.62-.38,1.31-3.07-.4-2.95-7.93.57-15.86,1.15-23.79,1.72l.4,2.95c11.83-1.97,24.16-7.54,35.77-1.64v-2.59c-10.9,7.07-24.53,6.12-36.69,9.26l.8,2.89c11.18-3.25,22.37-6.5,33.55-9.76l-1.16-2.74c-11.89,5.3-25.34,4.91-37.54,9.24l1.16,2.74c12.85-5.89,27.19-13.06,41.76-10.36l-.9-2.2c-2.6,6.14-8.66,9.35-14.47,11.9-3.01,1.32-6.08,2.5-9.08,3.84-3.92,1.76-7.94,2.5-12.2,2.92-4.98.49-10.01.84-14.72,2.66-1.22.47-1.48,1.98-.36,2.74.39.26.78.6,1.2.81,1.07.53,2.1-.26,3.06-.73,2.19-1.08,4.32-2.26,6.26-3.75.87-.67,1.66-1.35,2.68-1.79s2.06-.68,3.1-.94c2.13-.54,4.29-1.1,6.08-2.44.97-.73,1-2.39-.36-2.74-2.97-.77-17.1-1.38-14.68,4.62,1.74,4.32,7.88,3.04,11.27,2.03,5.26-1.55,10.3-3.86,15.27-6.13,6.61-3.03,13.26-6.04,20.47-7.29l-1.16-2.74c-1.81.8-3.65,1.56-5.56,2.11-.52.15-1.05.31-1.59.38.35-.05-.18,0-.21,0-.17,0-.11,0,.18.03-.16,2.07.05,2.82.63,2.25.07.01-.34.14.03,0,.17-.06.34-.18.5-.25.33-.15,1.01-.37,1.48-.52,1.86-.57,3.77-.96,5.69-1.29l-.8-2.89c-9.35,3.51-18.97,6.69-28.93,7.9-4.95.6-9.95.72-14.91.24-.14-.01-.95-.26-.57-.03.28.18.02-.05,0-.07-.2-.25-.35-.54-.46-.84-.34-.93-.32-1.54.19-2.07,1.2-1.26,2.68-2.19,4.17-3.05,3.48-2.01,7.32-3.8,9.38-7.45.81-1.43-1.24-3.18-2.36-1.82-5.51,6.7-10.28,13.95-15,21.22l2.59,1.51c3.86-6.32,7.71-12.63,11.57-18.95.8-1.31-.77-2.78-2.05-2.05-4.8,2.71-10.08,5.74-12.44,10.98-.68,1.5,1.04,3.04,2.36,1.82,1.42-1.32,2.43-2.94,3.32-4.64.77-1.47,1.49-3.27,2.79-4.38.81-.69,1.98-1.11,2.93-1.57,1.08-.53,2.17-1.04,3.27-1.52,2.04-.89,4.14-1.67,6.27-2.3,4.05-1.19,8.85-2.17,13.02-1.15,3.9.95,7.79,2.15,11.36,4,1.73.9,3.4,1.93,4.91,3.17.71.58,1.38,1.2,2.02,1.85.48.5,1.29,1.17,1.4,1.89.15,1.01-1.24,1.78-1.94,2.21-1.14.7-2.33,1.37-3.53,1.94-8.29,3.88-17.19,6.4-26.19,7.96-5.04.88-10.09,1.51-15.2,1.45s-9.9.09-14.73,1.12l1.16,2.74c.88-.45,1.76-.91,2.65-1.35.18-.09,1.4-.65.7-.37l-1.16-.15h0v-2.59c-1.16.73-2.49,1.27-3.71,1.87-1.51.74-.45,3.32,1.16,2.74,1.35-.48,2.47-1.26,3.57-2.17s2.37-1.85,3.43-2.86c1.75-1.67,3.28-3.58,4.8-5.45,3.08-3.78,6.01-7.76,9.69-11s8.07-5.09,13.1-5.17c6.48-.11,13.19.05,19.1,3.04,2.67,1.35,3.34,4.22,4.62,6.7.6,1.17,1.36,2.29,2.37,3.15.65.55,1.15.89,2.01.8.7-.08,1.4-.25,2.09-.4.97-.22,1.35-1.4.9-2.2-.55-.98-1.33-2.12-2.57-2.19-.94-.05-1.74.61-1.98,1.51-.58,2.23,1.74,3.58,3.65,2.88,1.04-.38,1.51-1.66.66-2.51-8.68-8.73-20.97-13.47-33.25-13.31-3.03.04-6.02.42-9,1-2.46.48-4.76,1.19-6.82,2.66-3.83,2.71-6.23,6.83-8.6,10.78-1.37,2.29-2.76,4.59-4.47,6.64-.81.97-1.82,2.38-3.01,2.87-.84.34-1.78.19-1.94-.6l-.39,1.46c.36-.44.76-.79,1.33-.93l-1.85-1.05c.3,1.16,1.1,2.04,2.06,2.71l-.3-2.36c-.47.56-1.51,1.68-2.31,1.41-.71-.24-1.18-.84-.76-1.38.99-1.28,3.29-2.9,4.91-1.95l-.3-2.36c-.28.35-.54.83-.89,1.11.33-.25.26-.28-.22-.06-.28.08-.56.13-.85.17-.53.06-1.1.05-1.64-.02-2.22-.29-4.28-1.43-6.3-2.31-4.25-1.86-8.17-4.43-11.61-7.53l-1.06,2.56c2.55.18,5.1.35,7.65.53,1.83.13,3.81.48,5.63.15,3.16-.57,2.29-3.62,1.48-5.8l-1.85,1.85c1.37.2,2.66.56,3.9,1.2v-2.59c-1.17.76-2.26,1.64-3.43,2.38-.83.52-2.13,1.35-3.08,1.03-.25-.08.23.18-.08-.05-.13-.1-.25-.23-.37-.34-.3-.29-.59-.61-.86-.93-.53-.63-1.06-1.33-1.38-2.1-.19-.45-.04-.48-.33,0-.17.29-.14.06-.13.1-.07.04-.12.03-.13-.02.08.04.15.08.22.13.21.38.68.73.93,1.11.32.48.6.98.86,1.49,1.37,2.65,1.79,5.54,1.9,8.5.06,1.57,1.94,1.93,2.8.76,2-2.73,4-5.46,6-8.19,1.14-1.56-1.46-3.06-2.59-1.51h0Z"/><path class="cls-7" d="M51.34,45.64c3.29,5.2,6.38,10.52,9.24,15.96,1.46,2.78,2.86,5.59,4.2,8.43.94,2,1.72,5.21,4.04,6.06,1.22.45,2.48.11,3.68-.22,1.44-.39,2.86-.82,4.26-1.3,2.71-.93,5.37-2.02,7.94-3.28s5.06-2.67,7.44-4.24c2.25-1.49,4.53-3.21,7.18-3.89.59-.15,1.17-.24,1.78-.24.16,0,.94.14,1.01.08l-.18-1.04-.26.17c-.58.03-1.53.54-2.09.72-.76.24-1.52.47-2.28.69-3.05.9-6.13,1.71-9.22,2.43-6.06,1.42-12.18,2.56-18.31,3.59s-12.27,2.41-18.42,1.97c-3.09-.22-6.11-.96-9.07-1.84-2.72-.81-5.41-1.74-7.95-3.01s-5.14-3.02-7.07-5.3c-.91-1.09-1.7-2.33-2.23-3.65-.26-.65-.45-1.33-.59-2.01-.06-.31-.07-.62-.13-.92.03-.41,0-.5-.07-.27-.12.18-.01.23.31.13.69.25,1.74.13,2.47.21.83.09,1.67.21,2.49.35,1.61.27,3.22.63,4.8,1.05,3.14.85,6.16,2.02,9.06,3.49v-2.59c-3,1.71-4.81,4.58-5.86,7.8-.49,1.53-.82,3.1-1.1,4.67-.15.83-.19,1.8-.56,2.57-.16.33-.45.77-.86.81-.46.05-.63-.32-.91-.66-2.84-3.54-5.47-7.26-7.93-11.07-.59-.91-1.17-1.83-1.73-2.75s-1.05-2.23-1.78-2.98c-.02-.02-.19-.5-.29-.28-.08.17,0-.03.25.04.41.11.84.18,1.25.29,1.11.31,2.22.62,3.33.94,5.24,1.47,10.47,2.94,15.71,4.41l.8-2.89c-.31-.05-.63-.09-.94-.14l1.1,1.45c0-.26.11-.47.31-.64l-2.56-1.06c0,1.28-1.03,2.29-1.79,3.23s-1.38,1.84-1.75,2.95c-.64,1.93.29,5.32,2.93,4.7,2.1-.5,3.62-3.47,4.33-5.31.86-2.21.99-4.6.46-6.91-.15-.65-.81-1.09-1.45-1.1-6.85-.12-13.69-.24-20.54-.36-.88-.02-1.82.99-1.45,1.9,2.87,7.03,6.94,13.43,12.06,19.05.81.89,2.73.25,2.56-1.06-.67-5.15-1.66-10.25-3.02-15.26-.5-1.86-3.4-1.07-2.89.8,1.29,4.75,2.28,9.58,2.92,14.46l2.56-1.06c-4.75-5.2-8.62-11.19-11.29-17.72l-1.45,1.9c6.85.12,13.69.24,20.54.36l-1.45-1.1c.34,1.48.28,2.98-.16,4.43-.23.78-.57,1.51-.99,2.21-.08.14-1.41,1.85-1.43,1.81.45.24.63.23.53-.02-.04-.12-.05-.25-.02-.39.1-.38.19-.67.37-1.02.37-.71.91-1.3,1.41-1.93,1.09-1.35,2.03-2.75,2.01-4.55,0-1.25-1.67-2.04-2.56-1.06-.75.82-1.11,1.66-1.19,2.76-.04.59.49,1.36,1.1,1.45.31.05.63.09.94.14,1.86.28,2.71-2.36.8-2.89-5.55-1.56-11.11-3.12-16.66-4.68-1.88-.53-4.62-1.81-6.48-.56-2.36,1.59-.47,4.31.57,6.05,2.76,4.59,5.78,9.03,9.03,13.28,1.36,1.78,2.71,4.33,5.33,3.83,2.45-.46,3.33-2.69,3.72-4.89.75-4.22,1.65-9.04,5.7-11.35.94-.53,1.01-2.07,0-2.59-5.66-2.89-11.78-4.66-18.09-5.33-1.33-.14-3.14-.53-4.37.23s-1.2,2.19-1.03,3.48c.36,2.71,1.56,5.19,3.24,7.33,3.75,4.77,9.51,7.36,15.15,9.18,3.23,1.05,6.53,1.9,9.91,2.31s6.7.22,10.04-.21c6.78-.88,13.55-2.09,20.26-3.4s13.39-2.85,19.93-4.88c1.38-.43,3.05-.76,4.13-1.8.9-.88,1.22-2.33.23-3.29-.93-.9-2.57-.94-3.78-.85-1.5.11-2.9.55-4.27,1.16-2.86,1.28-5.34,3.27-8.02,4.88s-5.44,3.01-8.31,4.21c-1.64.68-3.32,1.3-5.01,1.84-.85.28-1.7.53-2.56.77-.61.17-1.78.73-2.42.51-.53-.18-.76-.91-.98-1.38-.4-.85-.78-1.71-1.18-2.56-.8-1.71-1.62-3.4-2.46-5.09-3.45-6.91-7.26-13.64-11.39-20.16-1.03-1.63-3.63-.12-2.59,1.51h0Z"/><path class="cls-7" d="M47.49,60.61c-.47,3.32-1.68,6.42-3.52,9.21l2.05-.54c.15.08.34.68.32.68s.12-.4.13-.42c.13-.31.38-.81.56-1.19.43-.91.88-1.81,1.35-2.7.96-1.83,2-3.61,3.1-5.35l-2.8-.76c.09,2.05-.37,4.14-1.47,5.89-.4.64-.94,1.25-1.67,1.55-.06.03-.33.1-.46.12.25-.04-.3,0-.37,0-.16,0-.42-.09-.61-.18-.06-.03-.12-.07-.18-.11.12.1.11.09-.02-.02-.12-.13-.12-.13-.02,0-.08-.15-.09-.15-.02.01-.04-.17-.05-.16-.02.02,0-.16,0-.18-.01-.07.09-.15.05-.2.21-.41.47-.64,1.36-1.24,1.99-1.84,1.55-1.49,2.88-3.24,3.89-5.14.38-.72.18-1.63-.54-2.05-.68-.4-1.67-.18-2.05.54-.91,1.73-2.08,3.26-3.5,4.61s-3.5,2.77-2.89,5.03c.47,1.78,2.51,2.75,4.24,2.62,2.09-.16,3.74-1.62,4.76-3.37,1.25-2.14,1.85-4.7,1.74-7.18-.06-1.49-1.99-2.03-2.8-.76-1.34,2.12-2.59,4.3-3.71,6.54-.56,1.11-1.16,2.24-1.59,3.41s-.21,2.53.94,3.13c.75.39,1.59.17,2.05-.54,1.97-2.98,3.33-6.38,3.82-9.93.11-.8-.2-1.61-1.05-1.85-.7-.19-1.73.24-1.85,1.05h0Z"/><path class="cls-7" d="M96.24,52.46c1.75,2.11,3.49,4.22,5.24,6.32l2.55,3.08c.96,1.16,2.21,2.09,3.74,1.31.53-.27.92-1.11.69-1.69-1.54-3.81-3.36-7.49-5.51-10.99-.42-.69-1.34-.95-2.05-.54s-.96,1.36-.54,2.05c2.01,3.28,3.77,6.71,5.21,10.28l.69-1.69c.24-.12.46-.08.7,0-.04-.01-.21-.12-.08-.03-.2-.15-.36-.38-.52-.57l-1.14-1.38-2.29-2.76c-1.52-1.84-3.05-3.68-4.57-5.51-.52-.62-1.59-.54-2.12,0-.62.62-.52,1.5,0,2.12h0Z"/><path class="cls-8" d="M85.22,76.93c4.9,1.18,9.94,1.56,14.95,1.87,2.51.16,5.04.23,7.54.56,1.91.25,4.48.84,4.79,3.09.11.81,1.14,1.23,1.85,1.05.87-.23,1.16-1.05,1.05-1.85-.75-5.48-8.28-5.4-12.36-5.67-5.7-.37-11.44-.6-17.02-1.94-1.88-.45-2.68,2.44-.8,2.89h0Z"/><path class="cls-3" d="M134.23,62.3c1.93,0,1.93-3,0-3s-1.93,3,0,3h0Z"/><path class="cls-8" d="M113.97,81.56c-4.18-2.88-9.15-4.44-14.19-4.79-.81-.06-1.5.73-1.5,1.5,0,.86.69,1.44,1.5,1.5,4.53.32,8.93,1.8,12.68,4.39.67.46,1.66.12,2.05-.54.44-.74.13-1.59-.54-2.05h0Z"/><path class="cls-8" d="M135.66,60.81c-2.54-.21-5.07-.09-7.59.26-.34.05-.73.41-.9.69-.19.32-.27.8-.15,1.16.28.86,1.01,1.16,1.85,1.05-.33.05.16-.02.22-.03.14-.02.28-.03.41-.05.3-.03.6-.06.9-.08.58-.05,1.15-.08,1.73-.09,1.18-.03,2.35,0,3.53.1.78.06,1.53-.74,1.5-1.5-.04-.87-.66-1.43-1.5-1.5h0Z"/><path class="cls-7" d="M59.96,37.31c1.93,0,1.93-3,0-3s-1.93,3,0,3h0Z"/><path class="cls-7" d="M61.3,52.4c1.93,0,1.93-3,0-3s-1.93,3,0,3h0Z"/><path class="cls-7" d="M75.79,44.97c-.18,2.14-.36,4.28-.56,6.42-.17,1.82-.14,3.9-1.03,5.55-1.45,2.69-4.78,3.97-7.44,5.1-1.61.68-.43,3.13,1.16,2.74,3.86-.94,7.73-1.89,11.59-2.83,3.6-.88,7.47-1.46,10.83-3.04.87-.41.96-1.74.3-2.36-.52-.49-1.09-.78-1.78-.99-.31-.09-1.26-.12-1.44-.35-.03-.04.52-2.03.59-2.4.19-.97.34-1.96.39-2.96.16-3.28-1.18-6.74-4.29-8.19-1.53-.72-2.98,1.04-1.82,2.36,2.82,3.2,5.86,6.18,9.11,8.94,1.46,1.24,3.6-.87,2.12-2.12-3.25-2.76-6.29-5.74-9.11-8.94l-1.82,2.36c3.49,1.64,2.96,5.79,2.28,8.92-.33,1.5-.81,3.13.53,4.28.45.39,1.01.6,1.59.76.45.12,1.17.14,1.52.47l.3-2.36c-1.59.75-3.35,1.09-5.05,1.5-1.85.45-3.7.9-5.55,1.36-3.7.9-7.41,1.81-11.11,2.71l1.16,2.74c3.2-1.35,6.77-2.98,8.52-6.17,1.02-1.87,1.15-4,1.35-6.07.23-2.47.44-4.94.65-7.4.16-1.92-2.84-1.91-3,0h0Z"/><path class="cls-7" d="M93.82,46.98c.97,1.9,2.45,3.46,3.82,5.07,1.2,1.41,2.3,2.92,2.65,4.76.15.8,1.11,1.25,1.85,1.05.83-.23,1.2-1.05,1.05-1.85-.84-4.36-4.88-6.87-6.77-10.56-.37-.72-1.38-.93-2.05-.54-.73.43-.91,1.33-.54,2.05h0Z"/><path class="cls-7" d="M69.92,68.59l-13.19.8c-1.7.1-3.93-.19-5.23,1.1-.63.62-1.08,1.02-1.96,1.29-.99.31-1.96.36-2.98.27v3c4.22-.23,5.47-5.14,6.62-8.42.77-2.2,1.46-4.42,2.05-6.68s.98-4.4.36-6.63c-.39-1.38-2.56-1.47-2.89,0-.83,3.64-1.66,7.28-2.5,10.92-.2.87.43,1.99,1.45,1.9,2-.17,3.58-1.18,4.93-2.64,1.59-1.72,2.97-3.66,4.43-5.49,1.19-1.5-.92-3.63-2.12-2.12s-2.48,3.16-3.75,4.71c-.89,1.08-1.99,2.41-3.48,2.54l1.45,1.9c.83-3.64,1.66-7.28,2.5-10.92h-2.89c.47,1.7.08,3.37-.36,5.03-.48,1.81-1.02,3.61-1.61,5.39-.56,1.68-1.12,3.37-1.83,4.99-.42.97-1.11,2.44-2.33,2.5-1.95.11-1.91,2.83,0,3s4.04-.18,5.69-1.21c.29-.18.6-.41.85-.64.12-.11.88-.79.44-.61.77-.32,2.13-.14,2.95-.19l13.43-.81c1.92-.12,1.93-3.12,0-3h0Z"/><path class="cls-7" d="M38.33,67.54c-.55-.46-1.04-.97-1.48-1.54l.23.3c-.51-.66-.93-1.37-1.25-2.14l.15.36c-.07-.17-.15-.34-.18-.52l.05.4v-.08c-.02.13-.03.27-.05.4,0-.03.01-.06.03-.09l-.15.36s.03-.06.05-.08l-.23.3s.05-.05.07-.07l-.3.23s.09-.05.14-.07l-.36.15c.05-.02.1-.03.16-.04l-.4.05c.08,0,.15,0,.23,0l-.4-.05c.08.01.15.03.23.07l-.36-.15c.26.13.47.33.72.48.33.21.72.36,1.1.42.84.14,1.62.04,2.45-.11.35-.06.72-.39.9-.69.19-.32.27-.8.15-1.16s-.34-.71-.69-.9c-.38-.2-.74-.22-1.16-.15-.18.03-.35.06-.53.08l.4-.05c-.35.05-.7.07-1.05.03l.4.05c-.19-.03-.38-.07-.56-.14l.36.15c-.33-.15-.59-.41-.91-.58-.55-.3-1.17-.38-1.78-.22-.81.21-1.42.94-1.44,1.78-.02.58.26,1.12.5,1.63.65,1.41,1.66,2.7,2.85,3.7.31.26.64.44,1.06.44.37,0,.81-.16,1.06-.44.51-.56.64-1.58,0-2.12h0Z"/><path class="cls-7" d="M42.3,64.95c.49-1.32.83-3.45-.29-4.54-.6-.58-1.41-.64-2.19-.68-.68-.04-1.04-.08-1.67-.21-1.2-.23-2.4-.62-3.37-1.1-1.16-.57-2.14-1.23-3.02-2.03-.6-.55-1.53-.59-2.12,0-.55.55-.6,1.57,0,2.12,1.82,1.67,4.01,2.88,6.38,3.58,1.18.35,2.41.55,3.63.63.16.01.32.02.48.03.25.01.02-.02.01,0,.19.06.17.04-.04-.07-.25-.11-.38-.31-.4-.62-.05.08.02.36.03.45,0,.6-.09,1.04-.32,1.65-.28.76.32,1.64,1.05,1.85.84.23,1.56-.29,1.85-1.05h0Z"/><path class="cls-7" d="M43.71,69.21c1.93,0,1.93-3,0-3s-1.93,3,0,3h0Z"/><path class="cls-7" d="M30.78,67.44c-.11-.08-.22-.16-.33-.24l.3.23c-.98-.76-1.86-1.63-2.62-2.6l.23.3c-.15-.19-.29-.39-.43-.59-.22-.31-.51-.6-.9-.69-.34-.08-.66-.06-.98.08-.64.27-1.13,1.07-.87,1.77.4,1.07.96,2.02,1.72,2.88.68.77,1.53,1.42,2.44,1.9.35.19.76.26,1.16.15.35-.1.73-.36.9-.69.37-.69.2-1.66-.54-2.05-.4-.21-.77-.45-1.13-.72l.3.23c-.49-.38-.93-.82-1.32-1.31l.23.3c-.37-.49-.68-1.01-.92-1.58l.15.36c-.04-.09-.07-.18-.11-.27l-2.74,1.16c.53.76,1.12,1.49,1.77,2.15s1.39,1.27,2.15,1.82c.3.22.82.24,1.16.15s.73-.36.9-.69c.18-.35.28-.77.15-1.16s-.36-.65-.69-.9h0Z"/><path class="cls-7" d="M24.26,54.93c.82-.48,1.53-.61,2.37-.13.95.53,1.69,1.39,2.55,2.05,1.85,1.41,4.04,2.26,6.19,3.11.75.3,1.65-.33,1.85-1.05.23-.85-.29-1.55-1.05-1.85-2.21-.87-4.33-1.79-6.12-3.38-.95-.84-1.93-1.64-3.17-2.01-1.43-.43-2.89-.07-4.15.67-1.66.98-.15,3.58,1.51,2.59h0Z"/><path class="cls-7" d="M80.51,56.27c1.93,0,1.93-3,0-3s-1.93,3,0,3h0Z"/><path class="cls-7" d="M79.63,54.73c.13.09.26.19.39.29l-.3-.23c.72.56,1.36,1.2,1.92,1.91l-.23-.3c.35.46.67.94.94,1.45.37.69,1.39.97,2.05.54.7-.45.94-1.31.54-2.05-.91-1.69-2.23-3.09-3.79-4.18-.3-.21-.81-.25-1.16-.15s-.73.36-.9.69c-.18.35-.28.77-.15,1.16s.35.66.69.9h0Z"/><path class="cls-7" d="M49.92,77.13c1.93,0,1.93-3,0-3s-1.93,3,0,3h0Z"/><path class="cls-1" d="M87.23,33.85s.09-.01.14,0c.12,0,.06-.01-.17-.04.04.03.17.05.22.06.16.04-.28-.16-.07-.02.07.05.16.12.23.16-.12-.06-.22-.18-.05-.02.06.05.12.11.17.16.12.12.25.25.37.37.56.58,1.13,1.16,1.65,1.77.12.14.24.28.36.43.06.07.12.15.18.22.24.3-.19-.26.04.05s.46.63.66.96c.45.73.91,1.52,1.73,1.89.38.17.74.27,1.16.15.35-.1.73-.36.9-.69.35-.65.23-1.71-.54-2.05-.05-.02-.2-.13-.25-.13l.16.12s-.09-.08-.13-.13c-.05-.05-.24-.19-.06-.06.17.12,0,0-.04-.08-.21-.32-.39-.64-.6-.96-.52-.77-1.11-1.49-1.73-2.18-.55-.61-1.11-1.2-1.69-1.77-.69-.69-1.62-1.3-2.64-1.2-.41.04-.76.14-1.06.44-.26.26-.46.69-.44,1.06.03.75.66,1.58,1.5,1.5h0Z"/><path class="cls-7" d="M86.68,33.47c.18.13.36.26.54.4.22.16-.06-.05.07.05.09.07.18.14.26.21.35.28.68.57,1.01.88.64.58,1.24,1.21,1.81,1.86.13.15.26.3.38.46.07.09.14.17.21.26s.18.23.05.06c.26.35.52.71.76,1.07.55.83,1.07,1.69,1.77,2.41.55.56,1.58.59,2.12,0s.58-1.52,0-2.12c-.08-.08-.16-.17-.24-.25-.07-.07-.2-.24-.07-.07-.14-.18-.27-.37-.4-.56-.25-.38-.49-.76-.74-1.14-.56-.81-1.16-1.6-1.81-2.34-1.25-1.42-2.68-2.67-4.21-3.77-.64-.46-1.7-.13-2.05.54-.41.77-.14,1.56.54,2.05h0Z"/><path class="cls-8" d="M117.59,75.26c1.01-.54,2.03-1.05,3.07-1.52.26-.12.51-.23.77-.34.13-.06.26-.11.39-.17.16-.07.15-.06-.02.01.06-.02.11-.05.17-.07.54-.22,1.08-.44,1.63-.64.73-.28,1.31-1.03,1.05-1.85-.23-.72-1.06-1.34-1.85-1.05-2.3.87-4.55,1.88-6.72,3.04-.69.37-.97,1.39-.54,2.05.45.7,1.31.94,2.05.54h0Z"/><path class="cls-8" d="M109.45,76.51c1.93,0,1.93-3,0-3s-1.93,3,0,3h0Z"/><path class="cls-3" d="M95.53,76.33c1.93,0,1.93-3,0-3s-1.93,3,0,3h0Z"/><path class="cls-8" d="M96.5,76.31c1.93,0,1.93-3,0-3s-1.93,3,0,3h0Z"/><path class="cls-8" d="M131.9,68.17c.22,1.04.44,2.07.66,3.11.08.36.38.72.69.9.32.19.8.27,1.16.15s.71-.34.9-.69c.2-.37.24-.74.15-1.16-.22-1.04-.44-2.07-.66-3.11-.08-.36-.38-.72-.69-.9-.32-.19-.8-.27-1.16-.15s-.71.34-.9.69c-.2.37-.24.74-.15,1.16h0Z"/><path class="cls-8" d="M127,80.38c1.79-.16,3.25-.79,4.7-1.82,1.37-.98,2.68-2.05,3.81-3.29,2.26-2.48,3.87-5.66,3.77-9.08-.05-1.93-3.05-1.93-3,0,.07,2.63-1.16,5.05-2.9,6.96-.88.97-1.88,1.85-2.94,2.63s-2.1,1.48-3.45,1.6c-.81.07-1.5.64-1.5,1.5,0,.76.69,1.57,1.5,1.5h0Z"/><path class="cls-8" d="M94.44,76.17c.7.06,1.38.07,2.07-.07.37-.08.75-.23,1.07-.43.24-.15.45-.34.71-.46l-.36.15.05-.02-1.46-2.51s-.09.07-.13.11l.3-.23c-.56.43-1.22.76-1.86,1.04l.36-.15c-.17.07-.34.13-.52.17-.36.08-.71.38-.9.69s-.27.8-.15,1.16c.26.8,1.03,1.24,1.85,1.05.58-.14,1.13-.43,1.66-.7s1.04-.6,1.52-1l.23-.3c.11-.17.17-.36.18-.56.04-.32,0-.68-.18-.96-.14-.22-.32-.4-.54-.54-.29-.19-.83-.28-1.16-.15s-.58.24-.85.44c-.17.13-.35.24-.54.33l.36-.15c-.21.08-.42.14-.64.17l.4-.05c-.49.06-.98.03-1.46-.02-.36-.03-.81.19-1.06.44s-.46.69-.44,1.06.14.79.44,1.06.64.4,1.06.44h0Z"/><path class="cls-8" d="M105.37,72.17c1.35-1.05,3.06-1.62,4.68-2.2,2.04-.74,4.04-1.57,5.99-2.54.73-.36.93-1.39.54-2.05-.43-.74-1.32-.9-2.05-.54-1.88.93-3.82,1.7-5.79,2.42s-3.83,1.5-5.48,2.79c-.64.5-.52,1.6,0,2.12.63.63,1.48.5,2.12,0h0Z"/><path class="cls-8" d="M113.09,71.93c2.37-1.28,4.75-2.57,7.12-3.85.69-.37.97-1.39.54-2.05-.45-.7-1.31-.94-2.05-.54-2.37,1.28-4.75,2.57-7.12,3.85-.69.37-.97,1.39-.54,2.05.45.7,1.31.94,2.05.54h0Z"/><path class="cls-8" d="M112.96,75.77c1.93,0,1.93-3,0-3s-1.93,3,0,3h0Z"/><path class="cls-8" d="M124.77,81.26c1.55.37,2.98-.15,4.33-.9,1.13-.64,2.23-1.35,3.27-2.13,2.11-1.58,4.03-3.38,5.71-5.42.51-.63.61-1.51,0-2.12-.53-.53-1.61-.63-2.12,0-1.44,1.76-3.06,3.37-4.85,4.76-.87.67-1.79,1.29-2.74,1.86-.77.46-1.86,1.28-2.8,1.06-.79-.19-1.63.25-1.85,1.05s.26,1.66,1.05,1.85h0Z"/><path class="cls-8" d="M133.46,68.22c.4.68.7,1.49.69,2.23l.2-.76-.06.13.54-.54c.28-.17.55-.21.81-.11-.1-.05-.19-.1-.29-.16-.19-.11-.37-.24-.54-.38.07.06-.29-.24-.35-.3-.17-.15-.34-.3-.5-.45-.6-.56-1.27-1.31-1.67-1.84l-2.05,2.05c.89.41,1.73.38,2.65.08.78-.25,1.55-.52,2.32-.79,1.47-.52,3.52-1.16,4-2.86.35-1.22-.46-2.17-1.53-2.58-.29-.11-.6-.18-.9-.24-.18-.04-.36-.07-.54-.13-.1-.03-.1-.03,0,.01-.09-.04-.18-.09-.26-.15l-.13-.09c.11.07.09.05-.04-.06,0,0-.31-.34-.17-.16-.27-.34-.45-.75-.74-1.08-.69-.78-1.83-1.06-2.75-.49-.52.32-.8.89-.72,1.49.07.54.5,1.15,1.07,1.25.61.11,1.22.21,1.82.32.27.05.55.1.82.14.15.03.31.05.46.08.6.13-.15.15-.39-.61.24.77,1.04,1.27,1.85,1.05.76-.21,1.29-1.07,1.05-1.85-.34-1.09-1.24-1.4-2.25-1.58-.85-.15-1.7-.3-2.55-.44l.36,2.74-.67.07-.31-.17c-.06-.08-.06-.08,0,0,.03.04.06.09.08.13.11.18.22.35.34.51.38.51.77.92,1.3,1.29.42.29.93.47,1.43.57.2.04.41.08.62.13.48.12.14.12.04-.11l-.2-.76c-.02-.24.25-.42.13-.33-.1.08-.17.19-.27.26.16-.12-.08.03-.14.07-.11.07-.23.12-.34.18-.05.03-.22.1-.07.04-.12.05-.25.1-.38.15-.29.11-.59.22-.89.33-.56.2-1.13.39-1.7.58-.28.09-.56.19-.84.27-.02,0-.3.08-.31.07-.03-.08.28.06.27.05-.61-.28-1.32-.27-1.82.23-.43.43-.63,1.29-.23,1.82.63.85,1.31,1.66,2.08,2.39s1.57,1.45,2.5,1.88c.65.3,1.37.46,2.02.07.69-.41.9-1.18.81-1.94-.13-1.16-.47-2.25-1.07-3.27-.41-.7-1.35-.95-2.05-.54s-.95,1.35-.54,2.05h0Z"/><path class="cls-8" d="M121.84,63.64c.91-.2,1.78-.5,2.67-.76.44-.13.89-.24,1.34-.32.1-.02.19-.03.29-.05-.46.09-.02,0,.09,0,.23-.02.46-.02.69-.01.79.02,1.54-.71,1.5-1.5-.04-.83-.66-1.47-1.5-1.5-2.05-.06-3.91.81-5.87,1.24-.77.17-1.29,1.1-1.05,1.85.26.81,1.02,1.23,1.85,1.05h0Z"/><path class="cls-8" d="M93.15,74.81c1.93,0,1.93-3,0-3s-1.93,3,0,3h0Z"/><path class="cls-3" d="M135.76,63.12c1.93,0,1.93-3,0-3s-1.93,3,0,3h0Z"/><path class="cls-8" d="M134.73,62.78c1.2-.28,2.6-.12,3.77.09.27.05.5.11.72.22-.16-.08.13.14.05.04-.05-.07.14.23.15.24-.1-.19.14.54.1.3.04.24.04.57.01.77-.14,1.24-.87,2.41-1.43,3.5-.67,1.3-1.34,2.6-2.04,3.88-.39.71-.18,1.63.54,2.05s1.66.18,2.05-.54c.83-1.53,1.63-3.09,2.43-4.64s1.61-3.25,1.44-5.03-1.23-3.25-3.03-3.65-3.78-.54-5.56-.13c-.79.18-1.26,1.09-1.05,1.85.22.81,1.05,1.23,1.85,1.05h0Z"/><path class="cls-8" d="M135.43,64.96c1.93,0,1.93-3,0-3s-1.93,3,0,3h0Z"/><path class="cls-8" d="M136.67,64.53c1.93,0,1.93-3,0-3s-1.93,3,0,3h0Z"/><path class="cls-7" d="M103.17,55.81c.43.79.84,1.59,1.22,2.41.09.2.18.4.27.6.05.11.1.22.15.33.1.23-.07-.18.02.05.17.43.35.86.51,1.29.31.82.58,1.65.83,2.49s.7,1.36,1.57,1.47c.55.07,1.13-.18,1.65-.34.75-.23,1.3-1.06,1.05-1.85s-1.04-1.29-1.85-1.05c-.35.11-.7.23-1.05.31h.8l-.13-.02.66.39c.23.48.29.57.2.28-.03-.09-.06-.19-.08-.28-.06-.19-.12-.37-.17-.56-.1-.32-.21-.65-.33-.97-.23-.67-.49-1.32-.76-1.98-.58-1.4-1.22-2.77-1.95-4.11-.38-.69-1.38-.97-2.05-.54s-.94,1.32-.54,2.05h0Z"/><path class="cls-7" d="M84.4,32.68c1.14,1.75,2.65,3.17,4.09,4.67s2.52,3.35,4.02,4.8c1.12,1.08,2.79-.02,2.51-1.46-.08-.41-.05-.86.07-1.29.14-.5.48-.85.74-1.31.91-1.63-.7-2.95-1.68-4.07-.83-.96-1.62-2.02-2.61-2.82-1.15-.92-2.46-1.28-3.89-1.53-.74-.13-1.47.13-1.77.87s-.03,1.45.61,1.87c2.19,1.44,4.4,2.88,6.36,4.64.88.79,1.77,1.62,2.36,2.65.65,1.14.88,2.48,1.14,3.76.16.79,1.1,1.25,1.85,1.05.83-.23,1.21-1.05,1.05-1.85-.29-1.47-.63-2.94-1.34-4.28s-1.71-2.34-2.77-3.3c-2.19-1.99-4.66-3.63-7.13-5.26l-1.16,2.74c.97.16,2.02.3,2.8.95.9.74,1.62,1.75,2.38,2.63.2.23.4.46.6.69.17.2.38.56.6.69.15.21.15.09,0-.35.03-.44-.02-.56-.14-.37-.09.06-.17.23-.22.31-.16.24-.28.5-.4.77-.5,1.16-.59,2.37-.34,3.6l2.51-1.46c-1.46-1.4-2.49-3.19-3.88-4.66-1.3-1.36-2.73-2.62-3.76-4.21-.44-.68-1.33-.96-2.05-.54-.67.39-.98,1.37-.54,2.05h0Z"/><path class="cls-7" d="M67.44,37.51l-3.36,1.34c-1.05.42-2.11.92-3.23,1.1-.78.13-1.28,1.13-1.05,1.85.27.84,1.01,1.18,1.85,1.05,1.12-.18,2.18-.68,3.23-1.1l3.36-1.34c.38-.15.68-.33.9-.69.19-.32.27-.8.15-1.16-.23-.7-1.06-1.36-1.85-1.05h0Z"/><path class="cls-7" d="M75.67,34c1.93,0,1.93-3,0-3s-1.93,3,0,3h0Z"/><path class="cls-7" d="M57.58,36.29c1.93,0,1.93-3,0-3s-1.93,3,0,3h0Z"/><path class="cls-7" d="M60.96,51.57c.17.02.34.03.51.06.08,0,.46.04.11.01.3.02.6.09.89.15.55.1,1.1.22,1.64.37s1.08.31,1.61.49c.28.1.57.2.85.31.12.05.24.1.36.14-.32-.13.18.08.23.1.72.32,1.65.23,2.05-.54.34-.65.23-1.71-.54-2.05-2.47-1.1-5.03-1.78-7.72-2.04-.78-.08-1.53.75-1.5,1.5.04.88.66,1.42,1.5,1.5h0Z"/><path class="cls-7" d="M50.15,57.96c1.93,0,1.93-3,0-3s-1.93,3,0,3h0Z"/><path class="cls-7" d="M60.1,64.34c1.93,0,1.93-3,0-3s-1.93,3,0,3h0Z"/><path class="cls-7" d="M51.43,76.62c1.93,0,1.93-3,0-3s-1.93,3,0,3h0Z"/><path class="cls-7" d="M30.53,66.19c1.93,0,1.93-3,0-3s-1.93,3,0,3h0Z"/><path class="cls-7" d="M24.37,54.51c.32-.2.64-.39.99-.54l-.36.15c.21-.08.42-.14.64-.18l-.4.05c.17-.02.34-.02.52,0l-.4-.05c.2.03.39.08.57.16l-.36-.15c.3.14.54.34.8.53.28.21.56.42.83.64s.83.24,1.16.15c.35-.1.73-.36.9-.69.18-.35.28-.77.15-1.16l-.15-.36c-.13-.23-.31-.4-.54-.54-.78-.6-1.55-1.33-2.57-1.48-.63-.09-1.25-.09-1.86.13-.52.19-.98.44-1.45.73-.67.42-.99,1.36-.54,2.05s1.34.98,2.05.54h0Z"/><path class="cls-7" d="M20.15,56.99c.31,1.69,1.1,3.24,1.94,4.72s1.75,3.07,2.75,4.52,2.02,2.82,3.34,3.88c.68.55,1.39.9,2.15,1.32.53.29.82.7.83,1.3.04,1.93,3.04,1.93,3,0-.03-1.75-.99-3.23-2.55-4.02s-2.66-1.91-3.68-3.3-1.94-2.96-2.83-4.49-1.74-3-2.06-4.74c-.15-.8-1.11-1.25-1.85-1.05-.84.23-1.2,1.05-1.05,1.85h0Z"/><path class="cls-9" d="M44.73,66.11h0c-.6-.2-.92-.79-.71-1.35.81-2.21,2.55-7.91,1.87-14.67-.21-2.12-.62-4.08-1.02-5.99-1.21-5.83-2.36-11.33,5.95-13.36,7.83-1.91,14.96.57,17.7,1.74.65.28.87,1,.48,1.56h0c-.35.51-1.05.7-1.63.45-2.45-1.03-9.02-3.31-15.97-1.61-5.76,1.4-5.41,4.3-4.07,10.73.39,1.86.83,3.97,1.05,6.19.72,7.2-1.09,13.16-1.98,15.56-.23.62-.99.95-1.66.73Z"/><path class="cls-9" d="M110.18,62.23h0c-.8.08-1.47-.29-1.57-.85-1.24-6.92-11.77-22.9-17.17-28.82-2.48-2.72-5.82-3.25-8.19-3.21-3.71.06-7.7,1.55-10.21,3.8-3.88,3.49-9.14,5.66-11.74,6.6-.84.3-1.78.04-2.05-.56h0c-.23-.54.15-1.16.9-1.43,2.3-.83,7.13-2.81,10.56-5.9,3.18-2.86,8.09-4.68,12.79-4.75,4.34-.06,8.1,1.39,10.56,4.09,4.86,5.32,16.2,21.75,17.61,29.68.11.64-.59,1.26-1.5,1.35Z"/><path class="cls-9" d="M108.12,80.83c-.2.59-.9.94-1.55.78-15.8-3.66-29.32-4.17-46.33-1.76-32.04,4.53-39.52-14.08-42.34-21.09l-.1-.25c-1.25-3.11-.5-5.99,2.05-7.91,2.65-1.98,6.75-2.48,9.34-1.13,3.41,1.78,13.08,3.36,16.48,3.87.67.1,1.1.66.97,1.26h0c-.13.61-.79,1.03-1.47.93-3.53-.53-13.51-2.15-17.3-4.13-1.69-.88-4.64-.48-6.45.88-1.21.9-2.41,2.57-1.27,5.4l.1.25c2.88,7.17,9.63,23.95,39.68,19.71,17.38-2.45,31.19-1.94,47.34,1.8.67.15,1.05.77.85,1.37h0Z"/><path class="cls-9" d="M120.85,85.27c-2.11.32-4.43.51-6.97.51-.7,0-1.24-.52-1.19-1.14h0c.04-.61.62-1.08,1.3-1.08,11.18-.03,17.57-3.75,20.98-6.92,4.54-4.23,5.88-9.24,5.65-12.24-.15-1.98-1.1-3.38-2.88-4.25-4.98-2.44-14.67-.15-17.52,1.14-27.46,12.42-43.5,16.4-47.97,17.36-.7.15-1.36-.25-1.47-.87h0c-.11-.59.31-1.16.96-1.3,4.29-.94,20.42-4.97,47.41-17.17,3.39-1.53,13.92-4.03,19.84-1.12,2.48,1.22,3.9,3.29,4.11,5.98.27,3.46-1.24,9.2-6.37,13.98-2.98,2.77-7.97,5.92-15.9,7.13Z"/></g></svg>