<?xml version="1.0" encoding="UTF-8"?><svg id="Layer_2" xmlns="http://www.w3.org/2000/svg" viewBox="0 0 150 150"><defs><style>.cls-1{fill:#2c2c2c;}.cls-1,.cls-2,.cls-3{stroke-width:0px;}.cls-4{stroke:#000;stroke-width:3px;}.cls-4,.cls-3{fill:#fff;}.cls-4,.cls-5,.cls-6{stroke-miterlimit:10;}.cls-2{fill:#2c2c2c;}.cls-5{fill:#b8a38f;stroke:#2c2c2c;}.cls-6{fill:none;stroke:#fff;stroke-width:2px;}</style></defs><g id="Layer_18"><path class="cls-4" d="M33.15,113.24h84.19s17.71.19,16-20.38c-1.25-15.05-15.05-17.33-15.05-17.33,0,0,11.33-21.01-6.86-32.95-25.52-16.76-41.71,8-41.71,8,0,0-18.1-9.33-31.62,2.48-5.58,4.87-8.57,12.19-8.38,21.9,0,0-15.24,6.29-12.95,21.33,2.29,15.05,16.38,16.95,16.38,16.95Z"/><circle class="cls-1" cx="42.5" cy="86.45" r="2.49"/><circle class="cls-2" cx="77.33" cy="86.38" r="2.49"/><path class="cls-6" d="M32.52,93.24s2.86-4.76,8.06-1.21"/><path class="cls-5" d="M74.3,100.76c-5.71-7.41-10.66-5.75-11.63-5.32-.12.05-.26.05-.38,0-9.22-4.06-12.36,6.24-19.46,7.91-.48.11-.53.78-.05.92,3.75,1.15,12.31,2.62,18.83-4.84.19-.22.52-.23.71-.02,1.61,1.81,8.59,8.93,17.56,6.93.47-.11.53-.76.07-.92-1.39-.49-3.38-1.71-5.65-4.65Z"/><path class="cls-1" d="M32.14,76.38c8.95-.99,35.42-3.43,59.38-.88,1.6.17,2.61,1.81,2.08,3.33l-5.35,15.18c-.35,1-1.29,1.67-2.35,1.68l-13.48.1c-.94,0-1.8-.51-2.24-1.33l-2.88-5.41c-.45-.84-1.33-1.36-2.28-1.33l-7.18.18c-.89.02-1.7.51-2.13,1.28l-2.77,4.96c-.44.79-1.28,1.29-2.19,1.29h-13.27c-1.06,0-2-.66-2.36-1.66l-5.06-14.03c-.55-1.53.46-3.17,2.08-3.35Z"/><polygon class="cls-3" points="35.6 91.96 44.87 76.63 47.28 76.63 36.84 94.47 35.6 91.96"/><polygon class="cls-3" points="41.5 94.12 51.98 76.12 55.41 76.12 44.99 94.12 41.5 94.12"/><polygon class="cls-3" points="70.58 92.66 79.98 76.18 83.82 76.15 73.79 94.66 71.66 94.63 70.58 92.66"/><path class="cls-3" d="M78.33,94.53l9.59-18.41h2.29l-9.4,18.29s-1.62.13-2.48.13Z"/></g></svg>