<?xml version="1.0" encoding="utf-8"?>
<!-- Generator: Adobe Illustrator 27.9.0, SVG Export Plug-In . SVG Version: 6.00 Build 0)  -->
<svg version="1.1" id="Layer_2_00000066501532559553926810000017907869956842610847_"
	 xmlns="http://www.w3.org/2000/svg" xmlns:xlink="http://www.w3.org/1999/xlink" x="0px" y="0px" viewBox="0 0 150 150"
	 style="enable-background:new 0 0 150 150;" xml:space="preserve">
<style type="text/css">
	.st0{opacity:0.97;}
	.st1{fill:#FFFFFF;stroke:#2C2C2C;stroke-width:3;stroke-miterlimit:10;}
	.st2{fill:url(#SVGID_1_);}
	.st3{fill:url(#SVGID_00000177466279518569925950000010364607586849955000_);}
	.st4{fill:#2C2C2C;}
	.st5{fill:#2C2C2C;stroke:#2C2C2C;stroke-width:2;stroke-miterlimit:10;}
</style>
<g id="Layer_16">
	<g class="st0">
		<path class="st1" d="M23.4,84.6c0.3-0.2,0.5-0.6,0.3-0.9c-1.4-2.8-6.4-14.6,7.5-24c9.4-6.4,18.2-2.9,21.5-1.1
			c0.5,0.3,1.1-0.2,1-0.7c-0.7-4-1.1-14.4,12.5-16.7c14.1-2.4,17.5,7,18.2,10.1c0.1,0.5,0.6,0.7,1.1,0.5c3.2-1.9,14.7-7.7,24,1.5
			c8.9,8.8,6.1,17.9,4.7,21c-0.2,0.5,0.1,1,0.7,1c4.4,0,19.6,1.2,17.9,20.1c-0.4,5.1-3,9-5.1,11.3c-1.4,1.5-3.4,2.4-5.4,2.4h-95
			c-4.7,0-9.6-4.2-10.1-8.8C16.7,96.2,16.6,88.6,23.4,84.6L23.4,84.6z"/>
	</g>
	
		<radialGradient id="SVGID_1_" cx="50.9754" cy="9.2239" r="4.53" gradientTransform="matrix(1 0 0 1 0 80)" gradientUnits="userSpaceOnUse">
		<stop  offset="0" style="stop-color:#FFCCCC"/>
		<stop  offset="0.32" style="stop-color:#FFD8D8"/>
		<stop  offset="0.89" style="stop-color:#FFF7F7"/>
		<stop  offset="1" style="stop-color:#FFFFFF"/>
	</radialGradient>
	<circle class="st2" cx="50.9" cy="89.2" r="4.5"/>
	
		<radialGradient id="SVGID_00000072280249979286455250000014915688067240437679_" cx="98.1554" cy="9.4139" r="4.33" gradientTransform="matrix(1 0 0 1 0 80)" gradientUnits="userSpaceOnUse">
		<stop  offset="0" style="stop-color:#FFCCCC"/>
		<stop  offset="0.32" style="stop-color:#FFD8D8"/>
		<stop  offset="0.89" style="stop-color:#FFF7F7"/>
		<stop  offset="1" style="stop-color:#FFFFFF"/>
	</radialGradient>
	<circle style="fill:url(#SVGID_00000072280249979286455250000014915688067240437679_);" cx="98.1" cy="89.4" r="4.3"/>
	<circle class="st4" cx="57.3" cy="82.6" r="2.5"/>
	<circle class="st4" cx="92.1" cy="82.6" r="2.5"/>
	<path class="st5" d="M74.8,90.1c-2.3,0-4.3-1.5-4.4-3.4c0-0.2-0.2-0.3-0.3-0.3c-0.2,0-0.4,0.1-0.4,0.3c0.2,2.2,2.4,3.9,5.1,4l0,0
		c2.7,0,4.9-1.8,5.1-4c0-0.2-0.2-0.3-0.4-0.3c-0.2,0-0.3,0.1-0.3,0.3C79.1,88.6,77.1,90.1,74.8,90.1"/>
</g>
</svg>
