<?xml version="1.0" encoding="UTF-8"?><svg id="Layer_2" xmlns="http://www.w3.org/2000/svg" viewBox="0 0 150 150"><defs><style>.cls-1,.cls-2,.cls-3{fill:#2c2c2c;}.cls-1,.cls-4{stroke-width:0px;}.cls-5{fill:#fff;stroke:#000;stroke-width:3px;}.cls-5,.cls-2,.cls-6,.cls-3,.cls-7{stroke-miterlimit:10;}.cls-2{stroke-width:.25px;}.cls-2,.cls-6,.cls-3{stroke:#2c2c2c;}.cls-6{fill:#f9c7d7;}.cls-4{fill:#2c2c2c;}.cls-3{stroke-width:.75px;}.cls-7{fill:none;stroke:#fff;stroke-width:2px;}</style></defs><g id="Layer_17"><path class="cls-5" d="M33.15,113.24h84.19s17.71.19,16-20.38c-1.25-15.05-15.05-17.33-15.05-17.33,0,0,11.33-21.01-6.86-32.95-25.52-16.76-41.71,8-41.71,8,0,0-18.1-9.33-31.62,2.48-5.58,4.87-8.57,12.19-8.38,21.9,0,0-15.24,6.29-12.95,21.33,2.29,15.05,16.38,16.95,16.38,16.95Z"/><circle class="cls-1" cx="42.5" cy="86.45" r="2.49"/><circle class="cls-4" cx="77.33" cy="86.38" r="2.49"/><path class="cls-2" d="M59.88,98.3c0-.39-.37-.69-.76-.69-.49,0-.74-.05-.86-.09.08-.19.32-.51.55-.73l.6-.56-.61-.55c-.94-.85-1.24-1.32-1.34-1.53.23-.05.66-.06,1.12-.01.39.04.74-.22.82-.6h0c.09-.44-.21-.86-.65-.91-.98-.11-2.27-.06-2.71.81-.46.9.3,1.95,1.2,2.85-.37.5-.71,1.21-.41,1.88.35.78,1.31.97,2.24.97,0,0,.82.04.81-.83Z"/><path class="cls-6" d="M57.09,96.1s-1,2.51-6.76-.7c-4.22-2.35-5.26-10.34-14.48-9.56-13.05,1.11-12.76,21.02,7.65,19.02,11.62-1.14,13.59-8.76,13.59-8.76Z"/><path class="cls-7" d="M32.52,93.24s2.86-4.76,8.06-1.21"/><path class="cls-3" d="M68.75,101.59c-.4.54-1.21.64-1.74.2-1.76-1.44-2.78-3.13-3.02-5.05-.35-2.71.96-5.13,1.87-6.44.39-.56,1.21-.66,1.75-.22h0c.44.36.54.98.22,1.44-.71,1.02-1.77,2.94-1.5,4.96.18,1.34.93,2.56,2.25,3.63.45.37.53,1.01.19,1.47h0Z"/></g></svg>