<svg width="83" height="83" viewBox="0 0 83 83" fill="none" xmlns="http://www.w3.org/2000/svg">
<g id="UNCLOUD ICONS-03 2">
<path id="Vector" d="M11.7588 43.1818C11.7588 43.1818 6.43706 34.7192 16.1227 28.1265C23.4355 23.1499 30.1333 27.9413 30.1333 27.9413C30.1333 27.9413 27.2462 18.5391 37.5696 16.7584C47.893 14.9753 48.8142 23.5797 48.8142 23.5797C48.8142 23.5797 57.3569 17.5585 63.993 24.1329C70.6292 30.7073 66.5739 37.5903 66.5739 37.5903C66.5739 37.5903 79.4164 36.3605 78.2505 49.818C77.9808 52.92 76.4263 55.2951 75.1508 56.7056C74.3027 57.6428 73.098 58.1754 71.8339 58.1754H13.7499C10.9015 58.1754 7.90236 55.5969 7.58004 52.7668C7.3103 50.4009 7.27372 45.5775 11.7588 43.1795V43.1818Z" fill="#CCCCCC"/>
<path id="Vector_2" d="M28.2237 48.2406C29.7539 48.2406 30.9943 47.0002 30.9943 45.4701C30.9943 43.9399 29.7539 42.6995 28.2237 42.6995C26.6936 42.6995 25.4531 43.9399 25.4531 45.4701C25.4531 47.0002 26.6936 48.2406 28.2237 48.2406Z" fill="url(#paint0_radial_6266_1698)"/>
<path id="Vector_3" d="M56.4053 40.905H52.4666C52.334 40.905 52.2266 41.0125 52.2266 41.1451C52.2266 41.2776 52.334 41.3851 52.4666 41.3851H56.4053C56.5379 41.3851 56.6453 41.2776 56.6453 41.1451C56.6453 41.0125 56.5379 40.905 56.4053 40.905Z" fill="#2C2C2C" stroke="#2C2C2C" stroke-width="0.5" stroke-miterlimit="10"/>
<path id="Vector_4" d="M33.585 40.9485H29.6463C29.5137 40.9485 29.4062 41.0559 29.4062 41.1885C29.4062 41.3211 29.5137 41.4285 29.6463 41.4285H33.585C33.7176 41.4285 33.825 41.3211 33.825 41.1885C33.825 41.0559 33.7176 40.9485 33.585 40.9485Z" fill="#2C2C2C" stroke="#2C2C2C" stroke-width="0.5" stroke-miterlimit="10"/>
<path id="Vector_5" d="M46.4646 44.4094H39.3416C39.209 44.4094 39.1016 44.5169 39.1016 44.6495C39.1016 44.782 39.209 44.8895 39.3416 44.8895H46.4646C46.5972 44.8895 46.7047 44.782 46.7047 44.6495C46.7047 44.5169 46.5972 44.4094 46.4646 44.4094Z" fill="#2C2C2C" stroke="#2C2C2C" stroke-width="0.5" stroke-miterlimit="10"/>
<path id="Vector_6" d="M57.2416 47.9663C58.7061 47.9663 59.8933 46.7791 59.8933 45.3146C59.8933 43.8501 58.7061 42.6628 57.2416 42.6628C55.7771 42.6628 54.5898 43.8501 54.5898 45.3146C54.5898 46.7791 55.7771 47.9663 57.2416 47.9663Z" fill="url(#paint1_radial_6266_1698)"/>
</g>
<defs>
<radialGradient id="paint0_radial_6266_1698" cx="0" cy="0" r="1" gradientUnits="userSpaceOnUse" gradientTransform="translate(28.2237 45.47) scale(2.77059)">
<stop stop-color="#808080"/>
<stop offset="0.23" stop-color="#8C8C8C"/>
<stop offset="0.65" stop-color="#ABABAB"/>
<stop offset="1" stop-color="#CCCCCC"/>
</radialGradient>
<radialGradient id="paint1_radial_6266_1698" cx="0" cy="0" r="1" gradientUnits="userSpaceOnUse" gradientTransform="translate(57.2416 45.3146) scale(2.65172)">
<stop stop-color="#808080"/>
<stop offset="0.23" stop-color="#8C8C8C"/>
<stop offset="0.65" stop-color="#ABABAB"/>
<stop offset="1" stop-color="#CCCCCC"/>
</radialGradient>
</defs>
</svg>
