<?xml version="1.0" encoding="utf-8"?>
<!-- Generator: Adobe Illustrator 28.0.0, SVG Export Plug-In . SVG Version: 6.00 Build 0)  -->
<svg version="1.1" id="Layer_2_00000081625494955616500570000002281734127022394012_"
	 xmlns="http://www.w3.org/2000/svg" xmlns:xlink="http://www.w3.org/1999/xlink" x="0px" y="0px" viewBox="0 0 150 150"
	 style="enable-background:new 0 0 150 150;" xml:space="preserve">
<style type="text/css">
	.st0{opacity:0.97;}
	.st1{fill:#CCCCCC;}
	.st2{fill:#2C2C2C;stroke:#000000;stroke-width:2;stroke-miterlimit:10;}
	.st3{fill:url(#Vector_2_00000124864064159317982220000015918711386173783444_);}
	.st4{fill:url(#Vector_2_00000003083161405171090920000014224744246377876382_);}
</style>
<g class="st0">
	<path class="st1" d="M24.1,84.2c0,0-8.7-13.8,7.1-24.6c12-8.1,22.9-0.3,22.9-0.3S49.4,43.9,66.3,41s18.4,11.2,18.4,11.2
		s14-9.8,24.8,0.9s4.2,22,4.2,22s21-2,19.1,20c-0.4,5.1-3,9-5.1,11.3c-1.4,1.5-3.4,2.4-5.4,2.4h-95c-4.7,0-9.6-4.2-10.1-8.8
		C16.8,96,16.7,88.1,24.1,84.2L24.1,84.2z"/>
	<path class="st2" d="M90.4,80.5h6.8c0.1,0,0.2,0.1,0.2,0.2V81c0,0.1-0.1,0.2-0.2,0.2h-6.8c-0.1,0-0.2-0.1-0.2-0.2v-0.4
		C90.2,80.5,90.3,80.5,90.4,80.5z"/>
	<path class="st2" d="M53.1,80.9H60c0.1,0,0.2,0.1,0.2,0.2v0c0,0.1-0.1,0.2-0.2,0.2h-6.8c-0.1,0-0.2-0.1-0.2-0.2v0
		C52.9,81,53,80.9,53.1,80.9z"/>
	<path class="st2" d="M69,86.2H81c0.1,0,0.2,0.1,0.2,0.2v0.4c0,0.1-0.1,0.2-0.2,0.2H69c-0.1,0-0.2-0.1-0.2-0.2v-0.4
		C68.8,86.3,68.9,86.2,69,86.2z"/>
	
		<radialGradient id="Vector_2_00000092450069628718774650000013067510427472433290_" cx="57.9489" cy="102.1857" r="1.5534" gradientTransform="matrix(2.7706 0 0 -2.7706 -62.0764 370.7584)" gradientUnits="userSpaceOnUse">
		<stop  offset="0" style="stop-color:#808080"/>
		<stop  offset="0.23" style="stop-color:#8C8C8C"/>
		<stop  offset="0.65" style="stop-color:#ABABAB"/>
		<stop  offset="1" style="stop-color:#CCCCCC"/>
	</radialGradient>
	<path id="Vector_2" style="fill:url(#Vector_2_00000092450069628718774650000013067510427472433290_);" d="M98.5,91.9
		c2.4,0,4.3-1.9,4.3-4.3c0-2.4-1.9-4.3-4.3-4.3c-2.4,0-4.3,1.9-4.3,4.3C94.2,90,96.1,91.9,98.5,91.9z"/>
	
		<radialGradient id="Vector_2_00000135672576717462715270000007807772168722335398_" cx="40.8095" cy="102.1762" r="1.5534" gradientTransform="matrix(2.7706 0 0 -2.7706 -62.0764 370.7584)" gradientUnits="userSpaceOnUse">
		<stop  offset="0" style="stop-color:#808080"/>
		<stop  offset="0.23" style="stop-color:#8C8C8C"/>
		<stop  offset="0.65" style="stop-color:#ABABAB"/>
		<stop  offset="1" style="stop-color:#CCCCCC"/>
	</radialGradient>
	
		<path id="Vector_2_00000079464196969946879700000001187398176456193432_" style="fill:url(#Vector_2_00000135672576717462715270000007807772168722335398_);" d="
		M51,92c2.4,0,4.3-1.9,4.3-4.3c0-2.4-1.9-4.3-4.3-4.3c-2.4,0-4.3,1.9-4.3,4.3C46.7,90,48.6,92,51,92z"/>
</g>
</svg>
