<svg width="81" height="80" viewBox="0 0 81 80" fill="none" xmlns="http://www.w3.org/2000/svg">
<g id="Component 1">
<path id="Vector" opacity="0.6" d="M10.1903 45.1231C10.1903 45.1231 5.01694 36.8965 14.4325 30.4876C21.5414 25.6498 28.0525 30.3076 28.0525 30.3076C28.0525 30.3076 25.2458 21.1676 35.2814 19.4365C45.3169 17.7031 46.2125 26.0676 46.2125 26.0676C46.2125 26.0676 54.5169 20.2142 60.968 26.6053C67.4192 32.9965 63.4769 39.6876 63.4769 39.6876C63.4769 39.6876 75.9614 38.492 74.828 51.5742C74.5658 54.5898 73.0547 56.8987 71.8147 58.2698C70.9903 59.1809 69.8192 59.6987 68.5903 59.6987H12.1258C9.35694 59.6987 6.44138 57.192 6.12805 54.4409C5.86583 52.1409 5.83027 47.452 10.1903 45.1209V45.1231Z" fill="#E9E9E9"/>
<path id="Vector_2" opacity="0.6" d="M53.5935 42.9097H49.7646C49.6357 42.9097 49.5312 43.0142 49.5312 43.143C49.5312 43.2719 49.6357 43.3763 49.7646 43.3763H53.5935C53.7223 43.3763 53.8268 43.2719 53.8268 43.143C53.8268 43.0142 53.7223 42.9097 53.5935 42.9097Z" fill="#2C2C2C" stroke="#2C2C2C" stroke-miterlimit="10"/>
<path id="Vector_3" opacity="0.6" d="M31.4079 42.9519H27.579C27.4502 42.9519 27.3457 43.0563 27.3457 43.1852C27.3457 43.3141 27.4502 43.4185 27.579 43.4185H31.4079C31.5368 43.4185 31.6413 43.3141 31.6413 43.1852C31.6413 43.0563 31.5368 42.9519 31.4079 42.9519Z" fill="#2C2C2C" stroke="#2C2C2C" stroke-miterlimit="10"/>
<path id="Vector_4" opacity="0.6" d="M43.9293 46.3166H37.0048C36.876 46.3166 36.7715 46.421 36.7715 46.5499C36.7715 46.6788 36.876 46.7832 37.0048 46.7832H43.9293C44.0581 46.7832 44.1626 46.6788 44.1626 46.5499C44.1626 46.421 44.0581 46.3166 43.9293 46.3166Z" fill="#2C2C2C" stroke="#2C2C2C" stroke-miterlimit="10"/>
</g>
</svg>
