<?xml version="1.0" encoding="utf-8"?>
<!-- Generator: Adobe Illustrator 28.0.0, SVG Export Plug-In . SVG Version: 6.00 Build 0)  -->
<svg version="1.1" id="Layer_2_00000081625494955616500570000002281734127022394012_"
	 xmlns="http://www.w3.org/2000/svg" xmlns:xlink="http://www.w3.org/1999/xlink" x="0px" y="0px" viewBox="0 0 150 150"
	 style="enable-background:new 0 0 150 150;" xml:space="preserve">
<style type="text/css">
	.st0{opacity:0.97;}
	.st1{fill:#CCCCCC;}
</style>
<g class="st0">
	<path class="st1" d="M24.1,84.2c0,0-8.7-13.8,7.1-24.6c12-8.1,22.9-0.3,22.9-0.3S49.4,43.9,66.3,41s18.4,11.2,18.4,11.2
		s14-9.8,24.8,0.9s4.2,22,4.2,22s21-2,19.1,20c-0.4,5.1-3,9-5.1,11.3c-1.4,1.5-3.4,2.4-5.4,2.4h-95c-4.7,0-9.6-4.2-10.1-8.8
		C16.8,96,16.7,88.1,24.1,84.2L24.1,84.2z"/>
</g>
</svg>
