
<svg width="178" height="178" viewBox="0 0 178 178" fill="none" xmlns="http://www.w3.org/2000/svg">
<g id="Component 1">
<path id="Vector" opacity="0.6" d="M21.5624 100.399C21.5624 100.399 10.0517 82.0946 31.0014 67.8348C46.8186 57.0708 61.3059 67.4343 61.3059 67.4343C61.3059 67.4343 55.061 47.0978 77.3901 43.2461C99.7192 39.3894 101.712 58.0003 101.712 58.0003C101.712 58.0003 120.189 44.9767 134.543 59.1969C148.897 73.4171 140.125 88.3048 140.125 88.3048C140.125 88.3048 167.903 85.6447 165.381 114.753C164.798 121.462 161.436 126.6 158.677 129.65C156.842 131.677 154.237 132.83 151.502 132.83H25.869C19.7082 132.83 13.2211 127.252 12.524 121.131C11.9405 116.013 11.8614 105.581 21.5624 100.394V100.399Z" fill="#E9E9E9"/>
<path id="Vector_2" opacity="0.6" d="M118.132 95.474H109.613C109.326 95.474 109.094 95.7064 109.094 95.9932C109.094 96.2799 109.326 96.5123 109.613 96.5123H118.132C118.419 96.5123 118.651 96.2799 118.651 95.9932C118.651 95.7064 118.419 95.474 118.132 95.474Z" fill="#2C2C2C" stroke="#2C2C2C" stroke-miterlimit="10"/>
<path id="Vector_3" opacity="0.6" d="M68.7728 95.5679H60.2535C59.9668 95.5679 59.7344 95.8003 59.7344 96.087C59.7344 96.3738 59.9668 96.6062 60.2535 96.6062H68.7728C69.0596 96.6062 69.292 96.3738 69.292 96.087C69.292 95.8003 69.0596 95.5679 68.7728 95.5679Z" fill="#2C2C2C" stroke="#2C2C2C" stroke-miterlimit="10"/>
<path id="Vector_4" opacity="0.6" d="M96.6292 103.054H81.2223C80.9356 103.054 80.7031 103.287 80.7031 103.573C80.7031 103.86 80.9356 104.093 81.2223 104.093H96.6292C96.9159 104.093 97.1484 103.86 97.1484 103.573C97.1484 103.287 96.9159 103.054 96.6292 103.054Z" fill="#2C2C2C" stroke="#2C2C2C" stroke-miterlimit="10"/>
</g>
</svg>
