<?xml version="1.0" encoding="UTF-8"?><svg id="Layer_2" xmlns="http://www.w3.org/2000/svg" xmlns:xlink="http://www.w3.org/1999/xlink" viewBox="0 0 150 150"><defs><style>.cls-1{fill:#0690ec;}.cls-1,.cls-2,.cls-3{stroke-width:0px;}.cls-4{opacity:.97;}.cls-2{fill:none;}.cls-5{clip-path:url(#clippath);}.cls-3{fill:#a0d1f9;}</style><clipPath id="clippath"><rect class="cls-2" x="36.83" y="103.51" width="79.98" height="13.55"/></clipPath></defs><g id="Layer_3"><g class="cls-4"><path class="cls-3" d="M24.07,76.55s-8.7-13.84,7.14-24.62c11.96-8.14,22.91-.3,22.91-.3,0,0-4.72-15.38,12.16-18.29,16.88-2.91,18.39,11.16,18.39,11.16,0,0,13.97-9.85,24.82.9,10.85,10.75,4.22,22.01,4.22,22.01,0,0,21-2.01,19.09,20-.44,5.07-2.98,8.96-5.07,11.26-1.39,1.53-3.36,2.4-5.43,2.4H27.32c-4.66,0-9.56-4.22-10.09-8.84-.44-3.87-.5-11.76,6.83-15.68Z"/><g class="cls-5"><g id="_Grid_Repeat_"><path class="cls-1" d="M43.16,110.76l.09.23c.32.88.27,1.89-.24,2.79-.76,1.34-2.41,1.98-3.88,1.5-1.91-.62-2.81-2.73-2.01-4.51l2.96-6.6c.11-.25.46-.24.56.02l2.52,6.57Z"/></g><g id="_Grid_Repeat_-2"><path class="cls-1" d="M64.74,110.76l.09.23c.32.88.27,1.89-.24,2.79-.76,1.34-2.41,1.98-3.88,1.5-1.91-.62-2.81-2.73-2.01-4.51l2.96-6.6c.11-.25.46-.24.56.02l2.52,6.57Z"/></g><g id="_Grid_Repeat_-3"><path class="cls-1" d="M86.32,110.76l.09.23c.32.88.27,1.89-.24,2.79-.76,1.34-2.41,1.98-3.88,1.5-1.91-.62-2.81-2.73-2.01-4.51l2.96-6.6c.11-.25.46-.24.56.02l2.52,6.57Z"/></g><g id="_Grid_Repeat_-4"><path class="cls-1" d="M107.89,110.76l.09.23c.32.88.27,1.89-.24,2.79-.76,1.34-2.41,1.98-3.88,1.5-1.91-.62-2.81-2.73-2.01-4.51l2.96-6.6c.11-.25.46-.24.56.02l2.52,6.57Z"/></g></g><path class="cls-3" d="M54.06,107.69l.06.16c.23.63.18,1.35-.21,1.98-.54.87-1.63,1.27-2.6.96-1.31-.42-1.94-1.87-1.39-3.09l1.92-4.28c.12-.26.48-.25.58.02l1.63,4.26Z"/><path class="cls-3" d="M75.32,107.67l.06.16c.23.63.18,1.35-.21,1.98-.54.87-1.63,1.27-2.6.96-1.31-.42-1.94-1.87-1.39-3.09l1.91-4.25c.12-.27.51-.26.61.02l1.62,4.22Z"/><path class="cls-3" d="M97.02,107.45l.06.16c.23.63.18,1.35-.21,1.98-.54.87-1.63,1.27-2.6.96-1.31-.42-1.94-1.87-1.39-3.09l1.77-3.95c.17-.38.72-.37.87.02l1.5,3.91Z"/></g></g></svg>