<?xml version="1.0" encoding="UTF-8"?><svg id="Layer_2" xmlns="http://www.w3.org/2000/svg" viewBox="0 0 150 150"><defs><style>.cls-1{fill:#f9c7d7;}.cls-1,.cls-2,.cls-3,.cls-4,.cls-5,.cls-6{stroke-width:0px;}.cls-2{fill:#ffe773;}.cls-3{fill:#b1d5d5;}.cls-4{fill:#fe8034;}.cls-5{fill:#a0d1f9;}.cls-6{fill:#aa52bf;}</style></defs><path class="cls-4" d="M45.27,39.62c-17,6.59-25.35,26.19-18.86,43.94l-3.41,1.32c-7.25-19.71,2.02-41.5,20.9-48.82,18.88-7.31,40.41,2.54,48.33,22l-3.41,1.32c-7.16-17.49-26.54-26.35-43.54-19.77Z"/><path class="cls-2" d="M46.59,43.03c-15.19,5.89-22.67,23.39-16.91,39.26l-3.41,1.32c-6.52-17.83,1.87-37.52,18.94-44.13,17.08-6.61,36.54,2.28,43.73,19.85l-3.41,1.32c-6.43-15.61-23.75-23.51-38.94-17.62Z"/><path class="cls-5" d="M47.92,46.45c-13.39,5.19-19.99,20.59-14.95,34.58l-3.41,1.32c-5.8-15.95,1.72-33.54,16.99-39.45,15.27-5.91,32.67,2.02,39.13,17.71l-3.41,1.32c-5.7-13.73-20.96-20.66-34.34-15.48Z"/><path class="cls-3" d="M49.24,49.86c-11.58,4.49-17.3,17.79-12.99,29.89l-3.42,1.32c-5.07-14.07,1.57-29.56,15.03-34.77,13.46-5.21,28.8,1.76,34.53,15.57l-3.42,1.32c-4.97-11.85-18.16-17.82-29.74-13.34Z"/><path class="cls-6" d="M50.56,53.27c-9.79,3.79-14.63,14.97-11.04,25.21l-3.42,1.32c-1.01-2.82-1.49-5.75-1.44-8.72.05-3.09.67-6.09,1.85-8.91s2.85-5.33,4.98-7.45c2.2-2.2,4.79-3.88,7.69-5.01,2.9-1.12,5.95-1.62,9.06-1.48,3,.14,5.93.86,8.7,2.15,2.77,1.29,5.25,3.09,7.37,5.34,2.04,2.16,3.65,4.66,4.81,7.42l-3.42,1.32c-4.25-9.98-15.35-14.99-25.14-11.19Z"/><path class="cls-1" d="M24.07,91.83s-8.7-13.84,7.14-24.62c11.96-8.14,22.91-.3,22.91-.3,0,0-4.72-15.38,12.16-18.29,16.88-2.91,18.39,11.16,18.39,11.16,0,0,13.97-9.85,24.82.9,10.85,10.75,4.22,22.01,4.22,22.01,0,0,21-2.01,19.09,20-.44,5.07-2.98,8.96-5.07,11.26-1.39,1.53-3.36,2.4-5.43,2.4H27.32c-4.66,0-9.56-4.22-10.09-8.84-.44-3.87-.5-11.76,6.83-15.68Z"/></svg>