<?xml version="1.0" encoding="UTF-8"?><svg id="Layer_2" xmlns="http://www.w3.org/2000/svg" xmlns:xlink="http://www.w3.org/1999/xlink" viewBox="0 0 150 150"><defs><style>.cls-1{fill:#2c2c2c;}.cls-1,.cls-2,.cls-3,.cls-4,.cls-5,.cls-6{stroke-width:0px;}.cls-2{fill:#f9dc4b;}.cls-7{opacity:.97;}.cls-3{fill:#cfe4f9;}.cls-4{fill:url(#radial-gradient-2);}.cls-5{fill:url(#radial-gradient);}.cls-6{fill:#aa52bf;}</style><radialGradient id="radial-gradient" cx="51.28" cy="87.65" fx="51.28" fy="87.65" r="4.53" gradientUnits="userSpaceOnUse"><stop offset="0" stop-color="#843f95"/><stop offset=".32" stop-color="#874098"/><stop offset=".61" stop-color="#9145a3"/><stop offset=".89" stop-color="#a14db5"/><stop offset="1" stop-color="#aa52bf"/></radialGradient><radialGradient id="radial-gradient-2" cx="98.45" cy="87.84" fx="98.45" fy="87.84" r="4.33" gradientUnits="userSpaceOnUse"><stop offset="0" stop-color="#843f95"/><stop offset=".54" stop-color="#853f96"/><stop offset=".73" stop-color="#8b429d"/><stop offset=".87" stop-color="#9648a9"/><stop offset=".98" stop-color="#a54fba"/><stop offset="1" stop-color="#aa52bf"/></radialGradient></defs><g id="Layer_3"><g class="cls-7"><path class="cls-3" d="M27.32,114.87c-7.69,0-15.19-6.62-16.05-14.17-.85-7.51,1.09-13.91,5.42-18.28-2.33-7.56-1.75-18.89,11.14-27.66,4.62-3.14,9.63-4.74,14.89-4.74,1.86,0,3.6.2,5.19.52.4-2.01,1.13-4.13,2.38-6.17,2.06-3.35,6.33-7.67,14.97-9.16,1.86-.32,3.67-.48,5.38-.48,9.14,0,14.49,4.47,17.33,9.22,2.68-.98,5.99-1.79,9.61-1.79,6.09,0,11.67,2.34,16.13,6.76,7.12,7.06,8.54,14.85,7.82,20.95,3.8.85,8.27,2.68,11.78,6.5,4.33,4.72,6.17,11.23,5.47,19.34-.62,7.19-4.4,12.34-6.6,14.77-2.51,2.78-6.11,4.38-9.88,4.38H27.32Z"/><path class="cls-3" d="M68.18,137.94c-2.26,0-4.36-1.18-5.49-3.09-1.11-1.86-1.15-4.2-.12-6.11l3.14-5.81c-2.67-.14-4.96-1.89-5.73-4.42-.55-1.79-.25-3.69.73-5.2l5.74-11.14c1.29-2.5,3.9-4.05,6.81-4.05l9.76.08h.48c2.38,0,4.54,1.28,5.64,3.35.97,1.84.95,4.01-.02,5.82,2.23.34,4.11,1.82,4.93,3.95.93,2.4.29,5.08-1.63,6.82l-19.92,18.14c-1.17,1.07-2.71,1.66-4.32,1.66Z"/><path class="cls-2" d="M73.28,104.12c-.65,0-1.25.31-1.5.8l-5.97,11.6c-.22.15-.07.42.25.42l9.14.13c.25,0,.41.17.33.33l-7.68,14.19c-.14.27.37.46.62.24l19.93-18.15c.18-.16.01-.4-.28-.4h-9.64c-.26,0-.43-.19-.32-.35l5.67-8.39c.14-.21-.16-.4-.42-.34l-10.11-.08Z"/><path class="cls-6" d="M24.07,84.35s-8.7-13.84,7.14-24.62c11.96-8.14,22.91-.3,22.91-.3,0,0-4.72-15.38,12.16-18.29,16.88-2.91,18.39,11.16,18.39,11.16,0,0,13.97-9.85,24.82.9,10.85,10.75,4.22,22.01,4.22,22.01,0,0,21-2.01,19.09,20-.44,5.07-2.98,8.96-5.07,11.26-1.39,1.53-3.36,2.4-5.43,2.4H27.32c-4.66,0-9.56-4.22-10.09-8.84-.44-3.87-.5-11.76,6.83-15.68Z"/><path class="cls-1" d="M52.55,79.59c-.25-.26.07-.61.47-.53l7.07,1.53c.69.27.64,1.05-.08,1.26l-6.05,1.56c-.8.24-1.5-.47-1.02-1,.02-.02.05-.04.08-.06l2.16-1c.15-.07.16-.24.02-.32l-2.64-1.46Z"/><circle class="cls-5" cx="51.28" cy="87.65" r="4.53"/><circle class="cls-4" cx="98.45" cy="87.84" r="4.33"/><path class="cls-1" d="M80.35,87.83h-.02c-.7-.01-1.04-.49-1.27-.81-.2-.28-.26-.34-.38-.34-.12,0-.17.05-.39.33-.24.31-.61.78-1.29.77-.7-.01-1.04-.49-1.27-.81-.2-.28-.26-.34-.38-.34-.1,0-.17.05-.39.33-.24.31-.61.77-1.29.77-.7-.01-1.04-.49-1.27-.81-.2-.28-.26-.34-.38-.34-.11,0-.17.05-.39.33-.24.31-.6.77-1.29.77-.7-.01-1.04-.49-1.27-.81-.09-.13-.16-.21-.21-.26-.11-.1-.16-.25-.16-.4h0c0-.48.59-.74.94-.41.14.14.25.29.35.42.2.28.26.34.38.34.12,0,.17-.05.39-.33.24-.31.59-.77,1.29-.77.7.01,1.04.49,1.27.81.2.28.26.34.38.34.12,0,.17-.05.39-.33.24-.31.61-.77,1.29-.77.7.01,1.04.49,1.27.81.2.28.26.34.38.34.12,0,.17-.05.39-.33.24-.31.59-.77,1.27-.77h.02c.7.01,1.04.49,1.27.81.2.28.26.34.38.34.13,0,.17-.05.39-.33.1-.13.21-.27.36-.41.36-.32.93-.04.92.44h0c0,.15-.07.3-.18.4-.05.05-.12.13-.22.25-.24.31-.59.77-1.27.77Z"/><path class="cls-1" d="M80.35,88.33h-.03c-.93-.01-1.4-.64-1.66-.99-.25.33-.8.94-1.68.94-.93-.02-1.39-.63-1.65-.99-.23.3-.74.94-1.66.94h-.01c-.93-.02-1.4-.63-1.65-.99-.25.32-.75.94-1.66.94h0c-.95-.01-1.42-.66-1.67-1.01-.07-.1-.12-.16-.16-.2-.2-.19-.32-.48-.31-.77,0-.42.27-.8.66-.97.39-.16.82-.08,1.12.21.16.15.28.32.39.46.27-.34.75-.94,1.67-.94h0c.93.01,1.4.63,1.66.99.25-.32.74-.94,1.67-.94.93.01,1.4.64,1.66.99.26-.34.74-.94,1.65-.94.96.01,1.43.64,1.68.99.11-.14.24-.31.41-.45.31-.28.75-.34,1.13-.17.39.18.63.56.62.99,0,.29-.13.57-.34.76-.04.03-.08.09-.15.19-.26.34-.74.96-1.67.96ZM78.65,86.18s.04,0,.05,0c.36,0,.55.27.75.55.25.35.46.59.87.6l.02.5v-.5c.41,0,.62-.24.88-.57.12-.16.21-.25.27-.31l-.02-.1c-.17.11-.26.24-.34.34-.23.3-.4.55-.81.52-.37,0-.56-.27-.76-.55-.25-.35-.46-.59-.87-.6-.42,0-.63.24-.89.57-.22.28-.4.52-.78.52-.39,0-.58-.27-.78-.55-.25-.35-.46-.59-.87-.6-.42,0-.66.27-.89.57-.21.28-.4.52-.78.52-.4,0-.59-.27-.79-.55-.25-.35-.46-.59-.87-.6h0c-.42,0-.63.24-.89.57-.2.26-.39.51-.77.53-.41,0-.6-.27-.8-.55-.08-.11-.17-.24-.29-.35l-.09.06c.08.1.16.2.28.37.25.35.46.59.87.6h0c.41,0,.64-.25.89-.57.19-.25.39-.51.77-.52.41,0,.6.27.8.55.25.35.46.59.87.6h0c.41,0,.65-.27.88-.57.21-.27.44-.54.82-.52.36,0,.55.27.75.55.25.35.46.59.87.6h.01c.4,0,.63-.26.88-.57.22-.29.4-.52.76-.52Z"/><path class="cls-1" d="M96.67,79.51c.25-.26-.07-.61-.47-.53l-7.07,1.53c-.69.27-.64,1.05.08,1.26l6.05,1.56c.8.24,1.5-.47,1.02-1-.02-.02-.05-.04-.08-.06l-2.16-1c-.15-.07-.16-.24-.02-.32l2.64-1.46Z"/></g></g></svg>