<?xml version="1.0" encoding="UTF-8"?><svg id="Layer_2" xmlns="http://www.w3.org/2000/svg" xmlns:xlink="http://www.w3.org/1999/xlink" viewBox="0 0 150 150"><defs><style>.cls-1{fill:#0690ec;}.cls-1,.cls-2,.cls-3,.cls-4,.cls-5,.cls-6,.cls-7,.cls-8{stroke-width:0px;}.cls-2,.cls-9{fill:#2c2c2c;}.cls-3{fill:none;}.cls-4{fill:#2c2c2c;}.cls-5{fill:url(#radial-gradient-2);}.cls-9{stroke:#2c2c2c;stroke-miterlimit:10;stroke-width:2px;}.cls-10{clip-path:url(#clippath);}.cls-6{fill:url(#radial-gradient);}.cls-7{fill:#cfe4f9;}.cls-8{fill:#a0d1f9;}</style><radialGradient id="radial-gradient" cx="51.28" cy="87.46" fx="51.28" fy="87.46" r="4.53" gradientUnits="userSpaceOnUse"><stop offset="0" stop-color="#0099f9"/><stop offset=".13" stop-color="#0c9df9"/><stop offset=".36" stop-color="#2ca8f9"/><stop offset=".67" stop-color="#60baf9"/><stop offset="1" stop-color="#a0d1f9"/></radialGradient><radialGradient id="radial-gradient-2" cx="98.45" cy="87.65" fx="98.45" fy="87.65" r="4.33" xlink:href="#radial-gradient"/><clipPath id="clippath"><rect class="cls-3" x="36.83" y="111.12" width="79.98" height="13.55"/></clipPath></defs><ellipse class="cls-7" cx="75.14" cy="115.52" rx="31.94" ry="2.57"/><g id="_Grid_Repeat_"><path class="cls-7" d="M54.85,115.16l.12.32c.45,1.21.38,2.61-.33,3.84-1.05,1.84-3.32,2.72-5.34,2.07-2.63-.85-3.87-3.76-2.77-6.21l4.08-9.09c.15-.34.64-.33.77.02l3.47,9.05Z"/></g><g id="_Grid_Repeat_-2"><path class="cls-7" d="M76.58,114.78l.12.32c.45,1.21.38,2.61-.33,3.84-1.05,1.84-3.32,2.72-5.34,2.07-2.63-.85-3.87-3.76-2.77-6.21l4.08-9.09c.15-.34.64-.33.77.02l3.47,9.05Z"/></g><g id="_Grid_Repeat_-3"><path class="cls-7" d="M98.18,114.85l.12.32c.45,1.21.38,2.61-.33,3.84-1.05,1.84-3.32,2.72-5.34,2.07-2.63-.85-3.87-3.76-2.77-6.21l4.08-9.09c.15-.34.64-.33.77.02l3.47,9.05Z"/></g><g id="_Grid_Repeat_-4"><path class="cls-7" d="M46.4,116.67l.2.53c.75,2.01.71,4.3-.3,6.3-1.51,2.97-4.93,4.3-8.04,3.12-4.06-1.54-6.11-6.37-4.55-10.35l5.75-14.72c.21-.55.96-.5,1.18.07l5.77,15.04Z"/></g><g id="_Grid_Repeat_-5"><path class="cls-7" d="M67.97,116.67l.2.53c.75,2.01.71,4.3-.3,6.3-1.51,2.97-4.93,4.3-8.04,3.12-4.06-1.54-6.11-6.37-4.55-10.35l5.75-14.72c.21-.55.96-.5,1.18.07l5.77,15.04Z"/></g><g id="_Grid_Repeat_-6"><path class="cls-7" d="M89.54,116.67l.2.53c.75,2.01.71,4.3-.3,6.3-1.51,2.97-4.93,4.3-8.04,3.12-4.06-1.54-6.11-6.37-4.55-10.35l5.75-14.72c.21-.55.96-.5,1.18.07l5.77,15.04Z"/></g><g id="_Grid_Repeat_-7"><path class="cls-7" d="M111.29,116.67l.2.53c.75,2.01.71,4.3-.3,6.3-1.51,2.97-4.93,4.3-8.04,3.12-4.06-1.54-6.11-6.37-4.55-10.35l5.75-14.72c.21-.55.96-.5,1.18.07l5.77,15.04Z"/></g><path class="cls-7" d="M27.32,114.68c-7.69,0-15.19-6.62-16.05-14.17-.85-7.51,1.09-13.91,5.42-18.28-2.33-7.56-1.75-18.89,11.14-27.66,4.62-3.14,9.63-4.74,14.89-4.74,1.86,0,3.6.2,5.19.52.4-2.01,1.13-4.13,2.38-6.17,2.06-3.35,6.33-7.67,14.97-9.16,1.86-.32,3.67-.48,5.38-.48,9.14,0,14.49,4.47,17.33,9.22,2.68-.98,5.99-1.79,9.61-1.79,6.09,0,11.67,2.34,16.13,6.76,7.12,7.06,8.54,14.85,7.82,20.95,3.8.85,8.27,2.68,11.78,6.5,4.33,4.72,6.17,11.23,5.47,19.34-.62,7.19-4.4,12.34-6.6,14.77-2.51,2.78-6.11,4.38-9.88,4.38H27.32Z"/><path class="cls-8" d="M24.07,84.16s-8.7-13.84,7.14-24.62c11.96-8.14,22.91-.3,22.91-.3,0,0-4.72-15.38,12.16-18.29,16.88-2.91,18.39,11.16,18.39,11.16,0,0,13.97-9.85,24.82.9,10.85,10.75,4.22,22.01,4.22,22.01,0,0,21-2.01,19.09,20-.44,5.07-2.98,8.96-5.07,11.26-1.39,1.53-3.36,2.4-5.43,2.4H27.32c-4.66,0-9.56-4.22-10.09-8.84-.44-3.87-.5-11.76,6.83-15.68Z"/><circle class="cls-6" cx="51.28" cy="87.46" r="4.53"/><circle class="cls-5" cx="98.45" cy="87.65" r="4.33"/><circle class="cls-2" cx="57.64" cy="80.92" r="2.49"/><circle class="cls-4" cx="92.46" cy="80.85" r="2.49"/><path class="cls-9" d="M75.14,85.41c2.32.02,4.26,1.56,4.42,3.54.01.15.16.27.33.28.21,0,.38-.15.36-.33-.2-2.32-2.41-4.14-5.11-4.15h.01c-2.7,0-4.91,1.83-5.11,4.15-.02.18.15.34.36.33.18,0,.32-.13.33-.28.16-1.99,2.1-3.52,4.42-3.54"/><g class="cls-10"><g id="_Grid_Repeat_-8"><path class="cls-1" d="M43.16,118.36l.09.23c.32.88.27,1.89-.24,2.79-.76,1.34-2.41,1.98-3.88,1.5-1.91-.62-2.81-2.73-2.01-4.51l2.96-6.6c.11-.25.46-.24.56.02l2.52,6.57Z"/></g><g id="_Grid_Repeat_-9"><path class="cls-1" d="M64.74,118.36l.09.23c.32.88.27,1.89-.24,2.79-.76,1.34-2.41,1.98-3.88,1.5-1.91-.62-2.81-2.73-2.01-4.51l2.96-6.6c.11-.25.46-.24.56.02l2.52,6.57Z"/></g><g id="_Grid_Repeat_-10"><path class="cls-1" d="M86.32,118.36l.09.23c.32.88.27,1.89-.24,2.79-.76,1.34-2.41,1.98-3.88,1.5-1.91-.62-2.81-2.73-2.01-4.51l2.96-6.6c.11-.25.46-.24.56.02l2.52,6.57Z"/></g><g id="_Grid_Repeat_-11"><path class="cls-1" d="M107.89,118.36l.09.23c.32.88.27,1.89-.24,2.79-.76,1.34-2.41,1.98-3.88,1.5-1.91-.62-2.81-2.73-2.01-4.51l2.96-6.6c.11-.25.46-.24.56.02l2.52,6.57Z"/></g></g><path class="cls-8" d="M52.79,115.11l.06.16c.23.63.18,1.35-.21,1.98-.54.87-1.63,1.27-2.6.96-1.31-.42-1.94-1.87-1.39-3.09l1.92-4.28c.12-.26.48-.25.58.02l1.63,4.26Z"/><path class="cls-8" d="M74.11,115.27l.06.16c.23.63.18,1.35-.21,1.98-.54.87-1.63,1.27-2.6.96-1.31-.42-1.94-1.87-1.39-3.09l1.91-4.25c.12-.27.51-.26.61.02l1.62,4.22Z"/><path class="cls-8" d="M96,115.06l.06.16c.23.63.18,1.35-.21,1.98-.54.87-1.63,1.27-2.6.96-1.31-.42-1.94-1.87-1.39-3.09l1.77-3.95c.17-.38.72-.37.87.02l1.5,3.91Z"/></svg>