<?xml version="1.0" encoding="UTF-8"?><svg id="Layer_2" xmlns="http://www.w3.org/2000/svg" xmlns:xlink="http://www.w3.org/1999/xlink" viewBox="0 0 150 150"><defs><style>.cls-1{fill:#dfeeff;}.cls-1,.cls-2,.cls-3,.cls-4,.cls-5,.cls-6,.cls-7,.cls-8,.cls-9,.cls-10,.cls-11{stroke-width:0px;}.cls-2{fill:#f9c7d7;}.cls-3,.cls-12{fill:#2c2c2c;}.cls-12{stroke:#2c2c2c;stroke-miterlimit:10;stroke-width:.5px;}.cls-4{fill:#ffe773;}.cls-5{fill:#2c2c2c;}.cls-6{fill:url(#radial-gradient-2);}.cls-7{fill:url(#radial-gradient);}.cls-8{fill:#b1d5d5;}.cls-9{fill:#fe8034;}.cls-10{fill:#a0d1f9;}.cls-11{fill:#aa52bf;}</style><radialGradient id="radial-gradient" cx="51.28" cy="87.53" fx="51.28" fy="87.53" r="4.53" gradientUnits="userSpaceOnUse"><stop offset="0" stop-color="#fe8034"/><stop offset=".13" stop-color="#fd8540"/><stop offset=".35" stop-color="#fc9360"/><stop offset=".66" stop-color="#fba994"/><stop offset="1" stop-color="#f9c7d7"/></radialGradient><radialGradient id="radial-gradient-2" cx="98.45" cy="87.72" fx="98.45" fy="87.72" r="4.33" gradientUnits="userSpaceOnUse"><stop offset="0" stop-color="#fe8034"/><stop offset=".13" stop-color="#fd8540"/><stop offset=".35" stop-color="#fc9360"/><stop offset=".66" stop-color="#fba994"/><stop offset="1" stop-color="#f9c7d7"/></radialGradient></defs><path class="cls-1" d="M17.36,79.36c-8.35-22.71,2.58-48.04,24.36-56.48,4.83-1.87,9.9-2.82,15.07-2.82,17.66,0,34.13,11.31,40.98,28.15l2.3,5.65-14.59,5.65-2.23-5.45c-4.46-10.9-15.05-18.22-26.35-18.22-3.25,0-6.43.6-9.47,1.77-13.84,5.36-20.75,21.64-15.39,36.28l2.02,5.53-14.6,5.65-2.11-5.73Z"/><path class="cls-9" d="M45.27,32.02c-17,6.59-25.35,26.19-18.86,43.94l-3.41,1.32c-7.25-19.71,2.02-41.5,20.9-48.82,18.88-7.31,40.41,2.54,48.33,22l-3.41,1.32c-7.16-17.49-26.54-26.35-43.54-19.77Z"/><path class="cls-4" d="M46.59,35.44c-15.19,5.89-22.67,23.39-16.91,39.26l-3.41,1.32c-6.52-17.83,1.87-37.52,18.94-44.13,17.08-6.61,36.54,2.28,43.73,19.85l-3.41,1.32c-6.43-15.61-23.75-23.51-38.94-17.62Z"/><path class="cls-10" d="M47.91,38.85c-13.39,5.19-19.99,20.59-14.95,34.58l-3.41,1.32c-5.8-15.95,1.72-33.54,16.99-39.45,15.27-5.91,32.67,2.02,39.13,17.71l-3.41,1.32c-5.7-13.73-20.96-20.66-34.34-15.48Z"/><path class="cls-8" d="M49.23,42.26c-11.58,4.49-17.3,17.79-12.99,29.89l-3.42,1.32c-5.07-14.07,1.57-29.56,15.03-34.77,13.46-5.21,28.8,1.76,34.53,15.57l-3.42,1.32c-4.97-11.85-18.16-17.82-29.74-13.34Z"/><path class="cls-11" d="M50.56,45.67c-9.79,3.79-14.63,14.97-11.04,25.21l-3.42,1.32c-1.01-2.82-1.49-5.75-1.44-8.72.05-3.09.67-6.09,1.85-8.91s2.85-5.33,4.98-7.45c2.2-2.2,4.79-3.88,7.69-5.01,2.9-1.12,5.95-1.62,9.06-1.48,3,.14,5.93.86,8.7,2.15,2.77,1.29,5.25,3.09,7.37,5.34,2.04,2.16,3.65,4.66,4.81,7.42l-3.42,1.32c-4.25-9.98-15.35-14.99-25.14-11.19Z"/><path class="cls-1" d="M27.32,114.75c-7.69,0-15.19-6.62-16.05-14.17-.85-7.51,1.09-13.91,5.42-18.28-2.33-7.56-1.75-18.89,11.14-27.66,4.62-3.14,9.63-4.74,14.89-4.74,1.86,0,3.6.2,5.19.52.4-2.01,1.13-4.13,2.38-6.17,2.06-3.35,6.33-7.67,14.97-9.16,1.86-.32,3.67-.48,5.38-.48,9.14,0,14.49,4.47,17.33,9.22,2.68-.98,5.99-1.79,9.61-1.79,6.09,0,11.67,2.34,16.13,6.76,7.12,7.06,8.54,14.85,7.82,20.95,3.8.85,8.27,2.68,11.78,6.5,4.33,4.72,6.17,11.23,5.47,19.34-.62,7.19-4.4,12.34-6.59,14.77-2.52,2.78-6.12,4.38-9.88,4.38H27.32Z"/><path class="cls-2" d="M24.06,84.23s-8.7-13.84,7.14-24.62c11.96-8.14,22.91-.3,22.91-.3,0,0-4.72-15.38,12.16-18.29,16.88-2.91,18.39,11.16,18.39,11.16,0,0,13.97-9.85,24.82.9,10.85,10.75,4.22,22.01,4.22,22.01,0,0,21-2.01,19.09,20-.44,5.07-2.98,8.96-5.07,11.26-1.39,1.53-3.36,2.4-5.43,2.4H27.32c-4.66,0-9.56-4.22-10.09-8.84-.44-3.87-.5-11.76,6.83-15.68Z"/><circle class="cls-7" cx="51.28" cy="87.53" r="4.53"/><circle class="cls-6" cx="98.45" cy="87.72" r="4.33"/><circle class="cls-3" cx="57.64" cy="80.99" r="2.49"/><circle class="cls-5" cx="92.46" cy="80.92" r="2.49"/><path class="cls-12" d="M76.29,89.71c-3.42.62-6.42-1.99-6.42-5.28,0-.03,0-.06,0-.1h0c0-.3.24-.54.54-.55h0s9.72,0,9.72,0c.3,0,.54.23.54.53h0c.01.14,0,.13-.01.39-.17,2.46-1.94,4.57-4.38,5.01ZM71.18,84.86c-.1,0-.18.09-.16.19.31,2.08,2.11,3.67,4.27,3.67s3.97-1.6,4.27-3.67c.01-.1-.07-.19-.16-.19h-8.22Z"/></svg>