<?xml version="1.0" encoding="UTF-8"?><svg id="Layer_2" xmlns="http://www.w3.org/2000/svg" viewBox="0 0 150 150"><defs><style>.cls-1{fill:#f9dc4b;}.cls-1,.cls-2{stroke-width:0px;}.cls-3{opacity:.97;}.cls-2{fill:#aa52bf;}</style></defs><g id="Layer_3"><g class="cls-3"><path class="cls-1" d="M73.28,92.78c-.65,0-1.25.31-1.5.8l-5.97,11.6c-.22.15-.07.42.25.42l9.14.13c.25,0,.41.17.33.33l-7.68,14.19c-.14.27.37.46.62.24l19.93-18.15c.18-.16.01-.4-.28-.4h-9.64c-.26,0-.43-.19-.32-.35l5.67-8.39c.14-.21-.16-.4-.42-.34l-10.11-.08Z"/><path class="cls-2" d="M24.07,73.01s-8.7-13.84,7.14-24.62c11.96-8.14,22.91-.3,22.91-.3,0,0-4.72-15.38,12.16-18.29,16.88-2.91,18.39,11.16,18.39,11.16,0,0,13.97-9.85,24.82.9,10.85,10.75,4.22,22.01,4.22,22.01,0,0,21-2.01,19.09,20-.44,5.07-2.98,8.96-5.07,11.26-1.39,1.53-3.36,2.4-5.43,2.4H27.32c-4.66,0-9.56-4.22-10.09-8.84-.44-3.87-.5-11.76,6.83-15.68Z"/></g></g></svg>