<?xml version="1.0" encoding="UTF-8"?><svg id="Layer_2" xmlns="http://www.w3.org/2000/svg" viewBox="0 0 150 150"><defs><style>.cls-1{fill:#ffe773;}.cls-1,.cls-2{stroke-width:0px;}.cls-2{fill:#fe8034;}</style></defs><path class="cls-1" d="M25,91.22s-8.7-13.84,7.14-24.62c11.96-8.14,22.91-.3,22.91-.3,0,0-4.72-15.38,12.16-18.29s18.39,11.16,18.39,11.16c0,0,13.97-9.85,24.82.9,10.85,10.75,4.22,22.01,4.22,22.01,0,0,21-2.01,19.09,20-.44,5.07-2.98,8.96-5.07,11.26-1.39,1.53-3.36,2.4-5.43,2.4H28.26c-4.66,0-9.56-4.22-10.09-8.84-.44-3.87-.5-11.76,6.83-15.68Z"/><circle class="cls-2" cx="41.31" cy="59.43" r="16.93"/><g id="_Radial_Repeat_"><ellipse class="cls-2" cx="32.66" cy="79.97" rx="3.14" ry="1.52" transform="translate(-53.28 88.7) rotate(-73.59)"/></g><g id="_Radial_Repeat_-2"><ellipse class="cls-2" cx="44.17" cy="81.53" rx="1.52" ry="3.14" transform="translate(-18.17 12.89) rotate(-13.8)"/></g><g id="_Radial_Repeat_-3"><ellipse class="cls-2" cx="54.9" cy="77.09" rx="1.52" ry="3.14" transform="translate(-38.15 59.78) rotate(-44.01)"/></g><g id="_Radial_Repeat_-4"><ellipse class="cls-2" cx="61.94" cy="67.85" rx="1.52" ry="3.14" transform="translate(-20.2 109) rotate(-74.22)"/></g><g id="_Radial_Repeat_-5"><ellipse class="cls-2" cx="63.38" cy="56.33" rx="3.14" ry="1.52" transform="translate(-12.04 17.56) rotate(-14.43)"/></g><g id="_Radial_Repeat_-6"><ellipse class="cls-2" cx="58.82" cy="45.65" rx="3.14" ry="1.52" transform="translate(-15.11 54.49) rotate(-44.64)"/></g><g id="_Radial_Repeat_-7"><ellipse class="cls-2" cx="49.5" cy="38.71" rx="3.14" ry="1.52" transform="translate(-.8 76.37) rotate(-74.85)"/></g><g id="_Radial_Repeat_-8"><ellipse class="cls-2" cx="37.96" cy="37.4" rx="1.52" ry="3.14" transform="translate(-8.41 11.15) rotate(-15.06)"/></g><g id="_Radial_Repeat_-9"><ellipse class="cls-2" cx="27.33" cy="42.08" rx="1.52" ry="3.14" transform="translate(-21.79 31.88) rotate(-45.27)"/></g><g id="_Radial_Repeat_-10"><ellipse class="cls-2" cx="20.5" cy="51.47" rx="1.52" ry="3.14" transform="translate(-34.46 58.4) rotate(-75.47)"/></g><g id="_Radial_Repeat_-11"><ellipse class="cls-2" cx="19.32" cy="63.02" rx="3.14" ry="1.52" transform="translate(-16.32 7.57) rotate(-15.68)"/></g><g id="_Radial_Repeat_-12"><ellipse class="cls-2" cx="24.11" cy="73.6" rx="3.14" ry="1.52" transform="translate(-45.52 39.69) rotate(-45.89)"/></g></svg>