<?xml version="1.0" encoding="UTF-8"?><svg id="Layer_2" xmlns="http://www.w3.org/2000/svg" viewBox="0 0 150 150"><defs><style>.cls-1{fill:#2d81e0;}.cls-1,.cls-2,.cls-3{stroke-width:0px;}.cls-2{fill:#cfe4f9;}.cls-3{fill:#e9e9e9;}</style></defs><path class="cls-2" d="M27.32,119.04c-9.76,0-18.93-8.11-20.03-17.71-.9-7.88.89-14.75,4.99-19.83-1.95-9.16.34-21.05,13.29-29.86,5.29-3.6,11.06-5.43,17.14-5.43.79,0,1.55.03,2.3.09.48-1.28,1.09-2.57,1.86-3.83,2.49-4.06,7.59-9.26,17.7-11,2.09-.36,4.13-.54,6.06-.54,8.88,0,15.02,3.78,18.87,8.55,2.43-.66,5.16-1.12,8.07-1.12,7.17,0,13.72,2.74,18.95,7.92,6.92,6.85,9.14,14.36,9.16,20.82,3.59,1.23,7.39,3.3,10.57,6.77,3.52,3.84,7.51,10.84,6.51,22.39-.73,8.36-5.08,14.31-7.61,17.11-3.27,3.62-7.95,5.7-12.84,5.7H27.32Z"/><path class="cls-1" d="M27.32,113.04c-6.74,0-13.31-5.79-14.06-12.39-.85-7.49,1.17-13.56,5.73-17.48-2.55-6.87-2.63-18,9.96-26.58,4.28-2.91,8.91-4.39,13.76-4.39,2.57,0,4.89.42,6.88,1,.2-2.4.85-5.08,2.4-7.61,2.68-4.37,7.26-7.14,13.61-8.23,1.75-.3,3.45-.46,5.04-.46,9.21,0,14.14,4.99,16.42,9.75,2.73-1.18,6.44-2.32,10.52-2.32,5.63,0,10.58,2.08,14.73,6.18,7.34,7.27,8.13,15.34,6.96,21.13,3.81.59,8.83,2.16,12.57,6.25,3.94,4.29,5.6,10.29,4.95,17.82-.57,6.61-4.06,11.36-6.09,13.6-2.14,2.37-5.2,3.72-8.39,3.72H27.32Z"/><path class="cls-3" d="M24.07,84.52s-8.7-13.84,7.14-24.62c11.96-8.14,22.91-.3,22.91-.3,0,0-4.72-15.38,12.16-18.29,16.88-2.91,18.39,11.16,18.39,11.16,0,0,13.97-9.85,24.82.9,10.85,10.75,4.22,22.01,4.22,22.01,0,0,21-2.01,19.09,20-.44,5.07-2.98,8.96-5.07,11.26-1.39,1.53-3.36,2.4-5.43,2.4H27.32c-4.66,0-9.56-4.22-10.09-8.84-.44-3.87-.5-11.76,6.83-15.68Z"/></svg>