<?xml version="1.0" encoding="UTF-8"?><svg id="Layer_2" xmlns="http://www.w3.org/2000/svg" xmlns:xlink="http://www.w3.org/1999/xlink" viewBox="0 0 150 150"><defs><style>.cls-1{fill:#2c2c2c;stroke:#000;stroke-miterlimit:10;stroke-width:2px;}.cls-2{fill:url(#radial-gradient-2);}.cls-2,.cls-3,.cls-4,.cls-5{stroke-width:0px;}.cls-3{fill:url(#radial-gradient);}.cls-4{fill:#cfe4f9;}.cls-5{fill:#e9e9e9;}</style><radialGradient id="radial-gradient" cx="50.99" cy="88.52" fx="50.99" fy="88.52" r="4.53" gradientUnits="userSpaceOnUse"><stop offset="0" stop-color="#747575"/><stop offset=".16" stop-color="gray"/><stop offset=".46" stop-color="#a0a0a0"/><stop offset=".85" stop-color="#d3d3d3"/><stop offset="1" stop-color="#e9e9e9"/></radialGradient><radialGradient id="radial-gradient-2" cx="98.45" cy="88.26" fx="98.45" fy="88.26" r="4.33" gradientUnits="userSpaceOnUse"><stop offset="0" stop-color="#7a7b7b"/><stop offset=".17" stop-color="#868686"/><stop offset=".48" stop-color="#a6a6a6"/><stop offset=".89" stop-color="#d9d9d9"/><stop offset="1" stop-color="#e9e9e9"/></radialGradient></defs><path class="cls-4" d="M27.32,115.29c-7.69,0-15.19-6.62-16.05-14.17-.85-7.51,1.09-13.91,5.42-18.28-2.33-7.56-1.75-18.89,11.14-27.66,4.62-3.14,9.63-4.74,14.89-4.74,1.86,0,3.6.2,5.19.52.4-2.01,1.13-4.13,2.38-6.17,2.06-3.35,6.33-7.67,14.97-9.16,1.86-.32,3.67-.48,5.38-.48,9.14,0,14.49,4.47,17.33,9.22,2.68-.98,5.99-1.79,9.61-1.79,6.09,0,11.67,2.34,16.13,6.76,7.12,7.06,8.54,14.85,7.82,20.95,3.8.85,8.27,2.68,11.78,6.5,4.33,4.72,6.17,11.23,5.47,19.34-.62,7.19-4.4,12.34-6.6,14.77-2.52,2.78-6.12,4.38-9.88,4.38H27.32Z"/><path class="cls-5" d="M24.07,84.77s-8.7-13.84,7.14-24.62c11.96-8.14,22.91-.3,22.91-.3,0,0-4.72-15.38,12.16-18.29,16.88-2.91,18.39,11.16,18.39,11.16,0,0,13.97-9.85,24.82.9,10.85,10.75,4.22,22.01,4.22,22.01,0,0,21-2.01,19.09,20-.44,5.07-2.98,8.96-5.07,11.26-1.39,1.53-3.36,2.4-5.43,2.4H27.32c-4.66,0-9.56-4.22-10.09-8.84-.44-3.87-.5-11.76,6.83-15.68Z"/><circle class="cls-3" cx="50.99" cy="88.52" r="4.53"/><rect class="cls-1" x="90.25" y="81.05" width="7.22" height=".78" rx=".19" ry=".19"/><rect class="cls-1" x="52.93" y="81.53" width="7.22" height=".37" rx=".19" ry=".19"/><rect class="cls-1" x="68.78" y="86.78" width="12.44" height=".78" rx=".19" ry=".19"/><circle class="cls-2" cx="98.45" cy="88.26" r="4.33"/></svg>