<?xml version="1.0" encoding="UTF-8"?><svg id="Layer_2" xmlns="http://www.w3.org/2000/svg" xmlns:xlink="http://www.w3.org/1999/xlink" viewBox="0 0 150 150"><defs><style>.cls-1{fill:#dfeeff;}.cls-1,.cls-2,.cls-3,.cls-4,.cls-5,.cls-6,.cls-7{stroke-width:0px;}.cls-2,.cls-8{fill:#2c2c2c;}.cls-3{fill:#ffe773;}.cls-4{fill:#2c2c2c;}.cls-5{fill:url(#radial-gradient-2);}.cls-8{stroke:#2c2c2c;stroke-miterlimit:10;stroke-width:2px;}.cls-6{fill:url(#radial-gradient);}.cls-7{fill:#fe8034;}</style><radialGradient id="radial-gradient" cx="51.28" cy="87.42" fx="51.28" fy="87.42" r="4.53" gradientUnits="userSpaceOnUse"><stop offset="0" stop-color="#fe8034"/><stop offset=".18" stop-color="#fe8c3b"/><stop offset=".51" stop-color="#feac4e"/><stop offset=".94" stop-color="#fedf6e"/><stop offset="1" stop-color="#ffe773"/></radialGradient><radialGradient id="radial-gradient-2" cx="98.45" cy="87.61" fx="98.45" fy="87.61" r="4.33" gradientUnits="userSpaceOnUse"><stop offset="0" stop-color="#fe8034"/><stop offset=".18" stop-color="#fe8c3b"/><stop offset=".51" stop-color="#feac4e"/><stop offset=".94" stop-color="#fedf6e"/><stop offset="1" stop-color="#ffe773"/></radialGradient></defs><circle class="cls-1" cx="39.44" cy="50.98" r="28.32"/><path class="cls-1" d="M27.32,114.64c-7.69,0-15.19-6.62-16.05-14.16-.85-7.51,1.09-13.91,5.42-18.28-2.33-7.56-1.75-18.89,11.14-27.66,4.62-3.14,9.63-4.74,14.89-4.74,1.86,0,3.6.2,5.19.52.4-2.01,1.13-4.13,2.38-6.17,2.06-3.35,6.33-7.67,14.97-9.16,1.86-.32,3.67-.48,5.38-.48,9.14,0,14.49,4.47,17.33,9.22,2.68-.98,5.99-1.79,9.61-1.79,6.09,0,11.67,2.34,16.13,6.76,7.12,7.06,8.54,14.85,7.82,20.95,3.8.85,8.27,2.68,11.78,6.5,4.33,4.72,6.17,11.23,5.47,19.34-.62,7.19-4.4,12.34-6.59,14.77-2.52,2.78-6.12,4.38-9.88,4.38H27.32Z"/><path class="cls-3" d="M24.06,84.12s-8.7-13.84,7.14-24.62c11.96-8.14,22.91-.3,22.91-.3,0,0-4.72-15.38,12.16-18.29s18.39,11.16,18.39,11.16c0,0,13.97-9.85,24.82.9,10.85,10.75,4.22,22.01,4.22,22.01,0,0,21-2.01,19.09,20-.44,5.07-2.98,8.96-5.07,11.26-1.39,1.53-3.36,2.4-5.43,2.4H27.32c-4.66,0-9.56-4.22-10.09-8.84-.44-3.87-.5-11.76,6.83-15.68Z"/><circle class="cls-6" cx="51.28" cy="87.42" r="4.53"/><circle class="cls-5" cx="98.45" cy="87.61" r="4.33"/><circle class="cls-2" cx="57.64" cy="80.88" r="2.49"/><circle class="cls-4" cx="92.46" cy="80.81" r="2.49"/><path class="cls-8" d="M75.15,88.53c-2.32-.02-4.26-1.56-4.42-3.54-.01-.15-.16-.27-.33-.28-.21,0-.38.15-.36.33.2,2.32,2.41,4.14,5.11,4.15h-.01c2.7,0,4.91-1.83,5.11-4.15.02-.18-.15-.34-.36-.33-.18,0-.32.13-.33.28-.16,1.99-2.1,3.52-4.42,3.54"/><circle class="cls-7" cx="40.37" cy="52.33" r="16.93"/><g id="_Radial_Repeat_"><ellipse class="cls-7" cx="31.72" cy="72.86" rx="3.14" ry="1.52" transform="translate(-47.14 82.71) rotate(-73.59)"/></g><g id="_Radial_Repeat_-2"><ellipse class="cls-7" cx="43.23" cy="74.43" rx="1.52" ry="3.14" transform="translate(-16.5 12.46) rotate(-13.8)"/></g><g id="_Radial_Repeat_-3"><ellipse class="cls-7" cx="53.96" cy="69.99" rx="1.52" ry="3.14" transform="translate(-33.47 57.14) rotate(-44.01)"/></g><g id="_Radial_Repeat_-4"><ellipse class="cls-7" cx="61" cy="60.75" rx="1.52" ry="3.14" transform="translate(-14.05 102.93) rotate(-74.22)"/></g><g id="_Radial_Repeat_-5"><ellipse class="cls-7" cx="62.44" cy="49.23" rx="3.14" ry="1.52" transform="translate(-10.3 17.11) rotate(-14.43)"/></g><g id="_Radial_Repeat_-6"><ellipse class="cls-7" cx="57.88" cy="38.54" rx="3.14" ry="1.52" transform="translate(-10.39 51.78) rotate(-44.64)"/></g><g id="_Radial_Repeat_-7"><ellipse class="cls-7" cx="48.57" cy="31.61" rx="3.14" ry="1.52" transform="translate(5.36 70.22) rotate(-74.85)"/></g><g id="_Radial_Repeat_-8"><ellipse class="cls-7" cx="37.03" cy="30.3" rx="1.52" ry="3.14" transform="translate(-6.6 10.66) rotate(-15.06)"/></g><g id="_Radial_Repeat_-9"><ellipse class="cls-7" cx="26.39" cy="34.97" rx="1.52" ry="3.14" transform="translate(-17.03 29.11) rotate(-45.27)"/></g><g id="_Radial_Repeat_-10"><ellipse class="cls-7" cx="19.56" cy="44.36" rx="1.52" ry="3.14" transform="translate(-28.29 52.17) rotate(-75.47)"/></g><g id="_Radial_Repeat_-11"><ellipse class="cls-7" cx="18.38" cy="55.91" rx="3.14" ry="1.52" transform="translate(-14.43 7.05) rotate(-15.68)"/></g><g id="_Radial_Repeat_-12"><ellipse class="cls-7" cx="23.17" cy="66.49" rx="3.14" ry="1.52" transform="translate(-40.7 36.85) rotate(-45.89)"/></g></svg>