<?xml version="1.0" encoding="UTF-8"?><svg id="Layer_2" xmlns="http://www.w3.org/2000/svg" viewBox="0 0 150 150"><defs><style>.cls-1{stroke-dasharray:0 0 1.99 1.99;}.cls-1,.cls-2,.cls-3,.cls-4,.cls-5{fill:none;stroke:#706f6f;stroke-miterlimit:6;}.cls-2{stroke-dasharray:0 0 1.96 1.96;}.cls-3{stroke-dasharray:0 0 2.07 2.07;}.cls-6{fill:#e8e8e8;stroke-width:0px;}.cls-5{stroke-dasharray:0 0 2.03 2.03;}</style></defs><path class="cls-6" d="M24.07,84.6s-8.7-13.84,7.14-24.62c11.96-8.14,22.91-.3,22.91-.3,0,0-4.72-15.38,12.16-18.29,16.88-2.91,18.39,11.16,18.39,11.16,0,0,13.97-9.85,24.82.9,10.85,10.75,4.22,22.01,4.22,22.01,0,0,21-2.01,19.09,20-.44,5.07-2.98,8.96-5.07,11.26-1.39,1.53-3.36,2.4-5.43,2.4H27.32c-4.66,0-9.56-4.22-10.09-8.84-.44-3.87-.5-11.76,6.83-15.68Z"/><path class="cls-4" d="M23.2,85.1c.28-.17.56-.34.87-.5,0,0-.2-.31-.47-.88"/><path class="cls-5" d="M22.8,81.85c-1.65-4.58-3.12-14.04,8.4-21.88,9.1-6.19,17.61-3.14,21.17-1.32"/><path class="cls-4" d="M53.27,59.14c.55.32.84.53.84.53,0,0-.11-.35-.23-.97"/><path class="cls-3" d="M53.58,56.66c-.42-4.63.54-13.18,12.69-15.28,12.84-2.22,16.79,5.39,17.94,9.16"/><path class="cls-4" d="M84.49,51.56c.14.61.18.98.18.98,0,0,.3-.21.84-.54"/><path class="cls-2" d="M87.23,51.06c4.53-2.27,14.25-5.56,22.26,2.38,8.23,8.16,6.41,16.6,5.04,20.2"/><path class="cls-4" d="M114.16,74.56c-.26.58-.44.89-.44.89,0,0,.37-.03,1-.05"/><path class="cls-1" d="M116.69,75.46c5.72.39,17.57,3.22,16.12,19.99-.44,5.07-2.98,8.96-5.07,11.26-1.39,1.53-3.36,2.4-5.43,2.4H27.32c-4.66,0-9.56-4.22-10.09-8.84-.4-3.55-.49-10.47,5.15-14.62"/></svg>